<svg xmlns="http://www.w3.org/2000/svg" xmlns:xlink="http://www.w3.org/1999/xlink" viewBox="0 0 110.75 165.58"><defs><style>.cls-1{fill:#fff;}.cls-1,.cls-16,.cls-18{fill-rule:evenodd;}.cls-2{fill:#545487;}.cls-3{fill:#cfd8dc;}.cls-4{fill:#263238;}.cls-5{fill:#205794;}.cls-6{opacity:0.2;}.cls-7{fill:#212121;}.cls-8{fill:#ca5c28;}.cls-9{fill:#78909c;}.cls-10{fill:#000014;}.cls-11{opacity:0.43;}.cls-12{fill:#eee;}.cls-13{fill:#141212;}.cls-14{fill:#0f0f0f;}.cls-15{mask:url(#mask);}.cls-16{fill:#6d6ca3;}.cls-17{mask:url(#mask-2-2);}.cls-18{fill:#504e77;}</style><mask id="mask" x="44.24" y="61.81" width="16.78" height="20.07" maskUnits="userSpaceOnUse"><g id="mask-2"><polygon id="path-1" class="cls-1" points="47.66 61.81 61.03 64.42 57.62 81.88 44.24 79.26 47.66 61.81"/></g></mask><mask id="mask-2-2" x="46.4" y="62.23" width="30.92" height="22.83" maskUnits="userSpaceOnUse"><g id="mask-4"><polygon id="path-3" class="cls-1" points="49.81 62.23 77.31 67.61 73.9 85.06 46.4 79.68 49.81 62.23"/></g></mask></defs><title>mars-astro</title><g id="Layer_2" data-name="Layer 2"><g id="Layer_1-2" data-name="Layer 1"><g id="Page-1"><g id="Artboard-Copy"><g id="astronaut"><g id="Group-2"><g id="duhanhgia"><g id="Vector"><g id="path185_fill-link" data-name="path185 fill-link"><path id="path185_fill" data-name="path185 fill" class="cls-2" d="M28.08,93.82a3.24,3.24,0,0,0,2.47,3.89l42.26,10.4a3.35,3.35,0,0,0,4-2.34l10.4-42.35a3.25,3.25,0,0,0-2.47-3.9L42.51,49.13a3.35,3.35,0,0,0-4,2.34Z"/></g></g><g id="Group"><g id="Vector-2" data-name="Vector"><g id="path186_fill-link" data-name="path186 fill-link"><path id="path186_fill" data-name="path186 fill" class="cls-3" d="M51,108v.52A279.26,279.26,0,0,0,52.26,141a5.33,5.33,0,0,1,.13,1.43v.26c.26,1.43.39,2.86.65,4.15.13.39.13.65.26,1A17.79,17.79,0,0,0,55,152.79c.13.13.13.26.26.39a1.57,1.57,0,0,0,1.17.78h.91a1,1,0,0,0,.52-.13c.13,0,.26-.13.39-.13a5.37,5.37,0,0,0,1.43-.91c.13-.13.39-.26.52-.39l.65-.65c.26-.26.39-.52.65-.78.39-.52.78-1.17,1.17-1.69a7.72,7.72,0,0,0,.52-1,49.68,49.68,0,0,0,2.21-4.54,1.85,1.85,0,0,0,.26-.78c.13-.13.13-.39.26-.52.13-.39.26-.65.39-1A137,137,0,0,0,74,106.94C74,106.68,51.22,105.25,51,108Z"/></g><g id="path187_fill-link" data-name="path187 fill-link"><path id="path187_fill" data-name="path187 fill" class="cls-4" d="M52.52,142.53v.26c.26,1.43.39,2.86.65,4.16.13.39.13.65.26,1a17.58,17.58,0,0,0,1.69,4.93c.13.13.13.26.26.39a1.57,1.57,0,0,0,1.17.78h.91A1,1,0,0,0,58,154c.13,0,.26-.13.39-.13a5.37,5.37,0,0,0,1.43-.91c.13-.13.39-.26.52-.38l.65-.65c.26-.26.39-.52.65-.78.39-.52.78-1.17,1.17-1.69a7.72,7.72,0,0,0,.52-1,50,50,0,0,0,2.21-4.55,1.85,1.85,0,0,0,.26-.78c.13-.13.13-.39.26-.52a13.08,13.08,0,0,0-5.07-1,14.73,14.73,0,0,0-3.38.13A8.12,8.12,0,0,0,52.52,142.53Z"/></g><g id="path188_fill-link" data-name="path188 fill-link"><path id="path188_fill" data-name="path188 fill" class="cls-5" d="M51.61,142.14c.13.26.26.52.65.52h.39a26.56,26.56,0,0,1,4.81-.78,25,25,0,0,1,3.12,0,30.14,30.14,0,0,1,4.94.78h.13a.81.81,0,0,0,1-.65.88.88,0,0,0-.52-1,24.25,24.25,0,0,0-5.34-.91,15.84,15.84,0,0,0-3.51,0,18.56,18.56,0,0,0-4.94.91h-.13A1.05,1.05,0,0,0,51.61,142.14Z"/></g></g><g id="Vector-3" data-name="Vector" class="cls-6"><g id="path189_fill-link" data-name="path189 fill-link"><path id="path189_fill" data-name="path189 fill" class="cls-7" d="M51.61,142.14c.13.26.26.52.65.52h.26c.26,1.43.39,2.86.65,4.16.13.39.13.65.26,1a17.79,17.79,0,0,0,1.69,4.94c.13.13.13.26.26.38a1.57,1.57,0,0,0,1.17.78h.91a1,1,0,0,0,.52-.13c.13,0,.26-.13.39-.13a5.6,5.6,0,0,0,1.43-.9A57.74,57.74,0,0,1,57.59,142c0-.26-.13-.52-.13-.78a2.14,2.14,0,0,0-.13-.9,153.2,153.2,0,0,1-.13-30.92,55.11,55.11,0,0,1-6.11-.78,279.11,279.11,0,0,0,1.3,32.47h-.13A.85.85,0,0,0,51.61,142.14Z"/></g></g><g id="Vector-4" data-name="Vector"><g id="path190_fill-link" data-name="path190 fill-link"><path id="path190_fill" data-name="path190 fill" class="cls-3" d="M20.66,130.06c0,.39-.13.78-.13,1v.65c0,.39-.13.78-.13,1.17a2.86,2.86,0,0,1-.13,1,26.8,26.8,0,0,0,.39,7.53,1.85,1.85,0,0,0,.26.78,8.28,8.28,0,0,1,.26.91c.13.26.13.39.26.65a1.79,1.79,0,0,0,.39.52l.39.39.39.39c.13.13.26.26.39.26s.26.13.39.26a.83.83,0,0,0,.78,0h.26a5.48,5.48,0,0,0,1.44-.78c.13-.13.26-.26.39-.26.39-.39.78-.65,1.3-1.17.26-.26.52-.65.91-1,.65-.65,1.3-1.56,2-2.33a9.11,9.11,0,0,1,1-1.3,11.24,11.24,0,0,0,.91-1.3c0-.13.13-.13.13-.26l.78-1.17A306,306,0,0,0,49.53,108c.13-.26.13-.39.26-.52.78-1.69-8.06-6.23-14-9.22-3.12-1.56-5.59-2.6-5.59-2.6A138.8,138.8,0,0,0,20.66,130.06Z"/></g><g id="path191_fill-link" data-name="path191 fill-link"><path id="path191_fill" data-name="path191 fill" class="cls-4" d="M20.53,131.1v.65c0,.39-.13.78-.13,1.17a2.86,2.86,0,0,1-.13,1,26.83,26.83,0,0,0,.39,7.53,1.85,1.85,0,0,0,.26.78,8.28,8.28,0,0,1,.26.91c.13.26.13.39.26.65a1.79,1.79,0,0,0,.39.52l.39.39.39.39c.13.13.26.26.39.26s.26.13.39.26a.85.85,0,0,0,.79,0h.26a5.3,5.3,0,0,0,1.43-.78c.13-.13.26-.26.39-.26.39-.39.78-.65,1.3-1.17.26-.26.52-.65.91-1,.65-.65,1.3-1.56,2-2.34a9.11,9.11,0,0,1,1-1.3,11.24,11.24,0,0,0,.91-1.3c0-.12.13-.12.13-.25a16.22,16.22,0,0,0-6.37-4.81,10.19,10.19,0,0,0-1.82-.65C22.87,131.49,21.7,131.23,20.53,131.1Z"/></g><g id="path192_fill-link" data-name="path192 fill-link"><path id="path192_fill" data-name="path192 fill" class="cls-5" d="M19.75,130.71a.76.76,0,0,0,.65.91h.13c1,.26,2.21.52,3.38.91.52.26,1.17.39,1.7.65a26.88,26.88,0,0,1,6.5,4.15l.13.13c.13.13.13.13.26.13a.63.63,0,0,0,.78-.26,1,1,0,0,0,0-1.16l-.13-.13a25.36,25.36,0,0,0-6.76-4.42l-2-.78a18.65,18.65,0,0,0-3.64-.91A1.13,1.13,0,0,0,19.75,130.71Z"/></g></g><g id="Vector-5" data-name="Vector"><g id="path193_fill-link" data-name="path193 fill-link"><path id="path193_fill" data-name="path193 fill" class="cls-3" d="M29.38,97.45c-.26.91,1.82,2.47,4.81,4a115.87,115.87,0,0,0,15.08,6.62,5.11,5.11,0,0,0,.78.26c.26,0,.52.13.78.13s.91.13,1.56.26a1.65,1.65,0,0,1,.78.13c1,.13,2.21.26,3.38.39h.39c6.76.65,16,.91,16.52-.91a11.59,11.59,0,0,1,.26-1.43c.26-1.17.52-2.86.78-5.06.13-.52.13-1,.26-1.69v-.13c0-.26.13-.52.13-.78,0-.52.13-1,.13-1.69a1.65,1.65,0,0,1,.13-.78v-.13c0-.52.13-1,.13-1.56s.13-1.17.13-1.69a62.49,62.49,0,0,0,.13-7v-2a8,8,0,0,0-.13-1.69,49.76,49.76,0,0,0-1.17-8.83,10.83,10.83,0,0,0-.52-2c-1.43-5.46-4-10-8.33-12.34a11.11,11.11,0,0,0-3.12-1.17,12.82,12.82,0,0,0-3.12-.39c-5.07,0-9.49,3-13.52,7.27a.45.45,0,0,0-.13.26,22.82,22.82,0,0,0-3.12,3.9,51.42,51.42,0,0,0-2.86,4.42,7.26,7.26,0,0,1-.65,1c0,.13-.13.13-.13.26a.45.45,0,0,0-.13.26.45.45,0,0,1-.13.26,15.12,15.12,0,0,0-.78,1.42.13.13,0,0,1-.13.13c-.26.39-.39.78-.65,1.17-.91,1.69-1.69,3.38-2.34,4.94A8,8,0,0,0,33.93,85c-.26.52-.39.91-.65,1.43v.13c0,.13-.13.26-.13.39-.39.91-.65,1.69-1,2.6v.13a9.39,9.39,0,0,0-.52,1.42A32.31,32.31,0,0,0,30,95.76C29.64,96.67,29.51,97.19,29.38,97.45Z"/></g></g><g id="Vector-6" data-name="Vector"><g id="path194_fill-link" data-name="path194 fill-link"><path id="path194_fill" data-name="path194 fill" class="cls-8" d="M52,101.09c2.34.52,18.86,2.34,23.15.65a.79.79,0,1,0-.65-1.43c-3.64,1.43-19.51,0-22.11-.65S35.1,93,32.5,90.05a.83.83,0,0,0-1.3,1C34.19,94.47,49.66,100.57,52,101.09Z"/></g></g><g id="Vector-7" data-name="Vector"><g id="path195_fill-link" data-name="path195 fill-link"><path id="path195_fill" data-name="path195 fill" class="cls-3" d="M28.47,71.47,87,85.89A30,30,0,0,0,66.69,50,8.41,8.41,0,0,0,65,49.52a30,30,0,0,0-23.27,3.77,38.55,38.55,0,0,0-4.55,3.5,17.37,17.37,0,0,0-2.6,2.73,31.13,31.13,0,0,0-4.68,7.67A32.5,32.5,0,0,0,28.47,71.47Z"/></g></g><g id="Vector-8" data-name="Vector"><g id="path196_fill-link" data-name="path196 fill-link"><path id="path196_fill" data-name="path196 fill" class="cls-3" d="M34.58,67.58a17.6,17.6,0,0,0,1,5.58c0,.13.13.26.13.39v.13c.13.26.13.39.26.65a26,26,0,0,0,1.3,2.73,1.79,1.79,0,0,0,.39.52c.26.52.65,1,.91,1.56l34.07,8.44c1-.26,1.95-.65,2.86-.91h.13a1,1,0,0,0,.52-.26,16.42,16.42,0,0,0,3.38-1.82c.13,0,.13-.13.26-.13s.13-.13.26-.13a17.21,17.21,0,0,0,3.77-3.76,12.75,12.75,0,0,0,1.69-9.49c-.13-.39-.13-.91-.26-1.3a22.13,22.13,0,0,0-2.86-6.49c-3.77-6-10-11.3-16.26-13.25-.39-.13-.78-.26-1.3-.39a4.62,4.62,0,0,0-1.3-.26,30.05,30.05,0,0,0-20,3.77c-.26.13-.39.26-.65.39a22.21,22.21,0,0,0-3.38,2.73c-.65.64-1.3,1.42-2,2.2-.13.13-.26.26-.26.39A13.18,13.18,0,0,0,34.58,67.58Z"/></g></g><g id="Vector-9" data-name="Vector"><g id="path197_fill-link" data-name="path197 fill-link"><path id="path197_fill" data-name="path197 fill" class="cls-3" d="M8.83,67.32l.78,1.43,2.6,4.8L13,75l.78-.39c1.82-.78,4.29-1.42,5.85-2.07,3.25-1.17,9-.78,12.1-.13a7.45,7.45,0,0,1,1.82.52c.78.26,1.43.52,2.08.77a18.22,18.22,0,0,1,3.12,1.95A5.75,5.75,0,0,1,40.56,78a3,3,0,0,0,1.82,2,4.62,4.62,0,0,1,1.17.52,12.34,12.34,0,0,1,4.29,2.73L49,81.74l3.38-4.29L64.22,62.12a28.24,28.24,0,0,0-5.07-3.63,36.79,36.79,0,0,0-15.73-5.07,1.17,1.17,0,0,1-.65-.13h-1.3a27.28,27.28,0,0,0-5.59.26,34.75,34.75,0,0,0-6.24,1c-.13,0-.26.13-.39.13-3.52.91-5.73,1.43-12.49,6.11-2.34,1.29-4.16,3.5-6.37,5.19a7.43,7.43,0,0,1-.91,1A2.2,2.2,0,0,0,8.83,67.32Z"/></g><g id="path198_fill-link" data-name="path198 fill-link"><path id="path198_fill" data-name="path198 fill" class="cls-3" d="M1,79a1.79,1.79,0,0,0,.39.52c3.12,4,2.21-5.46,6-4.29,1.43,1.3-3,5.33-.65,5.85h.39c1,.13,3.12-2.47,5.33-5.72a2.84,2.84,0,0,1,.39-.65l-.78-1.42-2.6-4.81L8.7,67.06c-.26.13-.52.13-.78.26C1.94,69.27-2,74.59,1,79Z"/></g><g id="path199_fill-link" data-name="path199 fill-link"><path id="path199_fill" data-name="path199 fill" class="cls-8" d="M8.05,67.45c0,.13,0,.13.13.26l.65,1.17,2.86,5.19.65,1.17c.13.13.13.26.26.26s.13.13.26.13a1.17,1.17,0,0,0,.65-.13.87.87,0,0,0,.39-1l-.78-1.56-2.47-4.54-.78-1.43a1,1,0,0,0-1.17-.39C8.18,66.67,7.92,67.06,8.05,67.45Z"/></g><g id="path200_fill-link" data-name="path200 fill-link"><path id="path200_fill" data-name="path200 fill" class="cls-8" d="M29.38,54.59l.91,2.86.91,3.11,6.37-2.07-.13-.26-.52-1.69-.91-3a34.75,34.75,0,0,0-6.24,1Z"/></g></g><g id="Vector-10" data-name="Vector"><g id="path201_fill-link" data-name="path201 fill-link"><path id="path201_fill" data-name="path201 fill" class="cls-3" d="M59.54,61l1,6L62.92,80l1,5.33.26,1.82a6.46,6.46,0,0,1,2.08-.39,18.54,18.54,0,0,1,2.48-.13h.65c1.43.13,2.34.39,3.77-.78a6.2,6.2,0,0,1,2.08-1c.13,0,.13,0,.26-.13a12.86,12.86,0,0,1,4-.39h.26a.78.78,0,0,1,.52.13,10,10,0,0,1,2,.26c.39.13.78.13,1.3.26,3.12.91,8.32,3.12,10.66,5.72l.13.13c1.17,1.29,3,3,4.29,4.54.13.26.39.39.52.65l1.69-1.17,5.33-3.63a1.3,1.3,0,0,1-.52-.65,5,5,0,0,1-.39-1.3c-1.17-2.6-1.82-5.33-3.25-7.54-3.77-7.4-5.46-8.83-8.19-11.3-.13-.13-.26-.13-.39-.26a32.42,32.42,0,0,0-4.94-3.76,35.18,35.18,0,0,0-4.81-2.73c-.39-.26-.91-.39-1.3-.65a36.16,36.16,0,0,0-16.91-3,13.88,13.88,0,0,0-3.25.39A20.18,20.18,0,0,0,59.54,61Z"/></g><g id="path202_fill-link" data-name="path202 fill-link"><path id="path202_fill" data-name="path202 fill" class="cls-3" d="M99.07,96a1.65,1.65,0,0,0,.13.78c.39,3.89,1,7.14,2.08,7.53.13,0,.13,0,.26.13,2.08.65,1-3,1.56-4.68.13-.39.39-.78.65-.78,4.16.78-1.69,9.23,3.77,6.37a.13.13,0,0,0,.13-.13c4.69-2.47,3.78-9-.78-13.51-.26-.13-.39-.39-.65-.52L100.76,95Z"/></g><g id="path203_fill-link" data-name="path203 fill-link"><path id="path203_fill" data-name="path203 fill" class="cls-8" d="M98.42,96.54a1.79,1.79,0,0,0,.52.39h.26a.48.48,0,0,0,.39-.13l1.43-.91,5.72-3.9.13-.13a.79.79,0,0,0,0-1,.85.85,0,0,0-1.17-.25l-5.33,3.63-1.82,1.17A1,1,0,0,0,98.42,96.54Z"/></g><g id="path204_fill-link" data-name="path204 fill-link"><path id="path204_fill" data-name="path204 fill" class="cls-8" d="M84.77,70.05l4.68,4.67,4.42-4.28c-.13-.13-.26-.13-.39-.26a33.16,33.16,0,0,0-4.94-3.77Z"/></g></g><g id="Vector-11" data-name="Vector" class="cls-6"><g id="path208_fill-link" data-name="path208 fill-link"><path id="path208_fill" data-name="path208 fill" class="cls-7" d="M11.56,74.08l.65-.65a2.84,2.84,0,0,1,.65-.52c2.21-2,7.8-6,17-5.72a30.93,30.93,0,0,1,4.68.39,35,35,0,0,1,7.93,2.21A37.78,37.78,0,0,1,42.9,75a30.39,30.39,0,0,1-.39,4.93v.13a44.56,44.56,0,0,1-1.43,6,8,8,0,0,1-.65,1.56c-.26.52-.39,1-.65,1.55a33.24,33.24,0,0,1-1.43,3.12,7.72,7.72,0,0,1-.52,1,8,8,0,0,0-.65,1.56,31.12,31.12,0,0,0-1.69,3.64c-.39.78-.65,1.56-1,2.47-.13.13-.13.39-.26.64-2.08,5.59-6.89,18.32-9.89,29.49L24,132c-.13.26-.13.52-.26.78a58.2,58.2,0,0,0-2.08,11.82c-.13-.13-.26-.39-.39-.52s-.26-.39-.26-.65a1.88,1.88,0,0,1-.26-.91c-.13-.26-.13-.52-.26-.78a27.15,27.15,0,0,1-.39-7.53,2.86,2.86,0,0,1,.13-1A3.6,3.6,0,0,1,20.4,132v-.13h-.13c-.52-.13-.78-.52-.65-.91s.52-.78.91-.65c1.43-11.56,5.73-26.37,9.11-34l1.56-4.68-.26-.26a.82.82,0,0,1,.13-1.17.61.61,0,0,1,.78-.13c.26-.78.65-1.68,1-2.59,0-.13.13-.26.13-.39v-.13c.26-.52.39-.91.65-1.43s.39-1,.65-1.56c.78-1.56,1.56-3.25,2.34-4.94.26-.39.39-.78.65-1.17a1.79,1.79,0,0,0-.39-.52,25.85,25.85,0,0,1-1.3-2.72c-.13-.26-.13-.39-.26-.65v-.13A13.53,13.53,0,0,0,33.28,73l-1.82-.52c-3.12-.65-8.85-1-12.1.13-1.56.65-4,1.3-5.85,2.08a.82.82,0,0,1-.39,1,1,1,0,0,1-.65.13c-.13,0-.13,0-.26-.13C10.13,79,7.92,81.61,6.88,81.48H6.49C8.57,78.49,10.13,75.77,11.56,74.08Z"/></g></g><g id="Vector-12" data-name="Vector"><g id="path209_fill-link" data-name="path209 fill-link"><path id="path209_fill" data-name="path209 fill" class="cls-7" d="M64.79,95A2.47,2.47,0,1,1,66,90.23,2.47,2.47,0,1,1,64.79,95Z"/></g></g><g id="Vector-13" data-name="Vector"><g id="path211_fill-link" data-name="path211 fill-link"><path id="path211_fill" data-name="path211 fill" class="cls-7" d="M43.1,89.59a2.47,2.47,0,1,1,3-1.8A2.46,2.46,0,0,1,43.1,89.59Z"/></g></g><g id="Vector-14" data-name="Vector" class="cls-6"><g id="path212_fill-link" data-name="path212 fill-link"><path id="path212_fill" data-name="path212 fill" class="cls-7" d="M63.31,96.93a7.25,7.25,0,0,0,4.43,2.6,33.92,33.92,0,0,0,7,.65c.13-1,.26-2.21.39-3.38-5.85-.13-8.06-.65-9.24-2.07a1.55,1.55,0,0,0-2.34-.26A2,2,0,0,0,63.31,96.93Z"/></g></g><g id="Vector-15" data-name="Vector"><g id="path213_fill-link" data-name="path213 fill-link"><path id="path213_fill" data-name="path213 fill" class="cls-9" d="M68.64,96.28a32.4,32.4,0,0,0,7.81.65,1.69,1.69,0,0,0,0-3.38c-6.24-.13-8.59-.65-9.76-2.07a1.66,1.66,0,0,0-2.6,2.07A7.74,7.74,0,0,0,68.64,96.28Z"/></g></g><g id="Vector-16" data-name="Vector" class="cls-6"><g id="path214_fill-link" data-name="path214 fill-link"><path id="path214_fill" data-name="path214 fill" class="cls-7" d="M32.11,89.79a26.59,26.59,0,0,0,6.24,2.47,7.81,7.81,0,0,0,5.2-.26,1.72,1.72,0,0,0-1.43-3.12c-1.69.78-3.77.13-8.84-2.34C32.89,87.71,32.5,88.75,32.11,89.79Z"/></g></g><g id="Vector-17" data-name="Vector"><g id="path215_fill-link" data-name="path215 fill-link"><path id="path215_fill" data-name="path215 fill" class="cls-9" d="M39.13,89a7.81,7.81,0,0,0,5.2-.26,1.67,1.67,0,0,0,.78-2.21,1.86,1.86,0,0,0-2.21-.91c-1.69.78-4,.13-9.62-2.72a1.65,1.65,0,1,0-1.43,3A37.75,37.75,0,0,0,39.13,89Z"/></g></g><g id="Vector-18" data-name="Vector" class="cls-6"><g id="path216_fill-link" data-name="path216 fill-link"><path id="path216_fill" data-name="path216 fill" class="cls-7" d="M31.2,83.82c.13-.13.13-.26.26-.39a2,2,0,0,0,.78,1c.52.26,1.17.52,1.69.78a32.66,32.66,0,0,0,5.59,2.21,1.65,1.65,0,0,0,.78.13c.26,0,.52.13.78.13a6.28,6.28,0,0,0,3.51-.52c.13-.13.39-.26.52-.39a1.11,1.11,0,0,1,0,.91c0,.13-.13.26-.13.39a.28.28,0,0,1-.26.26,1.3,1.3,0,0,1-.65.52c-.26.13-.39.13-.65.26h-.26c-.13.13-.26.13-.52.13a5.63,5.63,0,0,0-.65.13H39.52c-.26,0-.39-.13-.65-.13s-.39-.13-.52-.13S38,89,37.83,89a2.2,2.2,0,0,1-.65-.26c-.26-.13-.39-.13-.65-.26A37.12,37.12,0,0,1,33,86.94a7,7,0,0,0-1.43-.65A2.19,2.19,0,0,1,31.2,83.82Zm33,7.66a1,1,0,0,0,.26.52,6.54,6.54,0,0,0,2.86,2.08,7.33,7.33,0,0,0,1.56.52,28,28,0,0,0,6.25.65h1.56a1.27,1.27,0,0,0,1.17-.52c0,.13.13.26.13.52a1.72,1.72,0,0,1-1.69,1.69H75c-1.17,0-2.34-.13-3.25-.13-.52,0-.91-.13-1.43-.13a6.4,6.4,0,0,1-.66-.13,1.17,1.17,0,0,1-.65-.13c-.26,0-.39-.13-.52-.13s-.26-.13-.52-.13S67.73,96,67.6,96s-.13,0-.26-.13-.39-.13-.52-.13L66,95.38a1,1,0,0,0-.52-.26,1.79,1.79,0,0,1-.52-.39c-.13-.13-.39-.26-.52-.52L64,93.69c-.13-.26-.26-.39-.39-.65v-.39A4.68,4.68,0,0,1,64.22,91.48Z"/></g></g><g id="Vector-19" data-name="Vector" class="cls-6"><g id="path217_fill-link" data-name="path217 fill-link"><path id="path217_fill" data-name="path217 fill" class="cls-7" d="M1,79a1.79,1.79,0,0,0,.39.52,9,9,0,0,1,1.43-6.37c1.95-3.11,4-4,5.85-4.41.26-.13.65-.13.91-.26a2,2,0,0,0,.78-.39C13.25,66.54,22,59,30.29,57.45c.26,0,.65-.13,1-.13,2.21-.26,4.16-.52,5.72-.78.91-.13,1.82-.26,2.47-.39,2.86-.65,4-1.3,4-2.6V53c-.26.13-.39.26-.65.39H41.6a27.28,27.28,0,0,0-5.59.26,34.75,34.75,0,0,0-6.24,1c-.13,0-.26.13-.39.13-3.52.91-5.73,1.43-12.49,6.1-2.34,1.3-4.16,3.51-6.37,5.2a7.43,7.43,0,0,1-.91,1,1,1,0,0,0-1.17-.39.67.67,0,0,0-.39.91C1.94,69.27-2,74.59,1,79Z"/></g></g><g id="Vector-20" data-name="Vector" class="cls-6"><g id="path218_fill-link" data-name="path218 fill-link"><path id="path218_fill" data-name="path218 fill" class="cls-7" d="M103,99.79c.13-.39.39-.78.65-.78,4.16.78-1.69,9.23,3.77,6.37.91-5.46.39-7.79-2-7.66C103.49,97.72,103,98.88,103,99.79Z"/></g><g id="path219_fill-link" data-name="path219 fill-link"><path id="path219_fill" data-name="path219 fill" class="cls-7" d="M75.54,84.73c0,.26-.13.39-.13.52a1.63,1.63,0,0,0,.13.77v.52h.13a1,1,0,0,0,.52-.26,16.41,16.41,0,0,0,3.38-1.81c.13,0,.13-.13.26-.13a.78.78,0,0,1,.52.13,10,10,0,0,1,2,.26c.39.13.78.13,1.3.26,3.12.9,8.32,3.11,10.66,5.71l.13.13c1.17,1.3,3,3,4.29,4.55a.82.82,0,0,0-.13,1.17,1.79,1.79,0,0,0,.52.39h.26c.39,3.89,1,7.14,2.08,7.53.13,0,.13,0,.26.13-.13-1.95.13-6-.39-8.7A2.41,2.41,0,0,0,101,95c-.13-.26-.13-.52-.39-.78C99.33,91.48,94.78,85.5,87.89,82a18.07,18.07,0,0,0-3.64-1.56A24.19,24.19,0,0,0,78,79.14a19,19,0,0,0-1.82,4A2.85,2.85,0,0,0,75.54,84.73Z"/></g></g><g id="Vector-21" data-name="Vector" class="cls-6"><g id="path220_fill-link" data-name="path220 fill-link"><path id="path220_fill" data-name="path220 fill" class="cls-7" d="M37.31,76.93a1.79,1.79,0,0,0,.39.52c-.26.39-.39.78-.65,1.17h.13s.26-.52.52-1.17a.13.13,0,0,1,.13-.13c0-.13.13-.26.26-.52s.39-.65.52-.91a.45.45,0,0,1,.13-.26l.13-.13c.13-.13.13-.26.26-.26l-.26.26a9.79,9.79,0,0,1-1.17,1.17C37.44,76.8,37.44,76.93,37.31,76.93Z"/></g><g id="path221_fill-link" data-name="path221 fill-link"><path id="path221_fill" data-name="path221 fill" class="cls-7" d="M35.75,73.68c.13.26.13.39.26.65.13-.13.39-.13.52-.26s.65-.26.91-.39a6.12,6.12,0,0,1,.65-.26,10,10,0,0,1-1.3.13H36.4a1.41,1.41,0,0,0-.65.13Z"/></g><g id="path222_fill-link" data-name="path222 fill-link"><path id="path222_fill" data-name="path222 fill" class="cls-7" d="M75.15,84.85A12,12,0,0,0,75.54,86c0,.13.13.26.13.39v.13a1,1,0,0,0,.52-.26.13.13,0,0,0-.13-.13c-.26-.26-.39-.65-.65-.78a.13.13,0,0,0-.13-.13C75.41,85,75.28,84.85,75.15,84.85Z"/></g><g id="path223_fill-link" data-name="path223 fill-link"><path id="path223_fill" data-name="path223 fill" class="cls-7" d="M77.75,82.91a6.23,6.23,0,0,1,1.43,1l.13.13.26.26a.13.13,0,0,0,.13.13c.13,0,.13-.13.26-.13a.78.78,0,0,1,.52.13c0-.13-.13-.13-.13-.26l-.13-.13a2.84,2.84,0,0,0-.65-.39A9.27,9.27,0,0,0,77.75,82.91Z"/></g></g></g><g id="Group-2-2" data-name="Group"><g id="Vector-22" data-name="Vector"><g id="path224_fill-link" data-name="path224 fill-link"><path id="path224_fill" data-name="path224 fill" class="cls-4" d="M62.14,60.82C70.86,62.9,77.1,63.29,82,62a1.68,1.68,0,1,0-.91-3.24c-4.29,1.16-10.14.77-18.21-1.17s-13.39-4.42-16.77-7.41a1.66,1.66,0,0,0-2.21,2.47C47.58,56,53.43,58.62,62.14,60.82Z"/></g></g><g id="Vector-23" data-name="Vector"><g id="path225_fill-link" data-name="path225 fill-link"><path id="path225_fill" data-name="path225 fill" class="cls-8" d="M89.84,39.13c-.78,3.25.78,6.36,3.38,7s5.46-1.43,6.37-4.67l2-7.8c.78-3.24-.78-6.36-3.38-7s-5.46,1.43-6.37,4.68Z"/></g><g id="path226_fill-link" data-name="path226 fill-link"><path id="path226_fill" data-name="path226 fill" class="cls-8" d="M38,26.27c-.78,3.25.78,6.36,3.38,7s5.46-1.43,6.37-4.67l1.95-7.8c.78-3.24-.78-6.36-3.38-7s-5.46,1.43-6.37,4.68Z"/></g><g id="path227_fill-link" data-name="path227 fill-link"><path id="path227_fill" data-name="path227 fill" class="cls-3" d="M41.73,24.84c-5.2,21-.26,29.23,20.8,34.42S91.79,59.52,97,38.48C101.8,19,92.18,4.57,77,.94,61.62-3,46.54,5.35,41.73,24.84Z"/></g><g class="cls-6"><g id="path228_fill-link" data-name="path228 fill-link"><path id="path228_fill" data-name="path228 fill" class="cls-7" d="M68.52,0C59.54,3,52,10.94,48.88,23.54c-5.2,21-.26,29.23,20.81,34.42a59.17,59.17,0,0,0,13.78,1.95C78.4,62,71.64,61.6,62.53,59.39,41.47,54.2,36.53,46.14,41.73,25,45.63,9,56.42.55,68.52,0Z"/></g></g><g id="path229_fill-link" data-name="path229 fill-link"><path id="path229_fill" data-name="path229 fill" class="cls-8" d="M63.31,55.88c16.13,3.9,26.27-2.2,30.3-18.31,3.25-13-3.38-21.56-19.37-25.46s-25.88.65-29.13,13.64C41,42.51,46.54,51.86,63.31,55.88Z"/></g><g id="path230_fill-link" data-name="path230 fill-link"><path id="path230_fill" data-name="path230 fill" class="cls-10" d="M63.7,54.33c15.22,3.77,24.45-1.82,28.22-17,3-12.08-3-19.74-18.2-23.51s-24.06.26-27,12.34C42.64,42.25,47.58,50.3,63.7,54.33Z"/></g><g id="path231_fill-2" data-name="path231 fill-2" class="cls-11"><path class="cls-12" d="M80.28,38.77c2,8.69,4.46,9.36,0,15.31,6.8-2.77,10.21-11.21,11.48-16.67,1.78-7.51.76-11.29-3.29-16.21a18.92,18.92,0,0,0-6.74-4.56C84.74,22.16,78.25,30.07,80.28,38.77Z"/></g></g></g></g></g></g></g></g><path id="Path-2-2" class="cls-8" d="M20.52,131.67q-4.23,7.14-5.18,10.78c-.94,3.63-6.59-3.38-7.76.07q-1.19,3.45,8.5,7.67c3.46,3,5.89,3.57,7.29,1.65s4.36-6.55,8.91-13.87q-.63-1.53-5-3.92T20.52,131.67Z"/><path id="Combined-Shape-2" class="cls-13" d="M7.45,143a4.45,4.45,0,0,0,1.88,3.29,21.36,21.36,0,0,0,4.48,2.78c.4.23,2.5,1.31,2.5,1.31a12.83,12.83,0,0,0,4.28,2.46,2.56,2.56,0,0,0,2.88-1.09,33.4,33.4,0,0,0-7.71-3.66A22.58,22.58,0,0,1,7.45,143Z"/><path id="Path-5-2" class="cls-14" d="M54.58,153.07c-.51,4.61,1.79,13.12,8.17,12.47,2.61-.25,3.15-5.38,1.19-9.55q-.72-1.53-1.08-2.22Q54.6,150.8,54.58,153.07Z"/><path id="Path-4-2" class="cls-8" d="M66,142.7q.47.17-3.09,11.07a20,20,0,0,1,1.71,6c0,1.73.07,4.46-1.86,4.86-.93.19-2.51-.26-4.19-1.85A11.42,11.42,0,0,1,55,155.27c-1.2-5.55-2.69-12.45-2.43-12.48a15.28,15.28,0,0,1,6.29-1A32.6,32.6,0,0,1,66,142.7Z"/><g id="Group-2-3" data-name="Group-2"><g id="Group-3"><g class="cls-15"><path id="Fill-1" class="cls-16" d="M53.28,79.23a7.12,7.12,0,1,1,2.74-14,7.06,7.06,0,0,1,3.36,1.66,11.77,11.77,0,0,1,1.38-1.16A8.9,8.9,0,1,0,53,81a9.15,9.15,0,0,0,1.71.16L55,79.35a7.36,7.36,0,0,1-1.74-.12"/></g></g><path id="Fill-4" class="cls-16" d="M55.19,69.6a2.66,2.66,0,0,1,1.69,1.11A10.23,10.23,0,0,1,57.72,69a4.5,4.5,0,0,0-2.22-1.14,4.45,4.45,0,1,0-1.7,8.73,4.53,4.53,0,0,0,1.76,0l.39-2a2.64,2.64,0,0,1-1.8.27,2.7,2.7,0,1,1,1-5.29"/><g id="Group-8"><g class="cls-17"><path id="Fill-5" class="cls-16" d="M53.71,77A4.89,4.89,0,1,1,58,68.64a10,10,0,0,1,1.11-1.4,6.67,6.67,0,1,0-5.7,11.55,6.85,6.85,0,0,0,1.74.11l.36-1.83a5,5,0,0,1-1.76,0"/></g><g class="cls-17"><path id="Fill-7" class="cls-18" d="M68.58,65.9a8.86,8.86,0,0,0-5.83.85,9.83,9.83,0,0,1,.86,1.56,7.12,7.12,0,1,1-2.14,11,9.34,9.34,0,0,1-1.39,1.12,8.9,8.9,0,1,0,8.5-14.48"/></g></g><path id="Fill-9" class="cls-18" d="M68.15,68.08a6.66,6.66,0,0,0-4.37.64,9.68,9.68,0,0,1,.5,1.77,4.83,4.83,0,0,1,3.53-.66,4.89,4.89,0,1,1-1.88,9.6,4.84,4.84,0,0,1-3-1.93,9.82,9.82,0,0,1-1.13,1.44,6.67,6.67,0,1,0,6.37-10.86"/><path id="Fill-10" class="cls-18" d="M66,79a4.45,4.45,0,1,0-1.67-8,9.57,9.57,0,0,1-.1,3.15,2.67,2.67,0,1,1,2.11,3.13,2.68,2.68,0,0,1-2.11-3.13,9.55,9.55,0,0,1-1.09,3A4.44,4.44,0,0,0,66,79"/><path id="Fill-11" class="cls-18" d="M59.1,73.13h0v0a7.12,7.12,0,0,1,3.43-4.8c-.05-.1-.1-.2-.16-.3v0l-.1-.17,0,0a1.4,1.4,0,0,1-.1-.16l0,0L62,67.41l0,0-.12-.17h0c-.14-.2-.28-.39-.43-.57h0a9.63,9.63,0,0,0-4.06,6.15h0L55.75,81a8.64,8.64,0,0,0,1.9-.46l1.45-7.39"/><path id="Fill-12" class="cls-18" d="M61.28,73.56h0v0a4.87,4.87,0,0,1,2-3.07h0c0-.15-.07-.31-.11-.46h0l-.06-.21,0,0a1.09,1.09,0,0,0-.05-.17l0-.06a1,1,0,0,1-.05-.16l0-.06a.44.44,0,0,0-.06-.16l0-.06-.06-.17,0,0-.06-.13a6.65,6.65,0,0,0-3.18,4.48v0h0l-1.39,7.1a8.89,8.89,0,0,0,2.05-1.24l1.08-5.52"/><path id="Fill-13" class="cls-18" d="M63.35,73.61a.78.78,0,0,0,0-.16l0-.09s0-.1,0-.15a.28.28,0,0,0,0-.09c0-.05,0-.1,0-.15v-.09a.76.76,0,0,0,0-.15.28.28,0,0,0,0-.09v-.15a.28.28,0,0,0,0-.09v-.23a1.93,1.93,0,0,0,0-.24v0a1.27,1.27,0,0,0,0-.2v-.07c0-.06,0-.11,0-.17v-.08s0-.1,0-.15v-.08c0-.05,0-.11,0-.16v0a4.43,4.43,0,0,0-1.65,2.66v0h0l-1,4.94a8.7,8.7,0,0,0,2.54-4.66c0-.08,0-.16.05-.24a.25.25,0,0,1,0-.08"/></g></g></g></svg>