<svg xmlns="http://www.w3.org/2000/svg" xmlns:xlink="http://www.w3.org/1999/xlink" viewBox="0 0 348.09 528.89"><defs><style>.cls-1{fill:#fff;}.cls-1,.cls-15,.cls-17{fill-rule:evenodd;}.cls-2{fill:#90a4ae;}.cls-3{fill:#cfd8dc;}.cls-4{fill:#35237e;}.cls-5{opacity:0.2;}.cls-6{fill:#212121;}.cls-7{fill:#78909c;}.cls-8{fill:#e7ebec;stroke:#35237e;stroke-width:2px;}.cls-9{fill:#000014;}.cls-10{opacity:0.43;}.cls-11{fill:#eee;}.cls-12{fill:#141212;}.cls-13{fill:#0f0f0f;}.cls-14{mask:url(#mask);}.cls-15{fill:#6d6ca3;}.cls-16{mask:url(#mask-2-2);}.cls-17{fill:#504e77;}</style><mask id="mask" x="146.57" y="207.46" width="42.74" height="50.15" maskUnits="userSpaceOnUse"><g id="mask-2"><polygon id="path-1" class="cls-1" points="157.03 207.46 189.31 215.47 178.85 257.61 146.57 249.6 157.03 207.46"/></g></mask><mask id="mask-2-2" x="151.77" y="208.75" width="76.86" height="58.61" maskUnits="userSpaceOnUse"><g id="mask-4"><polygon id="path-3" class="cls-1" points="162.22 208.75 228.63 225.23 218.17 267.37 151.77 250.89 162.22 208.75"/></g></mask></defs><title>Mars-Astronuts</title><g id="Layer_2" data-name="Layer 2"><g id="Layer_1-2" data-name="Layer 1"><g id="Page-1"><g id="Group-2"><g id="Group"><g id="Vector"><g id="path185_fill-link" data-name="path185 fill-link"><path id="path185_fill" data-name="path185 fill" class="cls-2" d="M88.24,295.07A10.23,10.23,0,0,0,96,307.33L229,340c5.73,1.23,11.46-2,12.69-7.36l32.74-133.29a10.22,10.22,0,0,0-7.77-12.26l-133-32.71c-5.73-1.23-11.46,2-12.68,7.36Z"/></g></g><g id="Vector-2" data-name="Vector"><g id="Group-2-2" data-name="Group"><g id="path186_fill-link" data-name="path186 fill-link"><path id="path186_fill" data-name="path186 fill" class="cls-3" d="M160.16,339.19v1.63c-.41,10.61-.41,64,4.09,102a16.64,16.64,0,0,1,.41,4.49v.81c.81,4.49,1.22,9,2,13,.41,1.23.41,2,.82,3.27,1.63,6.93,3.27,12.24,5.31,15.5.41.41.41.81.82,1.22q1.83,2.44,3.68,2.45h2.86a3.07,3.07,0,0,0,1.63-.41c.41,0,.82-.41,1.23-.41a16.76,16.76,0,0,0,4.49-2.85c.41-.41,1.23-.82,1.64-1.23l2-2c.82-.82,1.23-1.64,2-2.45,1.23-1.63,2.46-3.67,3.68-5.3a24.17,24.17,0,0,0,1.64-3.27c2.45-4.08,4.49-9,6.94-14.27a5.83,5.83,0,0,0,.82-2.45c.41-.41.41-1.23.82-1.63.41-1.23.82-2,1.22-3.27,13.08-34.26,22.48-81.58,24.12-108.09C232.5,335.11,161,330.63,160.16,339.19Z"/></g></g><g id="Group-3" data-name="Group"><g id="path188_fill-link" data-name="path188 fill-link"><path id="path188_fill" data-name="path188 fill" class="cls-4" d="M162.21,446.46c.41.82.82,1.64,2,1.64h1.23a83.23,83.23,0,0,1,15.12-2.45c3.27-.41,6.54,0,9.81,0a94.6,94.6,0,0,1,15.53,2.45h.4a2.53,2.53,0,0,0,3.27-2,2.78,2.78,0,0,0-1.63-3.27,76,76,0,0,0-16.76-2.85,49.61,49.61,0,0,0-11,0,58.66,58.66,0,0,0-15.53,2.85h-.41C162.62,443.61,161.8,445.24,162.21,446.46Z"/></g></g></g><g id="Vector-3" data-name="Vector" class="cls-5"><g id="path189_fill-link" data-name="path189 fill-link"><path id="path189_fill" data-name="path189 fill" class="cls-6" d="M162.21,446.49c.4.81.81,1.63,2,1.63h.82c.81,4.49,1.22,9,2,13.05.41,1.23.41,2,.82,3.27,1.63,6.93,3.27,12.23,5.31,15.5.41.41.41.81.82,1.22q1.83,2.44,3.68,2.45h2.86a3.09,3.09,0,0,0,1.63-.41c.41,0,.82-.41,1.23-.41a16.76,16.76,0,0,0,4.49-2.85c-2.86-8.57-5.31-20.4-6.95-33.86,0-.81-.4-1.63-.4-2.45a6.88,6.88,0,0,0-.41-2.85,480.29,480.29,0,0,1-.41-97.08c-8.17-.82-13.49-1.23-19.21-2.45-.41,10.61-.41,64,4.09,102h-.41A2.67,2.67,0,0,0,162.21,446.49Z"/></g></g><g id="Vector-4" data-name="Vector"><g id="Group-4" data-name="Group"><g id="path190_fill-link" data-name="path190 fill-link"><path id="path190_fill" data-name="path190 fill" class="cls-3" d="M64.94,408.55c0,1.23-.41,2.45-.41,3.27v2c0,1.22-.4,2.44-.4,3.67a8.92,8.92,0,0,1-.41,3.26c-.41,9.38-.41,17.54,1.22,23.66a5.83,5.83,0,0,0,.82,2.45,25.62,25.62,0,0,1,.82,2.85c.41.82.41,1.23.82,2a5.42,5.42,0,0,0,1.22,1.63l1.23,1.23,1.22,1.22c.41.41.82.82,1.23.82.41.4.82.4,1.23.81a2.59,2.59,0,0,0,2.45,0h.81a16.45,16.45,0,0,0,4.5-2.45c.41-.4.82-.81,1.23-.81,1.22-1.23,2.45-2,4.08-3.67.82-.82,1.64-2,2.86-3.27,2.05-2,4.09-4.89,6.13-7.34a29.81,29.81,0,0,1,3.27-4.08,33.16,33.16,0,0,0,2.86-4.08c0-.4.41-.4.41-.81l2.45-3.67c21.66-31.82,46.18-78.32,51.09-88.11.41-.82.41-1.22.81-1.63,2.46-5.3-25.33-19.58-44.13-29-9.81-4.9-17.57-8.16-17.57-8.16C83.33,325.75,69.44,372.25,64.94,408.55Z"/></g></g><g id="Group-5" data-name="Group"><g id="path192_fill-link" data-name="path192 fill-link"><g id="Group-6" data-name="Group"><path id="path192_fill" data-name="path192 fill" class="cls-4" d="M62.08,410.58a2.4,2.4,0,0,0,2,2.86h.41c3.26.81,6.94,1.63,10.62,2.85,1.64.82,3.68,1.23,5.31,2,7.77,3.67,15.12,8.16,20.44,13.06l.41.4c.4.41.4.41.81.41a2,2,0,0,0,2.45-.81,3,3,0,0,0,0-3.67l-.4-.41a79.71,79.71,0,0,0-21.25-13.87L76.8,411a58.46,58.46,0,0,0-11.45-2.85A3.56,3.56,0,0,0,62.08,410.58Z"/></g></g></g></g><g id="Vector-5" data-name="Vector"><g id="path193_fill-link" data-name="path193 fill-link"><path id="path193_fill" data-name="path193 fill" class="cls-3" d="M92.33,306.14c-.82,2.85,5.72,7.75,15.12,12.64,15.53,8.57,38.82,18,47.4,20.81a15.69,15.69,0,0,0,2.45.81c.82,0,1.64.41,2.46.41,1.22.41,2.86.41,4.9.82a5.16,5.16,0,0,1,2.45.41c3.27.4,6.95.81,10.63,1.22H179c21.25,2,50.27,2.85,51.9-2.86a36.36,36.36,0,0,1,.82-4.48q1.23-5.51,2.45-15.91c.41-1.63.41-3.26.82-5.3v-.41c0-.82.41-1.63.41-2.45,0-1.63.41-3.26.41-5.3a5.16,5.16,0,0,1,.41-2.45v-.41c0-1.63.4-3.26.4-4.89s.41-3.67.41-5.31a195.51,195.51,0,0,0,.41-22v-6.12a25,25,0,0,0-.41-5.3,156.5,156.5,0,0,0-3.67-27.74,33.86,33.86,0,0,0-1.64-6.12c-4.49-17.13-12.67-31.41-26.15-38.75a34.81,34.81,0,0,0-9.81-3.67,40.2,40.2,0,0,0-9.81-1.23c-15.94,0-29.83,9.39-42.5,22.85a1.43,1.43,0,0,0-.41.81,71.37,71.37,0,0,0-9.81,12.24,160.7,160.7,0,0,0-9,13.87,22.6,22.6,0,0,1-2,3.26c0,.41-.41.41-.41.82a1.43,1.43,0,0,0-.41.81,1.43,1.43,0,0,1-.41.82,44.32,44.32,0,0,0-2.45,4.49.39.39,0,0,1-.41.4c-.82,1.23-1.22,2.45-2,3.68-2.86,5.3-5.31,10.6-7.36,15.5a24.79,24.79,0,0,0-2,4.89c-.82,1.63-1.23,2.86-2,4.49v.41c0,.4-.41.81-.41,1.22-1.23,2.85-2.05,5.3-3.27,8.16v.41a30.92,30.92,0,0,0-1.64,4.48,101.86,101.86,0,0,0-4.9,14.69C93.14,303.69,92.73,305.32,92.33,306.14Z"/></g></g><g id="Vector-6" data-name="Vector"><g id="path194_fill-link" data-name="path194 fill-link"><path id="path194_fill" data-name="path194 fill" class="cls-4" d="M163.43,317.58c7.36,1.63,59.26,7.34,72.74,2a2.47,2.47,0,1,0-2-4.49c-11.44,4.49-61.3,0-69.47-2s-54.36-20.8-62.53-30.18A2.62,2.62,0,0,0,98,286.17C107.44,296.78,156.07,316,163.43,317.58Z"/></g></g><g id="Vector-7" data-name="Vector"><g id="path195_fill-link" data-name="path195 fill-link"><path id="path195_fill" data-name="path195 fill" class="cls-3" d="M89.46,224.57l183.9,45.27a94.35,94.35,0,0,0-63.75-112.58,27,27,0,0,0-5.31-1.63,94.49,94.49,0,0,0-73.15,11.83,122,122,0,0,0-14.31,11,54.75,54.75,0,0,0-8.17,8.57A97.6,97.6,0,0,0,94,211.11,103.48,103.48,0,0,0,89.46,224.57Z"/></g></g><g id="Vector-8" data-name="Vector"><g id="path196_fill-link" data-name="path196 fill-link"><path id="path196_fill" data-name="path196 fill" class="cls-3" d="M108.67,212.33a55.23,55.23,0,0,0,3.27,17.54c0,.41.41.82.41,1.23v.41c.41.81.41,1.22.82,2a81,81,0,0,0,4.08,8.56,5.59,5.59,0,0,0,1.23,1.63c.82,1.63,2,3.27,2.86,4.9l107.07,26.51c3.27-.81,6.13-2,9-2.85h.41a3.08,3.08,0,0,0,1.63-.82,51.47,51.47,0,0,0,10.63-5.71c.41,0,.41-.41.82-.41s.4-.41.81-.41a53.94,53.94,0,0,0,11.85-11.83c5.73-9,7.36-19.17,5.32-29.77-.41-1.23-.41-2.86-.82-4.08a69,69,0,0,0-9-20.4c-11.85-18.76-31.47-35.48-51.08-41.6-1.23-.41-2.46-.82-4.09-1.23a14.84,14.84,0,0,0-4.09-.81c-20.84-3.67-44.54.81-62.93,11.83-.82.4-1.23.81-2.05,1.22a70,70,0,0,0-10.62,8.57c-2,2-4.09,4.48-6.13,6.93-.41.41-.82.82-.82,1.22A41.33,41.33,0,0,0,108.67,212.33Z"/></g></g><g id="Vector-9" data-name="Vector"><g id="Group-7" data-name="Group"><g id="path197_fill-link" data-name="path197 fill-link"><path id="path197_fill" data-name="path197 fill" class="cls-3" d="M27.75,211.53,30.21,216l8.17,15.09,2.45,4.48,2.45-1.22c5.73-2.45,13.49-4.49,18.39-6.53,10.22-3.67,28.2-2.44,38-.4a22.91,22.91,0,0,1,5.72,1.63c2.45.81,4.5,1.63,6.54,2.45a57.06,57.06,0,0,1,9.81,6.11c2.86,2.45,4.9,4.9,5.72,7.35,1.63,3.67,3.27,5.3,5.72,6.12a14.12,14.12,0,0,1,3.68,1.63,38.73,38.73,0,0,1,13.48,8.56l3.68-4.48,10.63-13.46,37.19-48.14a87.85,87.85,0,0,0-15.94-11.42,115.86,115.86,0,0,0-49.45-15.91,3.72,3.72,0,0,1-2-.4h-4.09a86.14,86.14,0,0,0-17.57.81,109.78,109.78,0,0,0-19.62,3.26c-.41,0-.82.41-1.22.41-11,2.86-18,4.49-39.24,19.17-7.35,4.08-13.07,11-20,16.32a23.17,23.17,0,0,1-2.86,3.26A6.93,6.93,0,0,0,27.75,211.53Z"/></g></g><g id="Group-8" data-name="Group"><g id="path198_fill-link" data-name="path198 fill-link"><g id="Group-9" data-name="Group"><path id="path198_fill" data-name="path198 fill" class="cls-3" d="M3.23,248.24a5.59,5.59,0,0,0,1.23,1.63c9.81,12.65,7-17.13,18.8-13.46,4.49,4.08-9.4,16.72-2,18.36h1.22c3.27.4,9.81-7.75,16.76-18a8.88,8.88,0,0,1,1.22-2L38,230.29,29.8,215.2l-2.45-4.49c-.82.41-1.64.41-2.46.82C6.1,217.65-6.16,234.37,3.23,248.24Z"/></g></g><g id="path199_fill-link" data-name="path199 fill-link"><g id="Group-10" data-name="Group"><g id="path199_fill" data-name="path199 fill"><path class="cls-4" d="M25.3,211.93c0,.41,0,.41.41.82l2,3.67,9,16.31,2,3.68c.41.4.41.81.82.81s.4.41.81.41a3.7,3.7,0,0,0,2-.41A2.73,2.73,0,0,0,43.69,234l-2.45-4.9-7.76-14.27L31,210.3a3.29,3.29,0,0,0-3.67-1.22C25.71,209.48,24.89,210.71,25.3,211.93Z"/></g></g></g></g><g id="Group-11" data-name="Group"><g id="path200_fill-link" data-name="path200 fill-link"><path id="path200_fill" data-name="path200 fill" class="cls-4" d="M92.32,171.55l2.87,9,2.86,9.79,18.79-6.12,1.23-.41-.41-.82-1.63-5.3-2.86-9.38a109.78,109.78,0,0,0-19.62,3.26Z"/></g></g></g><g id="Vector-10" data-name="Vector"><g id="Group-12" data-name="Group"><g id="path201_fill-link" data-name="path201 fill-link"><path id="path201_fill" data-name="path201 fill" class="cls-3" d="M187.14,191.52l3.26,18.77,7.36,41.2L201,268.21l.82,5.71a20.2,20.2,0,0,1,6.54-1.22,57.64,57.64,0,0,1,7.76-.41h2c4.5.41,7.36,1.22,11.86-2.45a19.38,19.38,0,0,1,6.53-3.26c.41,0,.41,0,.82-.41A40.35,40.35,0,0,1,250.07,265h.82a2.49,2.49,0,0,1,1.63.4,31.35,31.35,0,0,1,6.13.82c1.23.41,2.45.41,4.09.82,9.81,2.85,26.15,9.79,33.51,17.94l.41.41c3.68,4.08,9.4,9.38,13.48,14.28.41.81,1.23,1.22,1.64,2l5.31-3.67,16.76-11.42a4.11,4.11,0,0,1-1.64-2c-.82-1.23-.82-2.86-1.22-4.08-3.68-8.16-5.73-16.73-10.22-23.66-11.85-23.25-17.16-27.74-25.75-35.49-.41-.41-.81-.41-1.22-.81a104.26,104.26,0,0,0-15.53-11.83,110.74,110.74,0,0,0-15.12-8.57c-1.23-.82-2.86-1.22-4.09-2a113.72,113.72,0,0,0-53.13-9.38,44,44,0,0,0-10.21,1.22A64.77,64.77,0,0,0,187.14,191.52Z"/></g></g><g id="Group-13" data-name="Group"><g id="path202_fill-link" data-name="path202 fill-link"><g id="Group-14" data-name="Group"><path id="path202_fill" data-name="path202 fill" class="cls-3" d="M311.37,301.67a5.16,5.16,0,0,0,.41,2.45c1.22,12.24,3.27,22.43,6.54,23.66.41,0,.41,0,.81.41,6.54,2,3.27-9.39,4.91-14.69.41-1.22,1.22-2.45,2-2.45,13.08,2.45-5.31,29,11.85,20a.4.4,0,0,0,.41-.41c14.71-7.75,11.85-28.14-2.45-42.42-.82-.41-1.23-1.22-2-1.63l-17.17,11.83Z"/></g></g><g id="path203_fill-link" data-name="path203 fill-link"><g id="Group-15" data-name="Group"><path id="path203_fill" data-name="path203 fill" class="cls-4" d="M309.33,303.29a5.63,5.63,0,0,0,1.63,1.22h.82a1.48,1.48,0,0,0,1.22-.41l4.5-2.85,18-12.24.41-.41c.82-.81.82-2,0-3.26a2.68,2.68,0,0,0-3.68-.82l-16.75,11.42-5.73,3.68A3,3,0,0,0,309.33,303.29Z"/></g></g></g><g id="Group-16" data-name="Group"><g id="path204_fill-link" data-name="path204 fill-link"><path id="path204_fill" data-name="path204 fill" class="cls-4" d="M266.42,220.09l14.71,14.69L295,221.32c-.41-.41-.81-.41-1.22-.82a104.26,104.26,0,0,0-15.53-11.83Z"/></g></g></g><g id="Vector-11" data-name="Vector"><g id="path209_fill-link" data-name="path209 fill-link"><path id="path209_fill" data-name="path209 fill" class="cls-6" d="M203.62,298.52a7.75,7.75,0,1,1,9.39-5.67A7.75,7.75,0,0,1,203.62,298.52Z"/></g></g><g id="Vector-12" data-name="Vector"><g id="path211_fill-link" data-name="path211 fill-link"><path id="path211_fill" data-name="path211 fill" class="cls-6" d="M135.47,281.47a7.75,7.75,0,1,1,9.4-5.67A7.77,7.77,0,0,1,135.47,281.47Z"/></g></g><g id="Vector-13" data-name="Vector" class="cls-5"><g id="path212_fill-link" data-name="path212 fill-link"><path id="path212_fill" data-name="path212 fill" class="cls-6" d="M199,304.52a22.79,22.79,0,0,0,13.89,8.16,107.1,107.1,0,0,0,22.07,2c.41-3.26.82-6.93,1.23-10.61-18.39-.4-25.34-2-29-6.52a4.87,4.87,0,0,0-7.36-.82A6.16,6.16,0,0,0,199,304.52Z"/></g></g><g id="Vector-14" data-name="Vector"><g id="path213_fill-link" data-name="path213 fill-link"><path id="path213_fill" data-name="path213 fill" class="cls-7" d="M215.74,302.47c6.13,1.64,14.3,2,24.52,2a5.3,5.3,0,1,0,0-10.6c-19.62-.41-27-2-30.65-6.53a5.23,5.23,0,0,0-8.17,6.53C205.12,298.4,209.2,300.84,215.74,302.47Z"/></g></g><g id="Vector-15" data-name="Vector" class="cls-5"><g id="path214_fill-link" data-name="path214 fill-link"><path id="path214_fill" data-name="path214 fill" class="cls-6" d="M100.9,282.08a83.61,83.61,0,0,0,19.62,7.75,24.68,24.68,0,0,0,16.35-.81,5.38,5.38,0,0,0,2.45-6.94c-1.23-2.85-4.09-3.67-6.95-2.85-5.31,2.44-11.85.4-27.79-7.35C103.36,275.55,102.13,278.82,100.9,282.08Z"/></g></g><g id="Vector-16" data-name="Vector"><g id="path215_fill-link" data-name="path215 fill-link"><path id="path215_fill" data-name="path215 fill" class="cls-7" d="M123,279.64a24.65,24.65,0,0,0,16.34-.81,5.25,5.25,0,0,0,2.45-6.94,5.82,5.82,0,0,0-6.94-2.85c-5.32,2.44-12.67.4-30.24-8.57a5.2,5.2,0,1,0-4.5,9.38C109.49,274.75,116.85,278,123,279.64Z"/></g></g><g id="Vector-17" data-name="Vector" class="cls-5"><g id="path217_fill-link" data-name="path217 fill-link"><path id="path217_fill" data-name="path217 fill" class="cls-6" d="M3.23,248.24a5.74,5.74,0,0,0,1.23,1.63c-.82-5.71-.41-11.83,4.5-20,6.13-9.79,12.66-12.64,18.39-13.87.81-.41,2-.41,2.86-.81A6.39,6.39,0,0,0,32.66,214c9-4.89,36.37-28.55,62.52-33.45.82,0,2-.4,3.27-.4,7-.82,13.08-1.64,18-2.45,2.87-.41,5.73-.82,7.77-1.22,9-2,12.67-4.08,12.67-8.16v-1.63c-.82.4-1.23.81-2.05,1.22h-4.08a85.45,85.45,0,0,0-17.57.82A108.89,108.89,0,0,0,93.55,172c-.41,0-.82.41-1.23.41-11,2.85-18,4.48-39.23,19.17-7.35,4.08-13.08,11-20,16.31a24,24,0,0,1-2.86,3.27,3.31,3.31,0,0,0-3.68-1.23,2.11,2.11,0,0,0-1.23,2.86C6.09,217.64-6.17,234.37,3.23,248.24Z"/></g></g><g id="Vector-18" data-name="Vector" class="cls-5"><g id="Group-17" data-name="Group"><g id="path218_fill-link" data-name="path218 fill-link"><path id="path218_fill" data-name="path218 fill" class="cls-6" d="M323.63,313.5c.41-1.22,1.23-2.45,2-2.45,13.08,2.45-5.31,29,11.86,20,2.86-17.13,1.22-24.47-6.13-24.06C325.27,307,323.63,310.65,323.63,313.5Z"/></g></g><g id="Group-18" data-name="Group"><g id="path219_fill-link" data-name="path219 fill-link"><path id="path219_fill" data-name="path219 fill" class="cls-6" d="M237.4,266.19c0,.81-.41,1.22-.41,1.63a5.12,5.12,0,0,0,.41,2.44v1.64h.41a3,3,0,0,0,1.63-.82,51.47,51.47,0,0,0,10.63-5.71c.41,0,.41-.41.82-.41a2.44,2.44,0,0,1,1.63.41,31.35,31.35,0,0,1,6.13.82c1.23.4,2.45.4,4.09.81,9.81,2.86,26.15,9.79,33.51,17.95l.41.41c3.68,4.08,9.4,9.38,13.48,14.27a2.58,2.58,0,0,0-.4,3.67,5.46,5.46,0,0,0,1.63,1.23h.82c1.22,12.24,3.27,22.43,6.54,23.66.4,0,.4,0,.81.41-.41-6.12.41-18.77-1.22-27.33a7.55,7.55,0,0,0-.82-2.86c-.41-.82-.41-1.63-1.23-2.45-4.08-8.56-18.39-27.33-40-38.34a56.91,56.91,0,0,0-11.44-4.9,76,76,0,0,0-19.61-4.07c-2.46,4.48-4.09,7.34-5.73,12.64C238.22,262.51,237.81,264.15,237.4,266.19Z"/></g></g></g><g id="Vector-19" data-name="Vector" class="cls-5"><g id="Group-19" data-name="Group"><g id="path220_fill-link" data-name="path220 fill-link"><path id="path220_fill" data-name="path220 fill" class="cls-6" d="M117.25,241.7a5.46,5.46,0,0,0,1.23,1.63c-.82,1.23-1.23,2.45-2,3.67h.41s.82-1.63,1.64-3.67a.39.39,0,0,1,.41-.4c0-.41.41-.82.81-1.64s1.23-2,1.64-2.85a1.43,1.43,0,0,1,.41-.82l.41-.41c.4-.4.4-.81.81-.81l-.81.81a31.48,31.48,0,0,1-3.68,3.68C117.66,241.29,117.66,241.7,117.25,241.7Z"/></g></g><g id="Group-20" data-name="Group"><g id="path221_fill-link" data-name="path221 fill-link"><path id="path221_fill" data-name="path221 fill" class="cls-6" d="M112.35,231.5c.41.82.41,1.22.82,2,.4-.41,1.22-.41,1.63-.82.82-.4,2-.81,2.86-1.22a19.52,19.52,0,0,1,2-.82,31.17,31.17,0,0,1-4.08.41h-1.23a4.42,4.42,0,0,0-2,.41Z"/></g></g><g id="Group-21" data-name="Group"><g id="path222_fill-link" data-name="path222 fill-link"><path id="path222_fill" data-name="path222 fill" class="cls-6" d="M236.18,266.58a34.56,34.56,0,0,0,1.22,3.67c0,.41.41.81.41,1.22v.41a3,3,0,0,0,1.63-.82.39.39,0,0,0-.4-.4c-.82-.82-1.23-2-2-2.45a.4.4,0,0,0-.41-.41C237,267,236.58,266.58,236.18,266.58Z"/></g></g><g id="Group-22" data-name="Group"><g id="path223_fill-link" data-name="path223 fill-link"><path id="path223_fill" data-name="path223 fill" class="cls-6" d="M244.35,260.48a19.67,19.67,0,0,1,4.49,3.27l.41.41.82.81a.4.4,0,0,0,.41.41c.41,0,.41-.41.82-.41a2.45,2.45,0,0,1,1.63.41c0-.41-.41-.41-.41-.82l-.41-.4a8.87,8.87,0,0,0-2-1.23A29.38,29.38,0,0,0,244.35,260.48Z"/></g></g></g><g id="path216_fill-link" data-name="path216 fill-link"><path id="path216_fill" data-name="path216 fill" class="cls-6" d="M98,263.34c.41-.41.41-.81.82-1.22a6.4,6.4,0,0,0,2.45,3.26c1.64.82,3.68,1.63,5.32,2.45,6.94,3.26,12.67,5.71,17.57,6.93a5.16,5.16,0,0,0,2.45.41c.82,0,1.64.41,2.45.41a19.8,19.8,0,0,0,11-1.63c.41-.41,1.22-.82,1.63-1.23a3.48,3.48,0,0,1,0,2.86c0,.41-.41.81-.41,1.22a.88.88,0,0,1-.81.82,4.13,4.13,0,0,1-2.05,1.63c-.81.41-1.22.41-2,.82h-.82c-.41.4-.82.4-1.63.4a17.76,17.76,0,0,0-2,.41H124.2c-.82,0-1.23-.41-2-.41-.41,0-1.23-.4-1.64-.4s-1.22-.41-1.63-.41a6.93,6.93,0,0,1-2-.82c-.81-.41-1.22-.41-2-.81a117.59,117.59,0,0,1-11-4.9,21.85,21.85,0,0,0-4.5-2C97.64,269.05,96.41,265.79,98,263.34Zm103.81,24.07a3.06,3.06,0,0,0,.81,1.63,20.73,20.73,0,0,0,9,6.53,23.56,23.56,0,0,0,4.91,1.63,87.92,87.92,0,0,0,19.61,2h4.91a4,4,0,0,0,3.68-1.64c0,.41.4.82.4,1.64a5.4,5.4,0,0,1-5.31,5.3h-4.08c-3.68,0-7.36-.41-10.22-.41-1.64,0-2.86-.41-4.5-.41a18.36,18.36,0,0,1-2-.4,3.65,3.65,0,0,1-2-.41c-.82,0-1.23-.41-1.64-.41s-.82-.41-1.63-.41c-.41,0-.82-.41-1.23-.41s-.41,0-.82-.4c-.4,0-1.22-.41-1.63-.41l-2.45-1.23a3.16,3.16,0,0,0-1.64-.81,5.74,5.74,0,0,1-1.63-1.23c-.41-.4-1.23-.81-1.64-1.63L201,294.34c-.41-.81-.82-1.22-1.23-2v-1.22C200.62,289.45,201,288.22,201.85,287.41Z"/></g><circle id="Oval" class="cls-8" cx="186.4" cy="240.81" r="23"/><g id="Vector-20" data-name="Vector"><g id="Group-23" data-name="Group"><g id="path224_fill-link" data-name="path224 fill-link"><path id="path224_fill" data-name="path224 fill" d="M195.77,190.89c27.34,6.53,46.93,7.75,62.44,3.67a5.29,5.29,0,1,0-2.86-10.19c-13.46,3.67-31.83,2.45-57.13-3.67s-42-13.86-52.65-23.24a5.2,5.2,0,0,0-6.93,7.75C150.06,175.81,168.43,184,195.77,190.89Z"/></g></g><g id="Group-24" data-name="Group"><g id="path227_fill-link" data-name="path227 fill-link"><path id="path227_fill" data-name="path227 fill" class="cls-3" d="M131.7,78C115.37,144,130.88,169.68,197,186s91.82.81,108.15-65.23C320.24,59.61,290,14.36,242.29,2.94,194.14-9.29,146.8,16.8,131.7,78Z"/></g><g id="path228_fill-link" data-name="path228 fill-link" class="cls-5"><path id="path228_fill" data-name="path228 fill" class="cls-6" d="M215.77.09c-28.16,9.38-51.83,34.25-61.63,73.79-16.32,66.05-.81,91.73,65.3,108,16.73,4.08,31,6.11,43.26,6.11-15.92,6.53-37.14,5.3-65.71-1.63-66.11-16.3-81.61-41.58-65.29-108C143.94,28.22,177.81,1.72,215.77.09Z"/></g><g id="path229_fill-link" data-name="path229 fill-link"><path id="path229_fill" data-name="path229 fill" class="cls-4" d="M199.44,175.39c50.6,12.23,82.44-6.93,95.09-57.48,10.2-40.77-10.61-67.68-60.81-79.91-50.6-12.23-81.21,2-91.41,42.81C129.25,133.4,146.8,162.75,199.44,175.39Z"/></g><g id="path230_fill-link" data-name="path230 fill-link"><path id="path230_fill" data-name="path230 fill" class="cls-9" d="M200.67,170.51c47.74,11.83,76.72-5.7,88.55-53.4,9.39-37.92-9.38-62-57.13-73.79s-75.5.81-84.89,38.73C134.55,132.6,150.06,157.87,200.67,170.51Z"/></g><g id="path231_fill" data-name="path231 fill" class="cls-10"><path class="cls-11" d="M253.66,121.31c6.31,26.94,13.81,29,0,47.44,21.06-8.57,31.62-34.73,35.56-51.64,5.52-23.27,2.35-35-10.19-50.25-6.46-5.83-8.77-8.8-20.87-14.11C267.47,69.85,247.35,94.36,253.66,121.31Z"/></g></g></g></g><path id="Path-2" class="cls-4" d="M65.35,408.14Q51,432.31,47.8,444.64c-3.17,12.32-22.32-11.45-26.3.24q-4,11.7,28.79,26Q67.9,486.25,75,476.46t30.18-47q-2.11-5.18-17-13.27T65.35,408.14Z"/><path id="Combined-Shape" class="cls-12" d="M21.06,446.66q0,5.67,6.36,11.14c6.36,5.47,13.87,8.62,15.21,9.41s8.44,4.44,8.44,4.44,8.14,7,14.51,8.33q6.38,1.35,9.77-3.69-10.47-7-26.14-12.4A76.73,76.73,0,0,1,21.06,446.66Z"/><path id="Path-5" class="cls-13" d="M165.41,479.15c-2,18.32,7.12,52.18,32.51,49.6,10.35-1,12.51-21.39,4.72-38q-2.85-6.08-4.28-8.81Q165.49,470.12,165.41,479.15Z"/><path id="Path-4" class="cls-4" d="M210.68,437.92q1.86.66-12.29,44,6.81,17.2,6.8,24c0,6.86.27,17.72-7.38,19.3-3.73.77-10-1-16.67-7.35-6.38-6-12.91-15.29-14.25-29.95q-2.76-30.12-3.78-28.79l-1-13.42q2.76-7.83,18.5-7.83C191.22,437.58,208.83,437.28,210.68,437.92Z"/></g><g id="Group-2-Copy"><g id="Group-25" data-name="Group"><g id="Vector-21" data-name="Vector"><g id="path185_fill-link-2" data-name="path185 fill-link"><path id="path185_fill-2" data-name="path185 fill" class="cls-2" d="M88.24,295.07A10.23,10.23,0,0,0,96,307.33L229,340c5.73,1.23,11.46-2,12.69-7.36l32.74-133.29a10.22,10.22,0,0,0-7.77-12.26l-133-32.71c-5.73-1.23-11.46,2-12.68,7.36Z"/></g></g><g id="Vector-22" data-name="Vector"><g id="Group-26" data-name="Group"><g id="path186_fill-link-2" data-name="path186 fill-link"><path id="path186_fill-2" data-name="path186 fill" class="cls-3" d="M160.16,339.19v1.63c-.41,10.61-.41,64,4.09,102a16.64,16.64,0,0,1,.41,4.49v.81c.81,4.49,1.22,9,2,13,.41,1.23.41,2,.82,3.27,1.63,6.93,3.27,12.24,5.31,15.5.41.41.41.81.82,1.22q1.83,2.44,3.68,2.45h2.86a3.07,3.07,0,0,0,1.63-.41c.41,0,.82-.41,1.23-.41a16.76,16.76,0,0,0,4.49-2.85c.41-.41,1.23-.82,1.64-1.23l2-2c.82-.82,1.23-1.64,2-2.45,1.23-1.63,2.46-3.67,3.68-5.3a24.17,24.17,0,0,0,1.64-3.27c2.45-4.08,4.49-9,6.94-14.27a5.83,5.83,0,0,0,.82-2.45c.41-.41.41-1.23.82-1.63.41-1.23.82-2,1.22-3.27,13.08-34.26,22.48-81.58,24.12-108.09C232.5,335.11,161,330.63,160.16,339.19Z"/></g></g><g id="Group-27" data-name="Group"><g id="path188_fill-link-2" data-name="path188 fill-link"><path id="path188_fill-2" data-name="path188 fill" class="cls-4" d="M162.21,446.46c.41.82.82,1.64,2,1.64h1.23a83.23,83.23,0,0,1,15.12-2.45c3.27-.41,6.54,0,9.81,0a94.6,94.6,0,0,1,15.53,2.45h.4a2.53,2.53,0,0,0,3.27-2,2.78,2.78,0,0,0-1.63-3.27,76,76,0,0,0-16.76-2.85,49.61,49.61,0,0,0-11,0,58.66,58.66,0,0,0-15.53,2.85h-.41C162.62,443.61,161.8,445.24,162.21,446.46Z"/></g></g></g><g id="Vector-23" data-name="Vector" class="cls-5"><g id="path189_fill-link-2" data-name="path189 fill-link"><path id="path189_fill-2" data-name="path189 fill" class="cls-6" d="M162.21,446.49c.4.81.81,1.63,2,1.63h.82c.81,4.49,1.22,9,2,13.05.41,1.23.41,2,.82,3.27,1.63,6.93,3.27,12.23,5.31,15.5.41.41.41.81.82,1.22q1.83,2.44,3.68,2.45h2.86a3.09,3.09,0,0,0,1.63-.41c.41,0,.82-.41,1.23-.41a16.76,16.76,0,0,0,4.49-2.85c-2.86-8.57-5.31-20.4-6.95-33.86,0-.81-.4-1.63-.4-2.45a6.88,6.88,0,0,0-.41-2.85,480.29,480.29,0,0,1-.41-97.08c-8.17-.82-13.49-1.23-19.21-2.45-.41,10.61-.41,64,4.09,102h-.41A2.67,2.67,0,0,0,162.21,446.49Z"/></g></g><g id="Vector-24" data-name="Vector"><g id="Group-28" data-name="Group"><g id="path190_fill-link-2" data-name="path190 fill-link"><path id="path190_fill-2" data-name="path190 fill" class="cls-3" d="M64.94,408.55c0,1.23-.41,2.45-.41,3.27v2c0,1.22-.4,2.44-.4,3.67a8.92,8.92,0,0,1-.41,3.26c-.41,9.38-.41,17.54,1.22,23.66a5.83,5.83,0,0,0,.82,2.45,25.62,25.62,0,0,1,.82,2.85c.41.82.41,1.23.82,2a5.42,5.42,0,0,0,1.22,1.63l1.23,1.23,1.22,1.22c.41.41.82.82,1.23.82.41.4.82.4,1.23.81a2.59,2.59,0,0,0,2.45,0h.81a16.45,16.45,0,0,0,4.5-2.45c.41-.4.82-.81,1.23-.81,1.22-1.23,2.45-2,4.08-3.67.82-.82,1.64-2,2.86-3.27,2.05-2,4.09-4.89,6.13-7.34a29.81,29.81,0,0,1,3.27-4.08,33.16,33.16,0,0,0,2.86-4.08c0-.4.41-.4.41-.81l2.45-3.67c21.66-31.82,46.18-78.32,51.09-88.11.41-.82.41-1.22.81-1.63,2.46-5.3-25.33-19.58-44.13-29-9.81-4.9-17.57-8.16-17.57-8.16C83.33,325.75,69.44,372.25,64.94,408.55Z"/></g></g><g id="Group-29" data-name="Group"><g id="path192_fill-link-2" data-name="path192 fill-link"><g id="Group-30" data-name="Group"><path id="path192_fill-2" data-name="path192 fill" class="cls-4" d="M62.08,410.58a2.4,2.4,0,0,0,2,2.86h.41c3.26.81,6.94,1.63,10.62,2.85,1.64.82,3.68,1.23,5.31,2,7.77,3.67,15.12,8.16,20.44,13.06l.41.4c.4.41.4.41.81.41a2,2,0,0,0,2.45-.81,3,3,0,0,0,0-3.67l-.4-.41a79.71,79.71,0,0,0-21.25-13.87L76.8,411a58.46,58.46,0,0,0-11.45-2.85A3.56,3.56,0,0,0,62.08,410.58Z"/></g></g></g></g><g id="Vector-25" data-name="Vector"><g id="path193_fill-link-2" data-name="path193 fill-link"><path id="path193_fill-2" data-name="path193 fill" class="cls-3" d="M92.33,306.14c-.82,2.85,5.72,7.75,15.12,12.64,15.53,8.57,38.82,18,47.4,20.81a15.69,15.69,0,0,0,2.45.81c.82,0,1.64.41,2.46.41,1.22.41,2.86.41,4.9.82a5.16,5.16,0,0,1,2.45.41c3.27.4,6.95.81,10.63,1.22H179c21.25,2,50.27,2.85,51.9-2.86a36.36,36.36,0,0,1,.82-4.48q1.23-5.51,2.45-15.91c.41-1.63.41-3.26.82-5.3v-.41c0-.82.41-1.63.41-2.45,0-1.63.41-3.26.41-5.3a5.16,5.16,0,0,1,.41-2.45v-.41c0-1.63.4-3.26.4-4.89s.41-3.67.41-5.31a195.51,195.51,0,0,0,.41-22v-6.12a25,25,0,0,0-.41-5.3,156.5,156.5,0,0,0-3.67-27.74,33.86,33.86,0,0,0-1.64-6.12c-4.49-17.13-12.67-31.41-26.15-38.75a34.81,34.81,0,0,0-9.81-3.67,40.2,40.2,0,0,0-9.81-1.23c-15.94,0-29.83,9.39-42.5,22.85a1.43,1.43,0,0,0-.41.81,71.37,71.37,0,0,0-9.81,12.24,160.7,160.7,0,0,0-9,13.87,22.6,22.6,0,0,1-2,3.26c0,.41-.41.41-.41.82a1.43,1.43,0,0,0-.41.81,1.43,1.43,0,0,1-.41.82,44.32,44.32,0,0,0-2.45,4.49.39.39,0,0,1-.41.4c-.82,1.23-1.22,2.45-2,3.68-2.86,5.3-5.31,10.6-7.36,15.5a24.79,24.79,0,0,0-2,4.89c-.82,1.63-1.23,2.86-2,4.49v.41c0,.4-.41.81-.41,1.22-1.23,2.85-2.05,5.3-3.27,8.16v.41a30.92,30.92,0,0,0-1.64,4.48,101.86,101.86,0,0,0-4.9,14.69C93.14,303.69,92.73,305.32,92.33,306.14Z"/></g></g><g id="Vector-26" data-name="Vector"><g id="path194_fill-link-2" data-name="path194 fill-link"><path id="path194_fill-2" data-name="path194 fill" class="cls-4" d="M163.43,317.58c7.36,1.63,59.26,7.34,72.74,2a2.47,2.47,0,1,0-2-4.49c-11.44,4.49-61.3,0-69.47-2s-54.36-20.8-62.53-30.18A2.62,2.62,0,0,0,98,286.17C107.44,296.78,156.07,316,163.43,317.58Z"/></g></g><g id="Vector-27" data-name="Vector"><g id="path195_fill-link-2" data-name="path195 fill-link"><path id="path195_fill-2" data-name="path195 fill" class="cls-3" d="M89.46,224.57l183.9,45.27a94.35,94.35,0,0,0-63.75-112.58,27,27,0,0,0-5.31-1.63,94.49,94.49,0,0,0-73.15,11.83,122,122,0,0,0-14.31,11,54.75,54.75,0,0,0-8.17,8.57A97.6,97.6,0,0,0,94,211.11,103.48,103.48,0,0,0,89.46,224.57Z"/></g></g><g id="Vector-28" data-name="Vector"><g id="path196_fill-link-2" data-name="path196 fill-link"><path id="path196_fill-2" data-name="path196 fill" class="cls-3" d="M108.67,212.33a55.23,55.23,0,0,0,3.27,17.54c0,.41.41.82.41,1.23v.41c.41.81.41,1.22.82,2a81,81,0,0,0,4.08,8.56,5.59,5.59,0,0,0,1.23,1.63c.82,1.63,2,3.27,2.86,4.9l107.07,26.51c3.27-.81,6.13-2,9-2.85h.41a3.08,3.08,0,0,0,1.63-.82,51.47,51.47,0,0,0,10.63-5.71c.41,0,.41-.41.82-.41s.4-.41.81-.41a53.94,53.94,0,0,0,11.85-11.83c5.73-9,7.36-19.17,5.32-29.77-.41-1.23-.41-2.86-.82-4.08a69,69,0,0,0-9-20.4c-11.85-18.76-31.47-35.48-51.08-41.6-1.23-.41-2.46-.82-4.09-1.23a14.84,14.84,0,0,0-4.09-.81c-20.84-3.67-44.54.81-62.93,11.83-.82.4-1.23.81-2.05,1.22a70,70,0,0,0-10.62,8.57c-2,2-4.09,4.48-6.13,6.93-.41.41-.82.82-.82,1.22A41.33,41.33,0,0,0,108.67,212.33Z"/></g></g><g id="Vector-29" data-name="Vector"><g id="Group-31" data-name="Group"><g id="path197_fill-link-2" data-name="path197 fill-link"><path id="path197_fill-2" data-name="path197 fill" class="cls-3" d="M27.75,211.53,30.21,216l8.17,15.09,2.45,4.48,2.45-1.22c5.73-2.45,13.49-4.49,18.39-6.53,10.22-3.67,28.2-2.44,38-.4a22.91,22.91,0,0,1,5.72,1.63c2.45.81,4.5,1.63,6.54,2.45a57.06,57.06,0,0,1,9.81,6.11c2.86,2.45,4.9,4.9,5.72,7.35,1.63,3.67,3.27,5.3,5.72,6.12a14.12,14.12,0,0,1,3.68,1.63,38.73,38.73,0,0,1,13.48,8.56l3.68-4.48,10.63-13.46,37.19-48.14a87.85,87.85,0,0,0-15.94-11.42,115.86,115.86,0,0,0-49.45-15.91,3.72,3.72,0,0,1-2-.4h-4.09a86.14,86.14,0,0,0-17.57.81,109.78,109.78,0,0,0-19.62,3.26c-.41,0-.82.41-1.22.41-11,2.86-18,4.49-39.24,19.17-7.35,4.08-13.07,11-20,16.32a23.17,23.17,0,0,1-2.86,3.26A6.93,6.93,0,0,0,27.75,211.53Z"/></g></g><g id="Group-32" data-name="Group"><g id="path198_fill-link-2" data-name="path198 fill-link"><g id="Group-33" data-name="Group"><path id="path198_fill-2" data-name="path198 fill" class="cls-3" d="M3.23,248.24a5.59,5.59,0,0,0,1.23,1.63c9.81,12.65,7-17.13,18.8-13.46,4.49,4.08-9.4,16.72-2,18.36h1.22c3.27.4,9.81-7.75,16.76-18a8.88,8.88,0,0,1,1.22-2L38,230.29,29.8,215.2l-2.45-4.49c-.82.41-1.64.41-2.46.82C6.1,217.65-6.16,234.37,3.23,248.24Z"/></g></g><g id="path199_fill-link-2" data-name="path199 fill-link"><g id="Group-34" data-name="Group"><g id="path199_fill-2" data-name="path199 fill"><path class="cls-4" d="M25.3,211.93c0,.41,0,.41.41.82l2,3.67,9,16.31,2,3.68c.41.4.41.81.82.81s.4.41.81.41a3.7,3.7,0,0,0,2-.41A2.73,2.73,0,0,0,43.69,234l-2.45-4.9-7.76-14.27L31,210.3a3.29,3.29,0,0,0-3.67-1.22C25.71,209.48,24.89,210.71,25.3,211.93Z"/></g></g></g></g><g id="Group-35" data-name="Group"><g id="path200_fill-link-2" data-name="path200 fill-link"><path id="path200_fill-2" data-name="path200 fill" class="cls-4" d="M92.32,171.55l2.87,9,2.86,9.79,18.79-6.12,1.23-.41-.41-.82-1.63-5.3-2.86-9.38a109.78,109.78,0,0,0-19.62,3.26Z"/></g></g></g><g id="Vector-30" data-name="Vector"><g id="Group-36" data-name="Group"><g id="path201_fill-link-2" data-name="path201 fill-link"><path id="path201_fill-2" data-name="path201 fill" class="cls-3" d="M187.14,191.52l3.26,18.77,7.36,41.2L201,268.21l.82,5.71a20.2,20.2,0,0,1,6.54-1.22,57.64,57.64,0,0,1,7.76-.41h2c4.5.41,7.36,1.22,11.86-2.45a19.38,19.38,0,0,1,6.53-3.26c.41,0,.41,0,.82-.41A40.35,40.35,0,0,1,250.07,265h.82a2.49,2.49,0,0,1,1.63.4,31.35,31.35,0,0,1,6.13.82c1.23.41,2.45.41,4.09.82,9.81,2.85,26.15,9.79,33.51,17.94l.41.41c3.68,4.08,9.4,9.38,13.48,14.28.41.81,1.23,1.22,1.64,2l5.31-3.67,16.76-11.42a4.11,4.11,0,0,1-1.64-2c-.82-1.23-.82-2.86-1.22-4.08-3.68-8.16-5.73-16.73-10.22-23.66-11.85-23.25-17.16-27.74-25.75-35.49-.41-.41-.81-.41-1.22-.81a104.26,104.26,0,0,0-15.53-11.83,110.74,110.74,0,0,0-15.12-8.57c-1.23-.82-2.86-1.22-4.09-2a113.72,113.72,0,0,0-53.13-9.38,44,44,0,0,0-10.21,1.22A64.77,64.77,0,0,0,187.14,191.52Z"/></g></g><g id="Group-37" data-name="Group"><g id="path202_fill-link-2" data-name="path202 fill-link"><g id="Group-38" data-name="Group"><path id="path202_fill-2" data-name="path202 fill" class="cls-3" d="M311.37,301.67a5.16,5.16,0,0,0,.41,2.45c1.22,12.24,3.27,22.43,6.54,23.66.41,0,.41,0,.81.41,6.54,2,3.27-9.39,4.91-14.69.41-1.22,1.22-2.45,2-2.45,13.08,2.45-5.31,29,11.85,20a.4.4,0,0,0,.41-.41c14.71-7.75,11.85-28.14-2.45-42.42-.82-.41-1.23-1.22-2-1.63l-17.17,11.83Z"/></g></g><g id="path203_fill-link-2" data-name="path203 fill-link"><g id="Group-39" data-name="Group"><path id="path203_fill-2" data-name="path203 fill" class="cls-4" d="M309.33,303.29a5.63,5.63,0,0,0,1.63,1.22h.82a1.48,1.48,0,0,0,1.22-.41l4.5-2.85,18-12.24.41-.41c.82-.81.82-2,0-3.26a2.68,2.68,0,0,0-3.68-.82l-16.75,11.42-5.73,3.68A3,3,0,0,0,309.33,303.29Z"/></g></g></g><g id="Group-40" data-name="Group"><g id="path204_fill-link-2" data-name="path204 fill-link"><path id="path204_fill-2" data-name="path204 fill" class="cls-4" d="M266.42,220.09l14.71,14.69L295,221.32c-.41-.41-.81-.41-1.22-.82a104.26,104.26,0,0,0-15.53-11.83Z"/></g></g></g><g id="Vector-31" data-name="Vector"><g id="path209_fill-link-2" data-name="path209 fill-link"><path id="path209_fill-2" data-name="path209 fill" class="cls-6" d="M203.62,298.52a7.75,7.75,0,1,1,9.39-5.67A7.75,7.75,0,0,1,203.62,298.52Z"/></g></g><g id="Vector-32" data-name="Vector"><g id="path211_fill-link-2" data-name="path211 fill-link"><path id="path211_fill-2" data-name="path211 fill" class="cls-6" d="M135.47,281.47a7.75,7.75,0,1,1,9.4-5.67A7.77,7.77,0,0,1,135.47,281.47Z"/></g></g><g id="Vector-33" data-name="Vector" class="cls-5"><g id="path212_fill-link-2" data-name="path212 fill-link"><path id="path212_fill-2" data-name="path212 fill" class="cls-6" d="M199,304.52a22.79,22.79,0,0,0,13.89,8.16,107.1,107.1,0,0,0,22.07,2c.41-3.26.82-6.93,1.23-10.61-18.39-.4-25.34-2-29-6.52a4.87,4.87,0,0,0-7.36-.82A6.16,6.16,0,0,0,199,304.52Z"/></g></g><g id="Vector-34" data-name="Vector"><g id="path213_fill-link-2" data-name="path213 fill-link"><path id="path213_fill-2" data-name="path213 fill" class="cls-7" d="M215.74,302.47c6.13,1.64,14.3,2,24.52,2a5.3,5.3,0,1,0,0-10.6c-19.62-.41-27-2-30.65-6.53a5.23,5.23,0,0,0-8.17,6.53C205.12,298.4,209.2,300.84,215.74,302.47Z"/></g></g><g id="Vector-35" data-name="Vector" class="cls-5"><g id="path214_fill-link-2" data-name="path214 fill-link"><path id="path214_fill-2" data-name="path214 fill" class="cls-6" d="M100.9,282.08a83.61,83.61,0,0,0,19.62,7.75,24.68,24.68,0,0,0,16.35-.81,5.38,5.38,0,0,0,2.45-6.94c-1.23-2.85-4.09-3.67-6.95-2.85-5.31,2.44-11.85.4-27.79-7.35C103.36,275.55,102.13,278.82,100.9,282.08Z"/></g></g><g id="Vector-36" data-name="Vector"><g id="path215_fill-link-2" data-name="path215 fill-link"><path id="path215_fill-2" data-name="path215 fill" class="cls-7" d="M123,279.64a24.65,24.65,0,0,0,16.34-.81,5.25,5.25,0,0,0,2.45-6.94,5.82,5.82,0,0,0-6.94-2.85c-5.32,2.44-12.67.4-30.24-8.57a5.2,5.2,0,1,0-4.5,9.38C109.49,274.75,116.85,278,123,279.64Z"/></g></g><g id="Vector-37" data-name="Vector" class="cls-5"><g id="path217_fill-link-2" data-name="path217 fill-link"><path id="path217_fill-2" data-name="path217 fill" class="cls-6" d="M3.23,248.24a5.74,5.74,0,0,0,1.23,1.63c-.82-5.71-.41-11.83,4.5-20,6.13-9.79,12.66-12.64,18.39-13.87.81-.41,2-.41,2.86-.81A6.39,6.39,0,0,0,32.66,214c9-4.89,36.37-28.55,62.52-33.45.82,0,2-.4,3.27-.4,7-.82,13.08-1.64,18-2.45,2.87-.41,5.73-.82,7.77-1.22,9-2,12.67-4.08,12.67-8.16v-1.63c-.82.4-1.23.81-2.05,1.22h-4.08a85.45,85.45,0,0,0-17.57.82A108.89,108.89,0,0,0,93.55,172c-.41,0-.82.41-1.23.41-11,2.85-18,4.48-39.23,19.17-7.35,4.08-13.08,11-20,16.31a24,24,0,0,1-2.86,3.27,3.31,3.31,0,0,0-3.68-1.23,2.11,2.11,0,0,0-1.23,2.86C6.09,217.64-6.17,234.37,3.23,248.24Z"/></g></g><g id="Vector-38" data-name="Vector" class="cls-5"><g id="Group-41" data-name="Group"><g id="path218_fill-link-2" data-name="path218 fill-link"><path id="path218_fill-2" data-name="path218 fill" class="cls-6" d="M323.63,313.5c.41-1.22,1.23-2.45,2-2.45,13.08,2.45-5.31,29,11.86,20,2.86-17.13,1.22-24.47-6.13-24.06C325.27,307,323.63,310.65,323.63,313.5Z"/></g></g><g id="Group-42" data-name="Group"><g id="path219_fill-link-2" data-name="path219 fill-link"><path id="path219_fill-2" data-name="path219 fill" class="cls-6" d="M237.4,266.19c0,.81-.41,1.22-.41,1.63a5.12,5.12,0,0,0,.41,2.44v1.64h.41a3,3,0,0,0,1.63-.82,51.47,51.47,0,0,0,10.63-5.71c.41,0,.41-.41.82-.41a2.44,2.44,0,0,1,1.63.41,31.35,31.35,0,0,1,6.13.82c1.23.4,2.45.4,4.09.81,9.81,2.86,26.15,9.79,33.51,17.95l.41.41c3.68,4.08,9.4,9.38,13.48,14.27a2.58,2.58,0,0,0-.4,3.67,5.46,5.46,0,0,0,1.63,1.23h.82c1.22,12.24,3.27,22.43,6.54,23.66.4,0,.4,0,.81.41-.41-6.12.41-18.77-1.22-27.33a7.55,7.55,0,0,0-.82-2.86c-.41-.82-.41-1.63-1.23-2.45-4.08-8.56-18.39-27.33-40-38.34a56.91,56.91,0,0,0-11.44-4.9,76,76,0,0,0-19.61-4.07c-2.46,4.48-4.09,7.34-5.73,12.64C238.22,262.51,237.81,264.15,237.4,266.19Z"/></g></g></g><g id="Vector-39" data-name="Vector" class="cls-5"><g id="Group-43" data-name="Group"><g id="path220_fill-link-2" data-name="path220 fill-link"><path id="path220_fill-2" data-name="path220 fill" class="cls-6" d="M117.25,241.7a5.46,5.46,0,0,0,1.23,1.63c-.82,1.23-1.23,2.45-2,3.67h.41s.82-1.63,1.64-3.67a.39.39,0,0,1,.41-.4c0-.41.41-.82.81-1.64s1.23-2,1.64-2.85a1.43,1.43,0,0,1,.41-.82l.41-.41c.4-.4.4-.81.81-.81l-.81.81a31.48,31.48,0,0,1-3.68,3.68C117.66,241.29,117.66,241.7,117.25,241.7Z"/></g></g><g id="Group-44" data-name="Group"><g id="path221_fill-link-2" data-name="path221 fill-link"><path id="path221_fill-2" data-name="path221 fill" class="cls-6" d="M112.35,231.5c.41.82.41,1.22.82,2,.4-.41,1.22-.41,1.63-.82.82-.4,2-.81,2.86-1.22a19.52,19.52,0,0,1,2-.82,31.17,31.17,0,0,1-4.08.41h-1.23a4.42,4.42,0,0,0-2,.41Z"/></g></g><g id="Group-45" data-name="Group"><g id="path222_fill-link-2" data-name="path222 fill-link"><path id="path222_fill-2" data-name="path222 fill" class="cls-6" d="M236.18,266.58a34.56,34.56,0,0,0,1.22,3.67c0,.41.41.81.41,1.22v.41a3,3,0,0,0,1.63-.82.39.39,0,0,0-.4-.4c-.82-.82-1.23-2-2-2.45a.4.4,0,0,0-.41-.41C237,267,236.58,266.58,236.18,266.58Z"/></g></g><g id="Group-46" data-name="Group"><g id="path223_fill-link-2" data-name="path223 fill-link"><path id="path223_fill-2" data-name="path223 fill" class="cls-6" d="M244.35,260.48a19.67,19.67,0,0,1,4.49,3.27l.41.41.82.81a.4.4,0,0,0,.41.41c.41,0,.41-.41.82-.41a2.45,2.45,0,0,1,1.63.41c0-.41-.41-.41-.41-.82l-.41-.4a8.87,8.87,0,0,0-2-1.23A29.38,29.38,0,0,0,244.35,260.48Z"/></g></g></g><g id="path216_fill-link-2" data-name="path216 fill-link"><path id="path216_fill-2" data-name="path216 fill" class="cls-6" d="M98,263.34c.41-.41.41-.81.82-1.22a6.4,6.4,0,0,0,2.45,3.26c1.64.82,3.68,1.63,5.32,2.45,6.94,3.26,12.67,5.71,17.57,6.93a5.16,5.16,0,0,0,2.45.41c.82,0,1.64.41,2.45.41a19.8,19.8,0,0,0,11-1.63c.41-.41,1.22-.82,1.63-1.23a3.48,3.48,0,0,1,0,2.86c0,.41-.41.81-.41,1.22a.88.88,0,0,1-.81.82,4.13,4.13,0,0,1-2.05,1.63c-.81.41-1.22.41-2,.82h-.82c-.41.4-.82.4-1.63.4a17.76,17.76,0,0,0-2,.41H124.2c-.82,0-1.23-.41-2-.41-.41,0-1.23-.4-1.64-.4s-1.22-.41-1.63-.41a6.93,6.93,0,0,1-2-.82c-.81-.41-1.22-.41-2-.81a117.59,117.59,0,0,1-11-4.9,21.85,21.85,0,0,0-4.5-2C97.64,269.05,96.41,265.79,98,263.34Zm103.81,24.07a3.06,3.06,0,0,0,.81,1.63,20.73,20.73,0,0,0,9,6.53,23.56,23.56,0,0,0,4.91,1.63,87.92,87.92,0,0,0,19.61,2h4.91a4,4,0,0,0,3.68-1.64c0,.41.4.82.4,1.64a5.4,5.4,0,0,1-5.31,5.3h-4.08c-3.68,0-7.36-.41-10.22-.41-1.64,0-2.86-.41-4.5-.41a18.36,18.36,0,0,1-2-.4,3.65,3.65,0,0,1-2-.41c-.82,0-1.23-.41-1.64-.41s-.82-.41-1.63-.41c-.41,0-.82-.41-1.23-.41s-.41,0-.82-.4c-.4,0-1.22-.41-1.63-.41l-2.45-1.23a3.16,3.16,0,0,0-1.64-.81,5.74,5.74,0,0,1-1.63-1.23c-.41-.4-1.23-.81-1.64-1.63L201,294.34c-.41-.81-.82-1.22-1.23-2v-1.22C200.62,289.45,201,288.22,201.85,287.41Z"/></g><g id="Vector-40" data-name="Vector"><g id="Group-47" data-name="Group"><g id="path224_fill-link-2" data-name="path224 fill-link"><path id="path224_fill-2" data-name="path224 fill" d="M195.77,190.89c27.34,6.53,46.93,7.75,62.44,3.67a5.29,5.29,0,1,0-2.86-10.19c-13.46,3.67-31.83,2.45-57.13-3.67s-42-13.86-52.65-23.24a5.2,5.2,0,0,0-6.93,7.75C150.06,175.81,168.43,184,195.77,190.89Z"/></g></g><g id="Group-48" data-name="Group"><g id="path227_fill-link-2" data-name="path227 fill-link"><path id="path227_fill-2" data-name="path227 fill" class="cls-3" d="M131.7,78C115.37,144,130.88,169.68,197,186s91.82.81,108.15-65.23C320.24,59.61,290,14.36,242.29,2.94,194.14-9.29,146.8,16.8,131.7,78Z"/></g><g id="path228_fill-link-2" data-name="path228 fill-link" class="cls-5"><path id="path228_fill-2" data-name="path228 fill" class="cls-6" d="M215.77.09c-28.16,9.38-51.83,34.25-61.63,73.79-16.32,66.05-.81,91.73,65.3,108,16.73,4.08,31,6.11,43.26,6.11-15.92,6.53-37.14,5.3-65.71-1.63-66.11-16.3-81.61-41.58-65.29-108C143.94,28.22,177.81,1.72,215.77.09Z"/></g><g id="path229_fill-link-2" data-name="path229 fill-link"><path id="path229_fill-2" data-name="path229 fill" class="cls-4" d="M199.44,175.39c50.6,12.23,82.44-6.93,95.09-57.48,10.2-40.77-10.61-67.68-60.81-79.91-50.6-12.23-81.21,2-91.41,42.81C129.25,133.4,146.8,162.75,199.44,175.39Z"/></g><g id="path230_fill-link-2" data-name="path230 fill-link"><path id="path230_fill-2" data-name="path230 fill" class="cls-9" d="M200.67,170.51c47.74,11.83,76.72-5.7,88.55-53.4,9.39-37.92-9.38-62-57.13-73.79s-75.5.81-84.89,38.73C134.55,132.6,150.06,157.87,200.67,170.51Z"/></g><g id="path231_fill-2" data-name="path231 fill" class="cls-10"><path class="cls-11" d="M253.66,121.31c6.31,26.94,13.81,29,0,47.44,21.06-8.57,31.62-34.73,35.56-51.64,5.52-23.27,2.35-35-10.19-50.25-6.46-5.83-8.77-8.8-20.87-14.11C267.47,69.85,247.35,94.36,253.66,121.31Z"/></g></g></g><g id="Group-2-3" data-name="Group-2"><g id="Group-3-2" data-name="Group-3"><g class="cls-14"><path id="Fill-1" class="cls-15" d="M168.62,250.62A17.38,17.38,0,1,1,185,221.37a25.29,25.29,0,0,1,3.53-2.66,21.72,21.72,0,1,0-20.89,36.14,22.9,22.9,0,0,0,4.14.62l1.08-4.33a17.47,17.47,0,0,1-4.22-.52"/></g></g><path id="Fill-4" class="cls-15" d="M174.44,227.38a6.56,6.56,0,0,1,4,2.91,25.72,25.72,0,0,1,2.24-4,10.86,10.86,0,1,0-6.19,18.21l1.18-4.77a6.58,6.58,0,1,1-1.23-12.34"/><g id="Group-8-2" data-name="Group-8"><g class="cls-16"><path id="Fill-5" class="cls-15" d="M169.92,245.35a11.95,11.95,0,1,1,11.4-20,25.64,25.64,0,0,1,2.87-3.27,16.29,16.29,0,1,0-15.31,27.46,16.55,16.55,0,0,0,4.23.48l1.09-4.43a11.77,11.77,0,0,1-4.28-.27"/></g><g class="cls-16"><path id="Fill-7" class="cls-17" d="M207.55,220a21.62,21.62,0,0,0-14.33,1.36,23.48,23.48,0,0,1,1.91,3.9,17.38,17.38,0,1,1-6.56,26.45,25.21,25.21,0,0,1-3.51,2.56A21.72,21.72,0,1,0,207.55,220"/></g></g><path id="Fill-9" class="cls-17" d="M206.24,225.27a16.19,16.19,0,0,0-10.74,1,23.76,23.76,0,0,1,1,4.36,11.95,11.95,0,1,1-4.2,16.93,23.62,23.62,0,0,1-2.92,3.39,16.29,16.29,0,1,0,16.87-25.7"/><path id="Fill-10" class="cls-17" d="M199.7,251.62a10.86,10.86,0,1,0-3.08-19.78,23.9,23.9,0,0,1-.63,7.67,6.52,6.52,0,1,1,4.76,7.89,6.51,6.51,0,0,1-4.76-7.89,23.86,23.86,0,0,1-3,7.08,10.8,10.8,0,0,0,6.74,5"/><path id="Fill-11" class="cls-17" d="M183.54,236.46h0v0a17.34,17.34,0,0,1,8.95-11.27c-.11-.26-.23-.52-.35-.77l0-.07c-.08-.15-.15-.29-.22-.44l-.05-.09-.22-.41a.41.41,0,0,1,0-.09l-.24-.41a.59.59,0,0,0,0-.08c-.09-.15-.18-.3-.28-.45l0,0c-.31-.49-.63-1-1-1.43h0a23.53,23.53,0,0,0-10.66,14.5h0l-4.92,19.82a21,21,0,0,0,4.69-.89l4.43-17.85"/><path id="Fill-12" class="cls-17" d="M188.81,237.77h0v0a12,12,0,0,1,5.24-7.23v0c-.06-.38-.13-.76-.21-1.13v0c0-.18-.07-.35-.11-.52l0-.12c0-.14-.07-.29-.11-.43s0-.09,0-.14l-.12-.41a1,1,0,0,0,0-.14c0-.14-.08-.27-.13-.41l0-.13-.15-.43,0-.1-.12-.33a16.26,16.26,0,0,0-8.31,10.54.07.07,0,0,0,0,.05h0l-4.25,17.16a21.71,21.71,0,0,0,5.17-2.79l3.3-13.33"/><path id="Fill-13" class="cls-17" d="M193.85,238.17c0-.13.05-.26.08-.39a1.85,1.85,0,0,1,0-.23l.06-.35,0-.24c0-.11,0-.23.05-.34a2,2,0,0,0,0-.24c0-.12,0-.23,0-.35a1.79,1.79,0,0,1,0-.23l0-.37c0-.07,0-.14,0-.2s0-.29,0-.44,0-.09,0-.14,0-.38,0-.58v-.57a1,1,0,0,0,0-.17c0-.13,0-.27,0-.4a1.34,1.34,0,0,0,0-.2c0-.12,0-.25,0-.37s0-.14,0-.21l0-.37v-.08a10.85,10.85,0,0,0-4.33,6.29.64.64,0,0,1,0,.07h0l-3,11.93a21.42,21.42,0,0,0,6.77-11.05c.05-.2.09-.39.14-.58a1.06,1.06,0,0,1,0-.19"/></g></g><path id="Path-2-2" data-name="Path-2" class="cls-4" d="M65.35,408.14Q51,432.31,47.8,444.64c-3.17,12.32-22.32-11.45-26.3.24q-4,11.7,28.79,26Q67.9,486.25,75,476.46t30.18-47q-2.11-5.18-17-13.27T65.35,408.14Z"/><path id="Combined-Shape-2" data-name="Combined-Shape" class="cls-12" d="M21.06,446.66q0,5.67,6.36,11.14c6.36,5.47,13.87,8.62,15.21,9.41s8.44,4.44,8.44,4.44,8.14,7,14.51,8.33q6.38,1.35,9.77-3.69-10.47-7-26.14-12.4A76.73,76.73,0,0,1,21.06,446.66Z"/><path id="Path-5-2" data-name="Path-5" class="cls-13" d="M165.41,479.15c-2,18.32,7.12,52.18,32.51,49.6,10.35-1,12.51-21.39,4.72-38q-2.85-6.08-4.28-8.81Q165.49,470.12,165.41,479.15Z"/><path id="Path-4-2" data-name="Path-4" class="cls-4" d="M210.68,437.92q1.86.66-12.29,44,6.81,17.2,6.8,24c0,6.86.27,17.72-7.38,19.3-3.73.77-10-1-16.67-7.35-6.38-6-12.91-15.29-14.25-29.95q-2.76-30.12-3.78-28.79l-1-13.42q2.76-7.83,18.5-7.83C191.22,437.58,208.83,437.28,210.68,437.92Z"/></g></g></g></g></svg>