<svg xmlns="http://www.w3.org/2000/svg" xmlns:xlink="http://www.w3.org/1999/xlink" viewBox="0 0 114.54 114.54"><defs><style>.cls-1{isolation:isolate;}.cls-2{fill:#545487;}.cls-3,.cls-6{opacity:0.4;mix-blend-mode:multiply;}.cls-3{fill:url(#radial-gradient);}.cls-4,.cls-5{fill:#7676b8;mix-blend-mode:screen;}.cls-4{opacity:0.01;}.cls-5{opacity:0;}.cls-6{fill:#d3d3d3;}</style><radialGradient id="radial-gradient" cx="57.27" cy="57.27" r="57.26" gradientTransform="matrix(1, 0, 0, -1, 0, 114.54)" gradientUnits="userSpaceOnUse"><stop offset="0" stop-color="#fff"/><stop offset="0.67" stop-color="#ededed"/><stop offset="1" stop-color="#e2e2e2"/></radialGradient></defs><title>planet_1</title><g class="cls-1"><g id="Layer_2" data-name="Layer 2"><g id="Layer_1-2" data-name="Layer 1"><path class="cls-2" d="M107.8,30.34A57.26,57.26,0,1,0,84.2,107.8,57.26,57.26,0,0,0,107.8,30.34Z"/><path class="cls-3" d="M42.2,112.53a51.07,51.07,0,1,0-21.81-11.47l-.56-.47A57.19,57.19,0,1,1,42.2,112.53Z"/><path class="cls-4" d="M87.1,92.2c13.22-18,7.91-44.4-11.87-58.9S28.7,21.64,15.48,39.66s-7.9,44.4,11.88,58.9S73.88,110.22,87.1,92.2Z"/><path class="cls-5" d="M63.34,103.35c8-9.31,4-26-9.09-37.3S24.07,53.14,16,62.44s-4,26,9.1,37.31S55.3,112.65,63.34,103.35Z"/><path class="cls-6" d="M20.61,27.86c.76,2.83,6.54,2.84,11.37-.71s3.27-8.67,0-9.52S18.62,20.47,20.61,27.86Z"/><path class="cls-6" d="M73.89,16.16c-.47,2.54,2.18,5.78,6.44,6.73s8.25-.48,8.91-4.36S85.22,11,81.55,12,74.46,13.13,73.89,16.16Z"/><path class="cls-6" d="M31.93,11.82c.6,2.12,5.31.65,5.35-2.24S31.27,9.46,31.93,11.82Z"/><path class="cls-6" d="M45.93,11c.9-1,3.62-2.06,4.19.87S43.07,14.15,45.93,11Z"/><path class="cls-6" d="M66.22,7.07c2-.24,4.88-.37,5.31,2.37s-5.69,2.57-7,1.14S64.42,7.28,66.22,7.07Z"/><path class="cls-6" d="M95.77,70.63c1.32-1,5.31-1.33,6,2.27s-3.79,5.21-6,4.45S91.7,73.85,95.77,70.63Z"/><path class="cls-6" d="M89.3,88.81c1.47-1.3,7-2,8.29.38s-2.15,5.65-6.65,6S84.06,93.46,89.3,88.81Z"/><path class="cls-6" d="M55.37,96.47C57.19,95.19,62.53,96,63,99s-4.75,3.72-7.63,2.66S52,98.82,55.37,96.47Z"/><path class="cls-6" d="M42.64,104c2-.93,5-.66,5.08.76S46,107,43.87,106.81,40.17,105.11,42.64,104Z"/><path class="cls-6" d="M16.77,91.56c.27,1.45,1.8.28,1.9-.47S16.4,89.48,16.77,91.56Z"/><path class="cls-6" d="M20.35,72.43c-.46,1.24,1.54.94,1.64,0S20.71,71.48,20.35,72.43Z"/><path class="cls-6" d="M15.17,42.69a1.35,1.35,0,0,1,2.43,1C17.44,45.34,14.5,43.82,15.17,42.69Z"/><path class="cls-6" d="M12.23,29.9a1,1,0,0,1,1.81.6C14.12,32.07,11.57,31.05,12.23,29.9Z"/><path class="cls-6" d="M59.19,3c1-.53,2,.42,1.63,1.56S57.13,4.06,59.19,3Z"/><path class="cls-6" d="M54.5,3.42c.67.73-1.14,1-1.85.47S53.65,2.5,54.5,3.42Z"/><path class="cls-6" d="M49.1,5.91c.8-.52,1.42-.22,1.49.49S47.68,6.83,49.1,5.91Z"/><path class="cls-6" d="M56.84,20.83c-.19.46,1.87.71,1.68,0A.89.89,0,0,0,56.84,20.83Z"/><path class="cls-6" d="M89.3,46.62c0,1.06,1.72,1,1.79,0S89.29,45.55,89.3,46.62Z"/><path class="cls-6" d="M98.48,63.59c-.08,1.07,2,1.14,2.06,0S98.55,62.53,98.48,63.59Z"/><path class="cls-6" d="M83.34,100.89c-.15,1.23,1.28,1.21,1.49,0S83.42,100.29,83.34,100.89Z"/><path class="cls-6" d="M73.4,101.32c-1.12.78.56,1.48,1.27.85S74.61,100.46,73.4,101.32Z"/><path class="cls-6" d="M64,105.79c-.71.36.21,1.74,1.13,1S64.66,105.44,64,105.79Z"/><path class="cls-6" d="M58.83,109.77c-.76.9.92.64,1.49.36S60,108.35,58.83,109.77Z"/><path class="cls-6" d="M71.26,107c-.7,1.46,1.14.38,1,0S71.26,107,71.26,107Z"/><path class="cls-6" d="M59,106.84c-.65.51.55.56.59,0S59,106.84,59,106.84Z"/><path class="cls-6" d="M48.07,106.27c-.33.25.44.85.85.39S48.68,105.83,48.07,106.27Z"/><path class="cls-6" d="M35,97.57c-.64.53,1.28,1.19,2,.48S36,96.77,35,97.57Z"/><path class="cls-6" d="M77.73,29.49c-2.42,1.64-.54,7.1,4.4,10.5s9.26.24,9-3.13S84.06,25.18,77.73,29.49Z"/><path class="cls-6" d="M91.3,51c-1.3.11-2.24,2.31-1.75,5.14s2,5.11,4,4.89,2.68-3.76,1.39-5.9S92.85,50.85,91.3,51Z"/><path class="cls-6" d="M91.11,18.16c-1.82,1.26,1.13,5.23,3.87,4.32S93.12,16.76,91.11,18.16Z"/><path class="cls-6" d="M96.52,31.1c1.25.52,3.14,2.74.56,4.24S92.55,29.45,96.52,31.1Z"/><path class="cls-6" d="M106.85,49c.89,1.84,1.94,4.49-.5,5.79s-4.29-4.52-3.38-6.25S106.06,47.36,106.85,49Z"/><path class="cls-6" d="M45.11,85.38c1.41.9,3,4.58-.19,6.38s-6.17-1.87-6.17-4.17S40.73,82.59,45.11,85.38Z"/><path class="cls-6" d="M32,79.61c1.71,1,4.17,5.94,2.36,8s-6-.18-7.82-4.32S25.89,76.18,32,79.61Z"/><path class="cls-6" d="M18.55,60.34c1.82,1.3,2.79,6.61.08,8s-5.07-3.27-5-6.33S15.24,58,18.55,60.34Z"/><path class="cls-6" d="M7.57,58.52c1.54,1.59,2.26,4.46,1,5s-2.73-.93-3.24-3S5.69,56.56,7.57,58.52Z"/><path class="cls-6" d="M10.81,30c-1.29.72.32,1.79,1.07,1.63S12.65,29,10.81,30Z"/><path class="cls-6" d="M30.62,29.79c-1.33,0-.39,1.77.53,1.54S31.63,29.82,30.62,29.79Z"/><path class="cls-6" d="M56.45,12.46a1.35,1.35,0,0,1-.19,2.64C54.69,15.47,55.16,12.2,56.45,12.46Z"/><path class="cls-6" d="M67.7,3.66a1,1,0,0,1,0,1.9C66.27,6.16,66.4,3.41,67.7,3.66Z"/><path class="cls-6" d="M108.39,41a1.2,1.2,0,0,1-.94,2.06C106.26,43.11,106.7,39.41,108.39,41Z"/><path class="cls-6" d="M106.45,36.72c-.48.88-1.34-.74-1.06-1.59S107,35.61,106.45,36.72Z"/><path class="cls-6" d="M102.32,32.44c.76.58.67,1.27,0,1.57S101,31.4,102.32,32.44Z"/><path class="cls-6" d="M90.77,44.65c-.5,0-.06,2,.55,1.58A.89.89,0,0,0,90.77,44.65Z"/><path class="cls-6" d="M77.07,83.78c-1,.35-.38,1.94.58,1.68S78.07,83.42,77.07,83.78Z"/><path class="cls-6" d="M65.87,97.45c-1,.28-.42,2.25.68,2S66.9,97.17,65.87,97.45Z"/><path class="cls-6" d="M23.84,96c-1.21.26-.72,1.6.49,1.41S24.43,95.83,23.84,96Z"/><path class="cls-6" d="M20.17,86.7c-1.11-.79-1.21,1-.38,1.49S21.38,87.57,20.17,86.7Z"/><path class="cls-6" d="M12.85,79.25c-.57-.56-1.57.77-.62,1.41S13.41,79.8,12.85,79.25Z"/><path class="cls-6" d="M7.41,75.72c-1.1-.43-.3,1.08.15,1.53S9.15,76.4,7.41,75.72Z"/><path class="cls-6" d="M14.08,86.56c-1.62-.18,0,1.2.33.94S14.08,86.56,14.08,86.56Z"/><path class="cls-6" d="M10.23,74.89c-.7-.43-.35.71.17.57S10.23,74.89,10.23,74.89Z"/><path class="cls-6" d="M7.18,64.41c-.34-.24-.66.7-.09.93S7.8,64.84,7.18,64.41Z"/><path class="cls-6" d="M11.1,49.17c-.71-.44-.7,1.6.2,2S12.18,49.85,11.1,49.17Z"/></g></g></g></svg>