<svg xmlns="http://www.w3.org/2000/svg" viewBox="0 0 390.76 699.27"><defs><style>.cls-1{fill:#3e4546;}.cls-2{fill:#90a6b4;}.cls-3{fill:#545487;}.cls-4{fill:#edf5f7;}</style></defs><title>satellite</title><g id="Layer_2" data-name="Layer 2"><g id="Object"><path class="cls-1" d="M254.51,263.57l-7.36,51a5,5,0,0,1-9.9-1.43l7.36-51a5,5,0,0,1,9.9,1.43Z"/><path class="cls-1" d="M331.67,19.1,296.53,262.75a6.81,6.81,0,0,1-7.71,5.77L210.3,257.2a6.8,6.8,0,0,1-5.76-7.71L239.68,5.84A6.81,6.81,0,0,1,247.39.07L325.9,11.39A6.8,6.8,0,0,1,331.67,19.1Z"/><path class="cls-2" d="M280.43,13.83l-4.84,33.55-41-5.92h0l-1.43,9.9h0l41.05,5.92-5.07,35.13-41-5.92h0l-1.42,9.9h0l41.05,5.92-5.07,35.13-41.05-5.92h0l-1.43,9.9h0l41.05,5.92-5.07,35.13-41-5.92h0l-1.43,9.9h0l41.05,5.92-5.07,35.13-41.05-5.92h0l-1.43,9.9h0l41.05,5.92-3.57,24.74h0l9.9,1.43h0l3.57-24.74,41.05,5.92h0l1.42-9.9h0l-41-5.92,5.06-35.13,41.05,5.92h0l1.43-9.9h0L266,183.9l5.07-35.13,41.05,5.92h0l1.42-9.9h0l-41-5.92,5.06-35.13,41.05,5.92h0l1.43-9.9h0L279,93.84l5.07-35.13,41,5.92h0l1.43-9.9h0l-41-5.92,4.84-33.55a5,5,0,1,0-9.89-1.43Z"/><path class="cls-3" d="M239.68,5.84l-1.57,10.88L330.1,30l1.57-10.88a6.8,6.8,0,0,0-5.77-7.71L247.39.07A6.81,6.81,0,0,0,239.68,5.84Z"/><path class="cls-1" d="M226.61,457.05l-7.36,51a5,5,0,1,1-9.9-1.43l7.36-51a5,5,0,1,1,9.9,1.42Z"/><path class="cls-1" d="M142.34,680.71,167.6,505.58c.39-2.68,3.72-4.41,7.44-3.87L253.56,513c3.72.54,6.42,3.14,6,5.81L234.34,694c-.39,2.67-3.72,4.4-7.44,3.87l-78.52-11.33C144.66,686,142,683.38,142.34,680.71Z"/><path class="cls-2" d="M209.35,506.65l-2.61,18.09-41.05-5.92h0l-1,7.24h0l41,5.92L202,557.66l-41.05-5.92h0l-1,7.23h0l41,5.92-3.7,25.69-41.05-5.92h0l-1,7.23h0l41,5.92-3.7,25.68-41.05-5.92h0l-1,7.24h0l41,5.92-3.7,25.68-41.05-5.92h0l-1,7.23h0l41.05,5.92-3.54,24.52c-.29,2,1.69,3.94,4.43,4.33s5.18-.9,5.47-2.9l3.53-24.53L237.65,671h0l1-7.23h0l-41-5.92,3.7-25.68,41.05,5.92h0l1-7.24h0l-41-5.92,3.7-25.68,41.05,5.92h0l1-7.24h0L207.14,592l3.71-25.68,41,5.92h0l1.05-7.23h0l-41.05-5.92,3.7-25.69,41,5.92h0l1.05-7.23h0l-41-5.92,2.61-18.09Z"/><path class="cls-3" d="M234.32,693.44l1.57-10.88-92-13.27-1.56,10.88a6.8,6.8,0,0,0,5.76,7.71l78.52,11.32A6.8,6.8,0,0,0,234.32,693.44Z"/><path class="cls-4" d="M374.21,335.3,354.34,473.1A22.35,22.35,0,0,1,329,492L150.37,466.27A22.37,22.37,0,0,1,131.43,441l19.88-137.8a22.34,22.34,0,0,1,25.31-18.93L355.28,310A22.34,22.34,0,0,1,374.21,335.3Z"/><rect class="cls-2" x="247.82" y="275.52" width="10" height="225.21" transform="translate(-167.42 582.96) rotate(-81.79)"/><rect class="cls-3" x="139.97" y="346.75" width="183.93" height="76.72" transform="translate(-182.35 559.69) rotate(-81.79)"/><path class="cls-1" d="M324.81,395.1h100a0,0,0,0,1,0,0v8.59a12.65,12.65,0,0,1-12.65,12.65H337.46a12.65,12.65,0,0,1-12.65-12.65V395.1a0,0,0,0,1,0,0Z" transform="translate(-80.27 718.75) rotate(-81.79)"/><path class="cls-2" d="M180.24,334.36,168,419.2a5,5,0,0,1-9.9-1.43l12.24-84.84a5,5,0,1,1,9.89,1.43Z"/><path class="cls-2" d="M330.62,370.64l-7.78,53.95c-.25,1.74-2.67,2.82-5.4,2.43s-4.75-2.12-4.5-3.86l7.78-54c.25-1.74,2.67-2.83,5.41-2.44S330.87,368.9,330.62,370.64Z"/><path class="cls-2" d="M355.27,387.46l-4.15,28.75c-.13.93-2.45,1.36-5.19,1s-4.84-1.46-4.7-2.39L345.37,386c.14-.93,2.46-1.36,5.19-1S355.4,386.53,355.27,387.46Z"/><path class="cls-2" d="M302.16,351.81l-12.24,84.84a5,5,0,1,1-9.89-1.42l12.23-84.85a5,5,0,0,1,9.9,1.43Z"/><path class="cls-1" d="M80.88,359.91h100a0,0,0,0,1,0,0v8.59a12.65,12.65,0,0,1-12.65,12.65H93.53a12.65,12.65,0,0,1-12.65-12.65v-8.59a0,0,0,0,1,0,0Z" transform="matrix(-0.14, 0.99, -0.99, -0.14, 516.28, 293.91)"/><ellipse class="cls-4" cx="71.13" cy="361.79" rx="123.39" ry="30.32" transform="translate(-297.11 380.54) rotate(-81.79)"/><path class="cls-1" d="M101.14,366.11c-9.73,67.45-31,120.19-47.63,117.8,27.87,4,63.63-46.64,73.36-114.08S116.61,243.68,88.74,239.66C105.32,242.05,110.87,298.67,101.14,366.11Z"/><path class="cls-2" d="M84.66,363.74A5,5,0,0,1,79,368l-62.15-9a5,5,0,0,1,1.43-9.9l62.15,9A5,5,0,0,1,84.66,363.74Z"/><circle class="cls-3" cx="15.13" cy="353.71" r="15.13" transform="translate(-208.83 79.52) rotate(-36.79)"/></g></g></svg>