<?xml version="1.0" encoding="UTF-8"?>
<svg width="1185px" height="101px" viewBox="0 0 1185 101" version="1.1" xmlns="http://www.w3.org/2000/svg" xmlns:xlink="http://www.w3.org/1999/xlink">
    <!-- Generator: Sketch 58 (84663) - https://sketch.com -->
    <title>CP-logo</title>
    <desc>Created with Sketch.</desc>
    <defs>
        <polygon id="path-1" points="0.06 0 76.628 0 76.628 99.94 0.06 99.94"></polygon>
        <polygon id="path-3" points="0.383 0 157.883 0 157.883 99.94 0.383 99.94"></polygon>
    </defs>
    <g id="Page-1" stroke="none" stroke-width="1" fill="none" fill-rule="evenodd">
        <g id="Connection-Point-Logo">
            <g id="CP-logo" transform="translate(0.000000, 0.260000)">
                <g id="Group-2" transform="translate(0.000000, 0.740000)">
                    <g id="Group-3">
                        <mask id="mask-2" fill="white">
                            <use xlink:href="#path-1"></use>
                        </mask>
                        <g id="Clip-2"></g>
                        <path d="M49.883,90 C27.792,90 9.883,72.092 9.883,50 C9.883,27.909 27.792,10 49.883,10 C57.314,10 64.267,12.034 70.23,15.564 C72.146,12.76 74.282,10.118 76.628,7.677 C68.917,2.815 59.788,0 50,0 C22.386,0 0,22.386 0,50 C0,77.614 22.386,100 50,100 C53.282,100 56.49,99.68 59.596,99.077 L59.596,88.807 C56.485,89.583 53.234,90 49.883,90" id="Fill-1" fill="#6D6CA3" mask="url(#mask-2)"></path>
                    </g>
                    <path d="M50,34.849 C54.107,34.849 57.83,36.485 60.559,39.139 C61.19,35.622 62.126,32.211 63.333,28.932 C59.448,26.446 54.836,25 49.883,25 C36.076,25 24.883,36.193 24.883,50 C24.883,63.807 36.076,75 49.883,75 C53.328,75 56.61,74.304 59.596,73.043 L59.596,61.724 C56.983,63.866 53.642,65.152 50,65.152 C41.632,65.152 34.849,58.368 34.849,50 C34.849,41.633 41.632,34.849 50,34.849" id="Fill-4" fill="#6D6CA3"></path>
                    <g id="Group-8" transform="translate(12.000000, 0.000000)">
                        <mask id="mask-4" fill="white">
                            <use xlink:href="#path-3"></use>
                        </mask>
                        <g id="Clip-6"></g>
                        <path d="M37.883,77.5 C22.695,77.5 10.383,65.188 10.383,50 C10.383,34.812 22.695,22.5 37.883,22.5 C43.154,22.5 48.076,23.985 52.261,26.557 C53.553,23.454 55.094,20.479 56.858,17.658 C51.29,14.386 44.809,12.5 37.883,12.5 C17.172,12.5 0.383,29.29 0.383,50 C0.383,70.711 17.172,87.5 37.883,87.5 C41.243,87.5 44.497,87.052 47.596,86.223 L47.596,75.73 C44.575,76.871 41.303,77.5 37.883,77.5" id="Fill-5" fill="#6D6CA3" mask="url(#mask-4)"></path>
                        <path d="M107.883,0 C96.058,0 85.194,4.108 76.633,10.972 C79.002,13.324 81.154,15.892 83.067,18.641 C89.887,13.236 98.505,10 107.883,10 C129.975,10 147.883,27.909 147.883,50 C147.883,72.092 129.975,90 107.883,90 C98.505,90 89.887,86.765 83.067,81.359 C81.154,84.108 79.002,86.677 76.633,89.029 C85.194,95.892 96.058,100 107.883,100 C135.497,100 157.883,77.614 157.883,50 C157.883,22.386 135.497,0 107.883,0" id="Fill-7" fill="#504E77" mask="url(#mask-4)"></path>
                    </g>
                    <path d="M119.883,12.5 C111.015,12.5 102.871,15.586 96.451,20.732 C98.274,23.627 99.828,26.706 101.093,29.93 C106.01,25.325 112.615,22.5 119.883,22.5 C135.071,22.5 147.383,34.812 147.383,50 C147.383,65.188 135.071,77.5 119.883,77.5 C112.615,77.5 106.01,74.676 101.093,70.071 C99.827,73.295 98.274,76.374 96.451,79.268 C102.871,84.415 111.015,87.5 119.883,87.5 C140.594,87.5 157.383,70.711 157.383,50 C157.383,29.29 140.594,12.5 119.883,12.5" id="Fill-9" fill="#504E77"></path>
                    <path d="M119.883,75 C133.691,75 144.883,63.807 144.883,50 C144.883,36.193 133.691,25 119.883,25 C112.891,25 106.571,27.874 102.034,32.502 C103.88,37.999 104.883,43.882 104.883,50 C104.883,41.716 111.599,35 119.883,35 C128.167,35 134.883,41.716 134.883,50 C134.883,58.285 128.167,65 119.883,65 C111.599,65 104.883,58.285 104.883,50 C104.883,56.119 103.88,62.002 102.034,67.499 C106.571,72.126 112.891,75 119.883,75" id="Fill-10" fill="#504E77"></path>
                    <path d="M75.38,50.092 L75.386,50.092 C75.385,50.061 75.383,50.031 75.383,50 C75.383,37.959 80.711,27.169 89.13,19.836 C88.735,19.322 88.329,18.816 87.915,18.318 C87.875,18.271 87.835,18.224 87.795,18.177 C87.556,17.892 87.315,17.611 87.069,17.333 C87.016,17.272 86.962,17.212 86.908,17.15 C86.672,16.885 86.433,16.621 86.191,16.36 C86.134,16.299 86.077,16.238 86.021,16.177 C85.772,15.911 85.52,15.648 85.266,15.389 C85.218,15.339 85.17,15.29 85.121,15.241 C84.841,14.957 84.558,14.676 84.271,14.399 C84.248,14.377 84.226,14.355 84.203,14.333 C83.242,13.408 82.244,12.521 81.21,11.676 C81.21,11.675 81.21,11.675 81.209,11.675 C71.458,21.514 65.433,35.053 65.433,50 L65.383,50 L65.383,97.021 C68.908,95.86 72.255,94.307 75.38,92.425 L75.38,50.092" id="Fill-11" fill="#504E77"></path>
                    <path d="M87.882,50.092 L87.886,50.092 C87.884,50.061 87.883,50.031 87.883,50 C87.883,42.595 90.816,35.879 95.575,30.934 C95.567,30.912 95.558,30.89 95.548,30.867 C95.206,30.053 94.844,29.248 94.46,28.456 C94.449,28.433 94.439,28.412 94.428,28.391 C94.249,28.023 94.067,27.66 93.88,27.299 C93.836,27.215 93.791,27.132 93.748,27.049 C93.59,26.748 93.431,26.45 93.268,26.153 C93.212,26.053 93.155,25.953 93.1,25.852 C92.943,25.572 92.783,25.293 92.621,25.016 C92.562,24.915 92.502,24.813 92.442,24.713 C92.276,24.433 92.107,24.156 91.935,23.881 C91.878,23.79 91.821,23.698 91.764,23.607 C91.578,23.313 91.39,23.022 91.198,22.733 C91.152,22.664 91.108,22.594 91.061,22.524 C90.912,22.303 90.759,22.083 90.607,21.863 C82.809,28.734 77.883,38.79 77.883,50 C77.883,50.039 77.886,50.076 77.886,50.115 L77.883,50.115 L77.883,90.813 C81.618,88.246 84.982,85.178 87.882,81.709 L87.882,50.092" id="Fill-12" fill="#504E77"></path>
                    <path d="M99.347,48.189 C99.336,47.884 99.323,47.578 99.308,47.274 C99.298,47.099 99.285,46.926 99.275,46.752 C99.256,46.474 99.237,46.197 99.215,45.921 C99.2,45.739 99.183,45.558 99.166,45.377 C99.142,45.107 99.114,44.839 99.085,44.571 C99.066,44.391 99.045,44.21 99.024,44.029 C98.991,43.76 98.956,43.49 98.919,43.222 C98.896,43.048 98.872,42.874 98.846,42.701 C98.805,42.418 98.759,42.136 98.712,41.854 C98.687,41.699 98.662,41.543 98.635,41.388 C98.577,41.057 98.514,40.729 98.449,40.401 C98.429,40.298 98.411,40.192 98.39,40.088 C98.301,39.651 98.207,39.217 98.107,38.785 C98.095,38.734 98.081,38.683 98.07,38.633 C97.981,38.256 97.889,37.88 97.791,37.506 C97.758,37.378 97.722,37.251 97.688,37.123 C97.609,36.827 97.527,36.531 97.443,36.237 C97.4,36.091 97.356,35.944 97.312,35.798 C97.23,35.523 97.146,35.249 97.059,34.976 C97.012,34.827 96.963,34.678 96.914,34.529 C96.824,34.258 96.733,33.987 96.639,33.718 C96.618,33.658 96.597,33.599 96.576,33.539 C92.724,37.937 90.383,43.694 90.383,50 C90.383,50.051 90.387,50.099 90.387,50.15 L90.384,50.15 L90.384,78.456 C96.053,70.408 99.383,60.595 99.383,50 C99.383,49.543 99.376,49.088 99.363,48.634 C99.36,48.485 99.352,48.338 99.347,48.189" id="Fill-13" fill="#504E77"></path>
                </g>
                <g id="Group" transform="translate(207.002000, 0.000000)">
                    <path d="M70.218,24.656 C63.249,17.286 56.818,15.276 50.251,15.276 C30.687,15.276 17.689,30.285 17.689,49.178 C17.689,69.413 30.687,84.422 50.251,84.422 C57.89,84.422 65.26,80.937 71.558,72.897 L85.494,82.813 C76.918,94.606 64.054,99.698 50.117,99.698 C20.904,99.698 0,79.866 0,50.251 C0,19.833 20.904,0 50.117,0 C62.982,0 73.97,4.154 83.35,15.008 L70.218,24.656" id="Fill-15" fill="#353736"></path>
                    <path d="M124.138,84.422 C135.931,84.422 143.032,75.175 143.032,65.126 C143.032,55.075 135.931,45.829 124.138,45.829 C112.346,45.829 105.244,55.075 105.244,65.126 C105.244,75.175 112.346,84.422 124.138,84.422 Z M124.138,31.356 C143.568,31.356 159.113,44.89 159.113,65.126 C159.113,85.36 143.568,98.894 124.138,98.894 C104.708,98.894 89.163,85.36 89.163,65.126 C89.163,44.89 104.708,31.356 124.138,31.356 L124.138,31.356 Z" id="Fill-17" fill="#353736"></path>
                    <path d="M169.293,32.964 L184.569,32.964 L184.569,43.283 L184.837,43.283 C187.785,36.85 193.816,31.356 204.536,31.356 C221.822,31.356 227.986,43.55 227.986,56.683 L227.986,97.286 L211.906,97.286 L211.906,64.723 C211.906,57.621 211.37,45.829 200.113,45.829 C189.527,45.829 185.373,53.601 185.373,62.177 L185.373,97.286 L169.293,97.286 L169.293,32.964" id="Fill-18" fill="#353736"></path>
                    <path d="M241.652,32.964 L256.929,32.964 L256.929,43.283 L257.196,43.283 C260.145,36.85 266.175,31.356 276.895,31.356 C294.181,31.356 300.345,43.55 300.345,56.683 L300.345,97.286 L284.265,97.286 L284.265,64.723 C284.265,57.621 283.729,45.829 272.473,45.829 C261.887,45.829 257.733,53.601 257.733,62.177 L257.733,97.286 L241.652,97.286 L241.652,32.964" id="Fill-19" fill="#353736"></path>
                    <path d="M359.303,58.693 C359.169,49.313 353.005,43.417 342.955,43.417 C333.441,43.417 327.545,49.447 326.339,58.693 L359.303,58.693 Z M326.339,70.754 C327.41,80.267 334.647,86.03 343.625,86.03 C351.665,86.03 356.891,82.278 360.911,77.319 L372.436,86.03 C364.932,95.276 355.417,98.894 345.233,98.894 C325.803,98.894 310.258,85.36 310.258,65.126 C310.258,44.89 325.803,31.356 345.233,31.356 C363.19,31.356 375.384,43.953 375.384,66.331 L375.384,70.754 L326.339,70.754 L326.339,70.754 Z" id="Fill-20" fill="#353736"></path>
                    <path d="M430.858,52.26 C427.106,48.375 422.951,45.829 418.663,45.829 C406.871,45.829 399.77,55.075 399.77,65.126 C399.77,75.175 406.871,84.422 418.663,84.422 C423.622,84.422 428.178,82.278 431.126,78.391 L441.846,89.916 C435.28,96.482 424.292,98.894 418.663,98.894 C399.234,98.894 383.689,85.36 383.689,65.126 C383.689,44.89 399.234,31.356 418.663,31.356 C426.838,31.356 435.816,34.304 441.981,41.138 L430.858,52.26" id="Fill-21" fill="#353736"></path>
                    <path d="M446.802,46.632 L446.802,32.964 L460.068,32.964 L460.068,14.339 L476.149,14.339 L476.149,32.964 L493.837,32.964 L493.837,46.632 L476.149,46.632 L476.149,74.773 C476.149,81.206 478.025,85.225 485.127,85.225 C487.942,85.225 491.827,84.689 493.837,83.215 L493.837,96.75 C490.487,98.358 484.859,98.894 481.107,98.894 C464.089,98.894 460.068,91.256 460.068,76.113 L460.068,46.632 L446.802,46.632" id="Fill-22" fill="#353736"></path>
                    <path d="M504.422,97.285 L520.502,97.285 L520.502,32.964 L504.422,32.964 L504.422,97.285 Z M512.327,1.474 C518.224,1.474 522.78,5.628 522.78,11.122 C522.78,16.616 518.224,20.77 512.327,20.77 C506.432,20.77 502.144,16.214 502.144,11.122 C502.144,6.03 506.432,1.474 512.327,1.474 L512.327,1.474 Z" id="Fill-23" fill="#353736"></path>
                    <path d="M565.391,84.422 C577.184,84.422 584.285,75.175 584.285,65.126 C584.285,55.075 577.184,45.829 565.391,45.829 C553.599,45.829 546.497,55.075 546.497,65.126 C546.497,75.175 553.599,84.422 565.391,84.422 Z M565.391,31.356 C584.821,31.356 600.366,44.89 600.366,65.126 C600.366,85.36 584.821,98.894 565.391,98.894 C545.961,98.894 530.416,85.36 530.416,65.126 C530.416,44.89 545.961,31.356 565.391,31.356 L565.391,31.356 Z" id="Fill-24" fill="#353736"></path>
                    <path d="M610.547,32.964 L625.823,32.964 L625.823,43.283 L626.091,43.283 C629.039,36.85 635.069,31.356 645.789,31.356 C663.075,31.356 669.239,43.55 669.239,56.683 L669.239,97.286 L653.159,97.286 L653.159,64.723 C653.159,57.621 652.623,45.829 641.367,45.829 C630.781,45.829 626.627,53.601 626.627,62.177 L626.627,97.286 L610.547,97.286 L610.547,32.964" id="Fill-25" fill="#353736"></path>
                    <path d="M712.278,43.55 C721.927,43.55 734.389,43.014 734.389,30.15 C734.389,18.492 723.267,16.884 714.154,16.884 L702.095,16.884 L702.095,43.55 L712.278,43.55 Z M685.21,2.412 L717.103,2.412 C735.461,2.412 752.077,8.844 752.077,29.882 C752.077,53.735 734.255,58.023 714.154,58.023 L702.095,58.023 L702.095,97.286 L685.21,97.286 L685.21,2.412 L685.21,2.412 Z" id="Fill-26" fill="#504E77"></path>
                    <path d="M788.39,84.422 C800.178,84.422 807.288,75.175 807.288,65.126 C807.288,55.075 800.178,45.829 788.39,45.829 C776.598,45.829 769.495,55.075 769.495,65.126 C769.495,75.175 776.598,84.422 788.39,84.422 Z M788.39,31.356 C807.818,31.356 823.368,44.89 823.368,65.126 C823.368,85.36 807.818,98.894 788.39,98.894 C768.959,98.894 753.415,85.36 753.415,65.126 C753.415,44.89 768.959,31.356 788.39,31.356 L788.39,31.356 Z" id="Fill-27" fill="#504E77"></path>
                    <path d="M833.548,97.285 L849.628,97.285 L849.628,32.964 L833.548,32.964 L833.548,97.285 Z M841.448,1.474 C847.348,1.474 851.908,5.628 851.908,11.122 C851.908,16.616 847.348,20.77 841.448,20.77 C835.558,20.77 831.268,16.214 831.268,11.122 C831.268,6.03 835.558,1.474 841.448,1.474 L841.448,1.474 Z" id="Fill-28" fill="#504E77"></path>
                    <path d="M864.688,32.964 L879.958,32.964 L879.958,43.283 L880.228,43.283 C883.178,36.85 889.208,31.356 899.928,31.356 C917.218,31.356 923.378,43.55 923.378,56.683 L923.378,97.286 L907.298,97.286 L907.298,64.723 C907.298,57.621 906.758,45.829 895.508,45.829 C884.918,45.829 880.768,53.601 880.768,62.177 L880.768,97.286 L864.688,97.286 L864.688,32.964" id="Fill-29" fill="#504E77"></path>
                    <path d="M930.318,46.632 L930.318,32.964 L943.588,32.964 L943.588,14.339 L959.668,14.339 L959.668,32.964 L977.348,32.964 L977.348,46.632 L959.668,46.632 L959.668,74.773 C959.668,81.206 961.538,85.225 968.638,85.225 C971.458,85.225 975.338,84.689 977.348,83.215 L977.348,96.75 C973.998,98.358 968.378,98.894 964.618,98.894 C947.608,98.894 943.588,91.256 943.588,76.113 L943.588,46.632 L930.318,46.632" id="Fill-30" fill="#504E77"></path>
                </g>
            </g>
        </g>
    </g>
</svg>