<?xml version="1.0" encoding="utf-8"?>
<!-- Generator: Adobe Illustrator 23.1.0, SVG Export Plug-In . SVG Version: 6.00 Build 0)  -->
<svg version="1.1" id="Layer_1" xmlns="http://www.w3.org/2000/svg" xmlns:xlink="http://www.w3.org/1999/xlink" x="0px" y="0px"
	 viewBox="0 0 995 101" style="enable-background:new 0 0 995 101;" xml:space="preserve">
<style type="text/css">
	.st0{fill-rule:evenodd;clip-rule:evenodd;fill:#353736;}
	.st1{fill-rule:evenodd;clip-rule:evenodd;fill:#504E77;}
</style>
<title>CP-logo</title>
<desc>Created with Sketch.</desc>
<g id="Connection-Point-Logo">
	<g id="CP-logo" transform="translate(0.000000, 0.260000)">
		<g id="Group" transform="translate(207.002000, 0.000000)">
			<path id="Fill-15" class="st0" d="M-129.8,25.7c-7-7.4-13.4-9.4-20-9.4c-19.6,0-32.6,15-32.6,33.9c0,20.2,13,35.2,32.6,35.2
				c7.6,0,15-3.5,21.3-11.5l13.9,9.9c-8.6,11.8-21.4,16.9-35.4,16.9c-29.2,0-50.1-19.8-50.1-49.4C-200,20.8-179.1,1-149.9,1
				c12.9,0,23.9,4.2,33.2,15L-129.8,25.7"/>
			<path id="Fill-17" class="st0" d="M-75.9,85.4c11.8,0,18.9-9.2,18.9-19.3c0-10.1-7.1-19.3-18.9-19.3c-11.8,0-18.9,9.2-18.9,19.3
				C-94.8,76.2-87.7,85.4-75.9,85.4z M-75.9,32.4c19.4,0,35,13.5,35,33.8c0,20.2-15.5,33.8-35,33.8s-35-13.5-35-33.8
				C-110.8,45.9-95.3,32.4-75.9,32.4L-75.9,32.4z"/>
			<path id="Fill-18" class="st0" d="M-30.7,34h15.3v10.3h0.3c2.9-6.4,9-11.9,19.7-11.9C21.8,32.4,28,44.5,28,57.7v40.6H11.9V65.7
				c0-7.1-0.5-18.9-11.8-18.9c-10.6,0-14.7,7.8-14.7,16.3v35.1h-16.1V34"/>
			<path id="Fill-19" class="st0" d="M41.7,34h15.3v10.3h0.3c2.9-6.4,9-11.9,19.7-11.9c17.3,0,23.5,12.2,23.5,25.3v40.6H84.3V65.7
				c0-7.1-0.5-18.9-11.8-18.9c-10.6,0-14.7,7.8-14.7,16.3v35.1H41.7V34"/>
			<path id="Fill-20" class="st0" d="M159.3,59.7c-0.1-9.4-6.3-15.3-16.3-15.3c-9.5,0-15.4,6-16.6,15.3H159.3z M126.3,71.8
				c1.1,9.5,8.3,15.3,17.3,15.3c8,0,13.3-3.8,17.3-8.7l11.5,8.7c-7.5,9.2-17,12.9-27.2,12.9c-19.4,0-35-13.5-35-33.8
				c0-20.2,15.5-33.8,35-33.8c18,0,30.2,12.6,30.2,35v4.4H126.3L126.3,71.8z"/>
			<path id="Fill-21" class="st0" d="M230.9,53.3c-3.8-3.9-7.9-6.4-12.2-6.4c-11.8,0-18.9,9.2-18.9,19.3c0,10,7.1,19.3,18.9,19.3
				c5,0,9.5-2.1,12.5-6l10.7,11.5c-6.6,6.6-17.6,9-23.2,9c-19.4,0-35-13.5-35-33.8c0-20.2,15.5-33.8,35-33.8
				c8.2,0,17.2,2.9,23.3,9.8L230.9,53.3"/>
			<path id="Fill-22" class="st0" d="M246.8,47.6V34h13.3V15.3h16.1V34h17.7v13.7h-17.7v28.1c0,6.4,1.9,10.5,9,10.5
				c2.8,0,6.7-0.5,8.7-2v13.5c-3.4,1.6-9,2.1-12.7,2.1c-17,0-21-7.6-21-22.8V47.6H246.8"/>
			<path id="Fill-23" class="st0" d="M304.4,98.3h16.1V34h-16.1V98.3z M312.3,2.5c5.9,0,10.5,4.2,10.5,9.6s-4.6,9.6-10.5,9.6
				c-5.9,0-10.2-4.6-10.2-9.6S306.4,2.5,312.3,2.5L312.3,2.5z"/>
			<path id="Fill-24" class="st0" d="M365.4,85.4c11.8,0,18.9-9.2,18.9-19.3c0-10.1-7.1-19.3-18.9-19.3c-11.8,0-18.9,9.2-18.9,19.3
				C346.5,76.2,353.6,85.4,365.4,85.4z M365.4,32.4c19.4,0,35,13.5,35,33.8c0,20.2-15.5,33.8-35,33.8s-35-13.5-35-33.8
				C330.4,45.9,346,32.4,365.4,32.4L365.4,32.4z"/>
			<path id="Fill-25" class="st0" d="M410.5,34h15.3v10.3h0.3c2.9-6.4,9-11.9,19.7-11.9c17.3,0,23.5,12.2,23.5,25.3v40.6h-16.1V65.7
				c0-7.1-0.5-18.9-11.8-18.9c-10.6,0-14.7,7.8-14.7,16.3v35.1h-16.1V34"/>
			<path id="Fill-26" class="st1" d="M512.3,44.5c9.6,0,22.1-0.5,22.1-13.4c0-11.7-11.1-13.3-20.2-13.3h-12.1v26.7H512.3z
				 M485.2,3.4h31.9c18.4,0,35,6.4,35,27.5c0,23.9-17.8,28.1-37.9,28.1h-12.1v39.3h-16.9V3.4L485.2,3.4z"/>
			<path id="Fill-27" class="st1" d="M588.4,85.4c11.8,0,18.9-9.2,18.9-19.3c0-10.1-7.1-19.3-18.9-19.3c-11.8,0-18.9,9.2-18.9,19.3
				C569.5,76.2,576.6,85.4,588.4,85.4z M588.4,32.4c19.4,0,35,13.5,35,33.8c0,20.2-15.5,33.8-35,33.8c-19.4,0-35-13.5-35-33.8
				C553.4,45.9,569,32.4,588.4,32.4L588.4,32.4z"/>
			<path id="Fill-28" class="st1" d="M633.5,98.3h16.1V34h-16.1V98.3z M641.4,2.5c5.9,0,10.5,4.2,10.5,9.6s-4.6,9.6-10.5,9.6
				c-5.9,0-10.2-4.6-10.2-9.6S635.6,2.5,641.4,2.5L641.4,2.5z"/>
			<path id="Fill-29" class="st1" d="M664.7,34H680v10.3h0.3c2.9-6.4,9-11.9,19.7-11.9c17.3,0,23.5,12.2,23.5,25.3v40.6h-16.1V65.7
				c0-7.1-0.5-18.9-11.8-18.9c-10.6,0-14.7,7.8-14.7,16.3v35.1h-16.1V34"/>
			<path id="Fill-30" class="st1" d="M730.3,47.6V34h13.3V15.3h16.1V34h17.7v13.7h-17.7v28.1c0,6.4,1.9,10.5,9,10.5
				c2.8,0,6.7-0.5,8.7-2v13.5c-3.4,1.6-9,2.1-12.7,2.1c-17,0-21-7.6-21-22.8V47.6H730.3"/>
		</g>
	</g>
</g>
</svg>
