<svg xmlns="http://www.w3.org/2000/svg" viewBox="0 0 116.47 8.77"><defs><style>.cls-1{fill:#fff;}</style></defs><title>CP-CRM-logo_1</title><g id="Layer_2" data-name="Layer 2"><g id="Layer_1-2" data-name="Layer 1"><path class="cls-1" d="M6.57,6A3.17,3.17,0,0,1,5.57,8a3.28,3.28,0,0,1-2.24.73A3,3,0,0,1,.91,7.69,4.36,4.36,0,0,1,0,4.79V4A4.87,4.87,0,0,1,.42,1.88,3.18,3.18,0,0,1,1.63.49,3.36,3.36,0,0,1,3.43,0,3.09,3.09,0,0,1,5.61.76a3.19,3.19,0,0,1,1,2.11H5.44A2.46,2.46,0,0,0,4.8,1.38,1.93,1.93,0,0,0,3.43.93a2,2,0,0,0-1.69.79A3.65,3.65,0,0,0,1.13,4v.83A3.74,3.74,0,0,0,1.71,7a1.87,1.87,0,0,0,1.62.82,2.17,2.17,0,0,0,1.44-.42A2.36,2.36,0,0,0,5.44,6Z"/><path class="cls-1" d="M7.65,5.43A3.8,3.8,0,0,1,8,3.75,2.68,2.68,0,0,1,10.52,2.2a2.71,2.71,0,0,1,2.1.89,3.49,3.49,0,0,1,.8,2.39v.07a3.76,3.76,0,0,1-.36,1.67,2.61,2.61,0,0,1-1,1.14,2.82,2.82,0,0,1-1.51.41,2.68,2.68,0,0,1-2.09-.89,3.41,3.41,0,0,1-.8-2.38Zm1.09.12a2.7,2.7,0,0,0,.49,1.7,1.65,1.65,0,0,0,2.62,0,3,3,0,0,0,.48-1.81,2.69,2.69,0,0,0-.49-1.69,1.64,1.64,0,0,0-2.61,0A2.9,2.9,0,0,0,8.74,5.55Z"/><path class="cls-1" d="M15.8,2.31l0,.8a2.3,2.3,0,0,1,1.9-.91c1.34,0,2,.75,2,2.26V8.65H18.68V4.46a1.43,1.43,0,0,0-.31-1,1.27,1.27,0,0,0-1-.33,1.57,1.57,0,0,0-.93.28,2,2,0,0,0-.62.74V8.65H14.78V2.31Z"/><path class="cls-1" d="M22.42,2.31l0,.8a2.3,2.3,0,0,1,1.9-.91c1.34,0,2,.75,2,2.26V8.65H25.3V4.46a1.43,1.43,0,0,0-.31-1,1.27,1.27,0,0,0-1-.33,1.57,1.57,0,0,0-.93.28,2,2,0,0,0-.62.74V8.65H21.4V2.31Z"/><path class="cls-1" d="M30.65,8.77a2.76,2.76,0,0,1-2.1-.85,3.11,3.11,0,0,1-.81-2.26v-.2a3.77,3.77,0,0,1,.36-1.68,2.79,2.79,0,0,1,1-1.16,2.53,2.53,0,0,1,1.41-.42A2.39,2.39,0,0,1,32.44,3a3.56,3.56,0,0,1,.68,2.33v.45H28.83a2.24,2.24,0,0,0,.55,1.52,1.73,1.73,0,0,0,1.33.58,1.84,1.84,0,0,0,1-.24,2.29,2.29,0,0,0,.7-.62l.66.52A2.67,2.67,0,0,1,30.65,8.77Zm-.13-5.68a1.46,1.46,0,0,0-1.11.48,2.32,2.32,0,0,0-.55,1.33H32V4.82a2,2,0,0,0-.45-1.28A1.35,1.35,0,0,0,30.52,3.09Z"/><path class="cls-1" d="M36.92,7.89a1.57,1.57,0,0,0,1-.35,1.24,1.24,0,0,0,.48-.88h1a1.94,1.94,0,0,1-.38,1,2.45,2.45,0,0,1-.92.79,2.71,2.71,0,0,1-1.22.29,2.63,2.63,0,0,1-2.06-.86,3.46,3.46,0,0,1-.76-2.37V5.36a3.8,3.8,0,0,1,.34-1.65,2.51,2.51,0,0,1,1-1.11,2.73,2.73,0,0,1,1.5-.4,2.54,2.54,0,0,1,1.78.64,2.25,2.25,0,0,1,.75,1.65h-1a1.49,1.49,0,0,0-.46-1,1.48,1.48,0,0,0-1-.39,1.54,1.54,0,0,0-1.28.59,2.82,2.82,0,0,0-.45,1.72v.21a2.71,2.71,0,0,0,.45,1.68A1.52,1.52,0,0,0,36.92,7.89Z"/><path class="cls-1" d="M42.13.78V2.31h1.18v.84H42.13V7.09a.86.86,0,0,0,.16.57.64.64,0,0,0,.54.19,2.41,2.41,0,0,0,.51-.07v.88a3.44,3.44,0,0,1-.83.11,1.38,1.38,0,0,1-1.1-.44A1.92,1.92,0,0,1,41,7.08V3.15H39.89V2.31H41V.78Z"/><path class="cls-1" d="M44.58.63a.64.64,0,0,1,.17-.44A.58.58,0,0,1,45.22,0a.62.62,0,0,1,.48.18.64.64,0,0,1,.17.44.6.6,0,0,1-.17.44.62.62,0,0,1-.48.18.58.58,0,0,1-.47-.18A.6.6,0,0,1,44.58.63Zm1.18,8H44.67V2.31h1.09Z"/><path class="cls-1" d="M47.2,5.43a3.81,3.81,0,0,1,.37-1.68,2.66,2.66,0,0,1,1-1.15,2.75,2.75,0,0,1,1.49-.4,2.68,2.68,0,0,1,2.09.89A3.44,3.44,0,0,1,53,5.48v.07a3.76,3.76,0,0,1-.35,1.67,2.67,2.67,0,0,1-1,1.14,2.86,2.86,0,0,1-1.52.41A2.7,2.7,0,0,1,48,7.88a3.46,3.46,0,0,1-.8-2.38Zm1.09.12a2.77,2.77,0,0,0,.49,1.7,1.58,1.58,0,0,0,1.31.64,1.55,1.55,0,0,0,1.31-.65,2.93,2.93,0,0,0,.49-1.81,2.69,2.69,0,0,0-.49-1.69,1.56,1.56,0,0,0-1.32-.65,1.52,1.52,0,0,0-1.29.64A2.9,2.9,0,0,0,48.29,5.55Z"/><path class="cls-1" d="M55.36,2.31l0,.8a2.32,2.32,0,0,1,1.9-.91c1.34,0,2,.75,2,2.26V8.65H58.24V4.46a1.43,1.43,0,0,0-.32-1,1.24,1.24,0,0,0-1-.33A1.52,1.52,0,0,0,56,3.4a1.87,1.87,0,0,0-.62.74V8.65H54.33V2.31Z"/><path class="cls-1" d="M62.25,5.31V8.65H61.12V.12h3.15a3.15,3.15,0,0,1,2.2.72,2.41,2.41,0,0,1,.79,1.89,2.37,2.37,0,0,1-.78,1.91,3.27,3.27,0,0,1-2.22.67Zm0-.92h2A2,2,0,0,0,65.65,4a1.55,1.55,0,0,0,.48-1.23,1.6,1.6,0,0,0-.48-1.22A1.86,1.86,0,0,0,64.34,1H62.25Z"/><path class="cls-1" d="M68.16,5.43a3.67,3.67,0,0,1,.37-1.68,2.66,2.66,0,0,1,1-1.15A2.75,2.75,0,0,1,71,2.2a2.68,2.68,0,0,1,2.09.89,3.44,3.44,0,0,1,.8,2.39v.07a3.76,3.76,0,0,1-.35,1.67,2.74,2.74,0,0,1-1,1.14,2.86,2.86,0,0,1-1.52.41A2.7,2.7,0,0,1,69,7.88a3.46,3.46,0,0,1-.8-2.38Zm1.09.12a2.77,2.77,0,0,0,.49,1.7,1.58,1.58,0,0,0,1.31.64,1.55,1.55,0,0,0,1.31-.65,2.93,2.93,0,0,0,.49-1.81,2.7,2.7,0,0,0-.5-1.69,1.64,1.64,0,0,0-2.61,0A3,3,0,0,0,69.25,5.55Z"/><path class="cls-1" d="M75.3.63a.63.63,0,0,1,.16-.44.73.73,0,0,1,1,0,.63.63,0,0,1,.16.44.6.6,0,0,1-.16.44.73.73,0,0,1-1,0A.6.6,0,0,1,75.3.63Zm1.17,8H75.39V2.31h1.08Z"/><path class="cls-1" d="M79.23,2.31l0,.8a2.29,2.29,0,0,1,1.89-.91c1.34,0,2,.75,2,2.26V8.65H82.11V4.46a1.43,1.43,0,0,0-.32-1,1.23,1.23,0,0,0-1-.33,1.55,1.55,0,0,0-.93.28,1.87,1.87,0,0,0-.62.74V8.65H78.21V2.31Z"/><path class="cls-1" d="M86.3.78V2.31h1.18v.84H86.3V7.09a.86.86,0,0,0,.16.57.63.63,0,0,0,.53.19,2.41,2.41,0,0,0,.52-.07v.88a3.51,3.51,0,0,1-.83.11,1.37,1.37,0,0,1-1.1-.44,1.92,1.92,0,0,1-.37-1.25V3.15H84.06V2.31h1.15V.78Z"/><path class="cls-1" d="M98.46,5.77A3.08,3.08,0,0,1,98.17,7a2.89,2.89,0,0,1-.71,1,3.26,3.26,0,0,1-1.1.61,4.25,4.25,0,0,1-1.43.22,3.65,3.65,0,0,1-1.52-.29,3,3,0,0,1-1.14-.82,3.59,3.59,0,0,1-.71-1.31,5.79,5.79,0,0,1-.24-1.73V4.16a5.48,5.48,0,0,1,.25-1.73,3.87,3.87,0,0,1,.73-1.31A3.1,3.1,0,0,1,93.43.29,3.76,3.76,0,0,1,94.91,0a4.4,4.4,0,0,1,1.47.23,3.34,3.34,0,0,1,1.09.64,3,3,0,0,1,.7,1,3.71,3.71,0,0,1,.31,1.22h-2a2.31,2.31,0,0,0-.1-.63A1,1,0,0,0,96.06,2a1.1,1.1,0,0,0-.46-.27,2,2,0,0,0-.69-.1,1.53,1.53,0,0,0-.66.14,1.13,1.13,0,0,0-.47.45A2.14,2.14,0,0,0,93.5,3a6.43,6.43,0,0,0-.09,1.16v.47a7.53,7.53,0,0,0,.08,1.16,2.44,2.44,0,0,0,.26.79,1.07,1.07,0,0,0,.47.45,1.7,1.7,0,0,0,.71.14A1.6,1.6,0,0,0,96,6.83a1.45,1.45,0,0,0,.4-1.06Z"/><path class="cls-1" d="M102.6,5.64h-1.11v3H99.43V.12h3.36a5.06,5.06,0,0,1,1.34.17,3,3,0,0,1,1,.49,2.2,2.2,0,0,1,.64.81A2.59,2.59,0,0,1,106,2.7a3.36,3.36,0,0,1-.11.88,2.28,2.28,0,0,1-.3.67,2.23,2.23,0,0,1-.47.5,3.13,3.13,0,0,1-.61.38l1.78,3.44v.08h-2.2Zm-1.11-1.59h1.3a1.17,1.17,0,0,0,.88-.3,1.18,1.18,0,0,0,.3-.86,1.21,1.21,0,0,0-.3-.87,1.19,1.19,0,0,0-.88-.31h-1.3Z"/><path class="cls-1" d="M110,.12l1.91,5.94,1.9-5.94h2.7V8.65h-2.06v-2l.2-4.08-2.06,6.07h-1.36l-2.07-6.07.2,4.08v2h-2.06V.12Z"/></g></g></svg>