<svg xmlns="http://www.w3.org/2000/svg" viewBox="0 0 87.51 8.77"><defs><style>.cls-1{fill:#fff;}</style></defs><title>CP-logo_1</title><g id="Layer_2" data-name="Layer 2"><g id="Layer_1-2" data-name="Layer 1"><path class="cls-1" d="M6.57,5.94A3.17,3.17,0,0,1,5.57,8a3.29,3.29,0,0,1-2.24.74A3,3,0,0,1,.91,7.68,4.34,4.34,0,0,1,0,4.78V4A4.9,4.9,0,0,1,.42,1.87,3.29,3.29,0,0,1,1.63.48,3.36,3.36,0,0,1,3.43,0,3,3,0,0,1,5.61.76a3.14,3.14,0,0,1,1,2.1H5.44A2.43,2.43,0,0,0,4.8,1.38,1.89,1.89,0,0,0,3.43.92a2,2,0,0,0-1.69.8A3.65,3.65,0,0,0,1.13,4v.82A3.71,3.71,0,0,0,1.71,7a1.88,1.88,0,0,0,1.62.83,2.17,2.17,0,0,0,1.44-.43,2.33,2.33,0,0,0,.67-1.48Z"/><path class="cls-1" d="M7.65,5.42A3.83,3.83,0,0,1,8,3.74,2.83,2.83,0,0,1,9,2.6a2.78,2.78,0,0,1,1.49-.41,2.68,2.68,0,0,1,2.1.9,3.46,3.46,0,0,1,.8,2.38v.08a3.71,3.71,0,0,1-.36,1.66,2.69,2.69,0,0,1-1,1.15,2.82,2.82,0,0,1-1.51.41,2.66,2.66,0,0,1-2.09-.9,3.4,3.4,0,0,1-.8-2.37Zm1.09.13a2.67,2.67,0,0,0,.49,1.69,1.55,1.55,0,0,0,1.31.64,1.54,1.54,0,0,0,1.31-.65,3,3,0,0,0,.48-1.81,2.69,2.69,0,0,0-.49-1.69,1.58,1.58,0,0,0-1.32-.65,1.55,1.55,0,0,0-1.29.64A3,3,0,0,0,8.74,5.55Z"/><path class="cls-1" d="M15.8,2.31l0,.8a2.31,2.31,0,0,1,1.9-.92c1.34,0,2,.76,2,2.27V8.65H18.68V4.45a1.47,1.47,0,0,0-.31-1,1.27,1.27,0,0,0-1-.33,1.65,1.65,0,0,0-.93.28,2,2,0,0,0-.62.74V8.65H14.78V2.31Z"/><path class="cls-1" d="M22.42,2.31l0,.8a2.31,2.31,0,0,1,1.9-.92c1.34,0,2,.76,2,2.27V8.65H25.3V4.45a1.47,1.47,0,0,0-.31-1,1.27,1.27,0,0,0-1-.33,1.65,1.65,0,0,0-.93.28,2,2,0,0,0-.62.74V8.65H21.4V2.31Z"/><path class="cls-1" d="M30.65,8.77a2.79,2.79,0,0,1-2.1-.85,3.15,3.15,0,0,1-.81-2.27V5.46a3.82,3.82,0,0,1,.36-1.69,2.86,2.86,0,0,1,1-1.16,2.53,2.53,0,0,1,1.41-.42A2.36,2.36,0,0,1,32.44,3a3.56,3.56,0,0,1,.68,2.33v.45H28.83a2.21,2.21,0,0,0,.55,1.51,1.7,1.7,0,0,0,1.33.58,1.93,1.93,0,0,0,1-.23,2.58,2.58,0,0,0,.7-.62l.66.51A2.66,2.66,0,0,1,30.65,8.77Zm-.13-5.69a1.46,1.46,0,0,0-1.11.48,2.36,2.36,0,0,0-.55,1.34H32V4.82a2,2,0,0,0-.45-1.28A1.32,1.32,0,0,0,30.52,3.08Z"/><path class="cls-1" d="M36.92,7.88a1.57,1.57,0,0,0,1-.35,1.24,1.24,0,0,0,.48-.88h1a2,2,0,0,1-.38,1,2.34,2.34,0,0,1-.92.78,2.78,2.78,0,0,1-3.28-.57,3.42,3.42,0,0,1-.76-2.36V5.36a3.77,3.77,0,0,1,.34-1.65,2.59,2.59,0,0,1,1-1.12,2.73,2.73,0,0,1,1.5-.4,2.54,2.54,0,0,1,1.78.64,2.29,2.29,0,0,1,.75,1.66h-1a1.47,1.47,0,0,0-.46-1,1.44,1.44,0,0,0-1-.4,1.52,1.52,0,0,0-1.28.6,2.8,2.8,0,0,0-.45,1.72v.2a2.76,2.76,0,0,0,.45,1.69A1.53,1.53,0,0,0,36.92,7.88Z"/><path class="cls-1" d="M42.13.77V2.31h1.18v.84H42.13V7.08a.87.87,0,0,0,.16.58.68.68,0,0,0,.54.19,3.32,3.32,0,0,0,.51-.07v.87a3,3,0,0,1-.83.12,1.38,1.38,0,0,1-1.1-.44A1.94,1.94,0,0,1,41,7.08V3.15H39.89V2.31H41V.77Z"/><path class="cls-1" d="M44.58.63a.64.64,0,0,1,.17-.45A.58.58,0,0,1,45.22,0a.62.62,0,0,1,.48.18.64.64,0,0,1,.17.45.64.64,0,0,1-.17.44.65.65,0,0,1-.48.17.61.61,0,0,1-.47-.17A.64.64,0,0,1,44.58.63Zm1.18,8H44.67V2.31h1.09Z"/><path class="cls-1" d="M47.2,5.42a3.84,3.84,0,0,1,.37-1.68,2.69,2.69,0,0,1,1-1.14,2.75,2.75,0,0,1,1.49-.41,2.66,2.66,0,0,1,2.09.9A3.41,3.41,0,0,1,53,5.47v.08a3.71,3.71,0,0,1-.35,1.66,2.76,2.76,0,0,1-1,1.15,2.86,2.86,0,0,1-1.52.41A2.67,2.67,0,0,1,48,7.87a3.45,3.45,0,0,1-.8-2.37Zm1.09.13a2.74,2.74,0,0,0,.49,1.69,1.56,1.56,0,0,0,1.31.64,1.53,1.53,0,0,0,1.31-.65,2.91,2.91,0,0,0,.49-1.81,2.69,2.69,0,0,0-.49-1.69,1.58,1.58,0,0,0-1.32-.65,1.52,1.52,0,0,0-1.29.64A3,3,0,0,0,48.29,5.55Z"/><path class="cls-1" d="M55.36,2.31l0,.8a2.33,2.33,0,0,1,1.9-.92c1.34,0,2,.76,2,2.27V8.65H58.24V4.45a1.47,1.47,0,0,0-.32-1,1.24,1.24,0,0,0-1-.33,1.59,1.59,0,0,0-.92.28,1.94,1.94,0,0,0-.62.74V8.65H54.33V2.31Z"/><path class="cls-1" d="M62.25,5.31V8.65H61.12V.12h3.15a3.2,3.2,0,0,1,2.2.71,2.43,2.43,0,0,1,.79,1.89,2.4,2.4,0,0,1-.78,1.92,3.33,3.33,0,0,1-2.22.67Zm0-.92h2A2,2,0,0,0,65.65,4a1.55,1.55,0,0,0,.48-1.23,1.61,1.61,0,0,0-.48-1.22A1.9,1.9,0,0,0,64.34,1H62.25Z"/><path class="cls-1" d="M68.16,5.42a3.7,3.7,0,0,1,.37-1.68,2.69,2.69,0,0,1,1-1.14A2.75,2.75,0,0,1,71,2.19a2.66,2.66,0,0,1,2.09.9,3.41,3.41,0,0,1,.8,2.38v.08a3.71,3.71,0,0,1-.35,1.66,2.83,2.83,0,0,1-1,1.15,2.86,2.86,0,0,1-1.52.41A2.67,2.67,0,0,1,69,7.87a3.45,3.45,0,0,1-.8-2.37Zm1.09.13a2.74,2.74,0,0,0,.49,1.69,1.56,1.56,0,0,0,1.31.64,1.53,1.53,0,0,0,1.31-.65,2.91,2.91,0,0,0,.49-1.81,2.7,2.7,0,0,0-.5-1.69,1.64,1.64,0,0,0-2.61,0A3,3,0,0,0,69.25,5.55Z"/><path class="cls-1" d="M75.3.63a.64.64,0,0,1,.16-.45.73.73,0,0,1,1,0,.64.64,0,0,1,.16.45.63.63,0,0,1-.16.44.76.76,0,0,1-1,0A.63.63,0,0,1,75.3.63Zm1.17,8H75.39V2.31h1.08Z"/><path class="cls-1" d="M79.23,2.31l0,.8a2.29,2.29,0,0,1,1.89-.92c1.34,0,2,.76,2,2.27V8.65H82.11V4.45a1.47,1.47,0,0,0-.32-1,1.23,1.23,0,0,0-1-.33,1.62,1.62,0,0,0-.93.28,1.94,1.94,0,0,0-.62.74V8.65H78.21V2.31Z"/><path class="cls-1" d="M86.3.77V2.31h1.18v.84H86.3V7.08a.87.87,0,0,0,.16.58.67.67,0,0,0,.53.19,3.27,3.27,0,0,0,.52-.07v.87a3.08,3.08,0,0,1-.83.12,1.37,1.37,0,0,1-1.1-.44,1.94,1.94,0,0,1-.37-1.25V3.15H84.06V2.31h1.15V.77Z"/></g></g></svg>