<?xml version="1.0" encoding="utf-8"?>
<!-- Generator: Adobe Illustrator 22.1.0, SVG Export Plug-In . SVG Version: 6.00 Build 0)  -->
<svg version="1.1" id="more_icon" xmlns="http://www.w3.org/2000/svg" xmlns:xlink="http://www.w3.org/1999/xlink" x="0px" y="0px"
	 viewBox="0 0 259.2 39.6" style="enable-background:new 0 0 259.2 39.6;" xml:space="preserve">
<style type="text/css">
	.st0{fill:#FFFFFF;}
</style>
<title>maximus_logo</title>
<g>
	<path class="st0" d="M52.7,36.6c-0.7-1.2-1-2.6-1.1-4L47.7,4.4c0-1.3,0.4-3,1.8-3.4V0.9h-9.9v0.1c-0.1,1.2-0.4,2.4-0.9,3.5
		l-9.5,24.3L18.4,3.5c-0.4-0.8-0.7-1.7-0.8-2.6V0.9h-10v0.2c2.6,1.4,2,3.7,1.8,5.3l-3.3,24c-0.5,3.1-0.8,5.9-3.2,8v0.2h9.3v-0.1
		c-2.7-1.2-2.3-3.7-1.8-7.2l3.2-24.6l10.9,25.8c1.4,3.2,2.2,4.8,5,6.9L42.4,6.5l3.2,27.6c0,2-0.3,3.7-2.3,4.3v0.2h7"/>
	<path class="st0" d="M50.3,38.6h4.5h6v-0.2c-3-1-2.3-2.5-1-5.8l2.9-7.9h14.4l3.2,7.9c1.6,4,2.3,4.5-0.7,5.8v0.3l16-0.1l-11-0.2
		l1.4-1.8l1.5-1.9c-0.8-1.5-1.4-3-2-4.5L73.6,0.7h-8.9v0.3c3,0.9,1.6,3.3,0.8,5.3l-9.6,23.9c-0.9,2.3-1.7,4.6-3.2,6.3 M64.1,20.2
		l5.7-14.5l5.6,14.5H64.1z"/>
	<path class="st0" d="M87.5,34.7l12.9-16.2l-8.3-12C90.6,4.3,89,2,86.6,0.9h6.7c1.8,0,2.3,0.5,2.9,1.4l8.3,12l5.7-7.7
		c1.4-2,3.4-5-0.5-5.5V0.9h10.5l-13,17l9.2,13.6c1.8,2.8,3.6,5.9,6.9,7.1h-6.6c-1.5,0-2.9-0.7-3.7-2l-9.6-14.4l-8,10.5
		c-1.4,1.8-3.1,4.3,0.4,5.7v0.2l-16,0.1"/>
	<path class="st0" d="M123.8,1.1c2.9,1.1,2.5,5.3,2.5,7.9v21.6c0,2.6,0.3,6.8-2.5,7.8v0.2h10.9v-0.2c-2.9-1.1-2.5-5.3-2.5-7.8V9
		c0-2.6-0.3-6.8,2.5-7.9V0.9h-10.9V1.1z"/>
	<path class="st0" d="M185.3,32.6l-3.8-28.2c0-1.3,0.4-3,1.8-3.4V0.9h-9.9v0.1c-0.1,1.2-0.4,2.4-0.9,3.6L163,28.8L152.2,3.5
		c-0.4-0.8-0.7-1.7-0.8-2.6V0.9h-10v0.2c2.6,1.4,2,3.7,1.8,5.3l-3.3,24c-0.5,3.1-0.8,5.9-3.2,8v0.2h9.3v-0.1
		c-2.7-1.2-2.3-3.7-1.8-7.2l3.3-24.7l10.9,25.8c1.4,3.2,2.2,4.8,5,6.9l12.8-32.8l3.3,27.6c0,2-0.3,3.7-2.3,4.3v0.2h11.1v-0.2
		C185.9,36.8,185.7,35.3,185.3,32.6z"/>
	<path class="st0" d="M222.8,1.1l-0.1-0.2h-10.9v0.2c2.9,1.1,2.5,5.3,2.5,7.9v17.2c0,2.1,0.1,3.5-1.2,5.2c-2,2.6-5.1,4.1-8.4,4
		c-5.9,0-9.1-3.6-9.1-11.2V8.9c0-2.6-0.3-6.8,2.5-7.9V0.9h-10.9v0.2c2.9,1.1,2.5,5.3,2.5,7.9v15.3c0,4.1-0.1,8,2.9,11.3
		c2.6,2.8,6.6,4,10.4,4c4,0,8.7-1.4,11.2-4.7v3.8h8.4v-0.2c-2.9-1.1-2.6-5.3-2.6-7.8V9C220.3,6.3,219.9,2.1,222.8,1.1z"/>
	<path class="st0" d="M232.4,9.3c0-4,4.1-5.2,7.4-5.2c3.4,0,6.6,1.3,9,3.6V1.2C246,0.4,243.1,0,240.2,0c-7,0-14.4,2.8-14.4,10
		c0,12.1,19.7,10.6,19.7,19.5c0,4-4.9,6-8.2,6c-4.6-0.1-9-1.7-12.6-4.7l1.7,7.2c3.3,1.2,6.8,1.8,10.3,1.7c8.9,0,15.4-5.7,15.4-11.9
		C252.1,17,232.4,17.2,232.4,9.3z"/>
	<path class="st0" d="M253.5,0.7c-1.5,0-2.7,1.2-2.7,2.7s1.2,2.7,2.7,2.7c1.5,0,2.7-1.2,2.7-2.7S255,0.7,253.5,0.7L253.5,0.7z
		 M253.5,5.7c-1.2,0-2.2-1-2.2-2.3c0,0,0,0,0,0V3.4c-0.1-1.2,0.9-2.3,2.1-2.4c1.2-0.1,2.3,0.9,2.4,2.1l0,0c0,0.1,0,0.2,0,0.3
		c0.1,1.2-0.9,2.3-2.1,2.4L253.5,5.7L253.5,5.7z"/>
	<path class="st0" d="M254.8,2.8c0-0.5-0.4-0.9-0.9-0.9c0,0,0,0,0,0c-0.1,0-0.2,0-0.2,0h-1.2v3.2h0.5V3.7h0.5l0.9,1.4h0.5L254,3.7
		c0.5,0,0.8-0.3,0.8-0.8c0,0,0,0,0,0L254.8,2.8z M253.5,3.3H253v-1h0.7c0.3,0,0.7,0,0.7,0.5S253.9,3.3,253.5,3.3L253.5,3.3z"/>
</g>
</svg>
