<svg id="more_icon" data-name="more icon" xmlns="http://www.w3.org/2000/svg" viewBox="0 0 367.46 39.62"><defs><style>.cls-1{fill:#fff;}</style></defs><title>maximus_logo</title><path class="cls-1" d="M278.79,47.57a19.85,19.85,0,0,1-7.61-1.46A18.53,18.53,0,0,1,265,42a19.66,19.66,0,0,1-5.7-14v-.08A19.75,19.75,0,0,1,265,14a19,19,0,0,1,6.29-4.18,20.68,20.68,0,0,1,8-1.51,22.39,22.39,0,0,1,5.29.57A16.9,16.9,0,0,1,292.42,13a20.84,20.84,0,0,1,2.83,3.18l-7.88,6.1A13.56,13.56,0,0,0,283.81,19a8.81,8.81,0,0,0-4.7-1.19,8.31,8.31,0,0,0-3.64.78,8.7,8.7,0,0,0-2.83,2.13,9.94,9.94,0,0,0-1.86,3.19,11.21,11.21,0,0,0-.67,3.89v.11a11.59,11.59,0,0,0,.67,4,9.75,9.75,0,0,0,1.86,3.21,8.7,8.7,0,0,0,2.83,2.13,8.31,8.31,0,0,0,3.64.78,10.44,10.44,0,0,0,2.67-.32,8.13,8.13,0,0,0,2.21-.94,11.62,11.62,0,0,0,1.89-1.46,22.11,22.11,0,0,0,1.76-1.86L295.52,39a28,28,0,0,1-2.94,3.4A16.74,16.74,0,0,1,289,45.1a19,19,0,0,1-4.53,1.78A22.34,22.34,0,0,1,278.79,47.57Z" transform="translate(-8.25 -8.22)"/><path class="cls-1" d="M297.84,9h17.87a22.13,22.13,0,0,1,7.4,1.08,12.64,12.64,0,0,1,4.91,3,11.68,11.68,0,0,1,3.35,8.8V22a11.88,11.88,0,0,1-2.1,7.23,13.32,13.32,0,0,1-5.67,4.37l9,13.17H320.52l-7.62-11.4h-4.59V46.81H297.84Zm17.38,18.14a6.32,6.32,0,0,0,4.16-1.22,4,4,0,0,0,1.46-3.27v-.08a3.9,3.9,0,0,0-1.51-3.37,7,7,0,0,0-4.16-1.11h-6.86v9.07h6.91Z" transform="translate(-8.25 -8.22)"/><path class="cls-1" d="M335.57,9h11.07l9,14.63,9-14.63h11.07V46.81H365.32V25.11L355.68,39.9h-.22l-9.58-14.68V46.81H335.57Z" transform="translate(-8.25 -8.22)"/><path class="cls-1" d="M58,44.88a9.47,9.47,0,0,1-1.11-4L53.05,12.69c0-1.32.4-3,1.77-3.38V9.13H44.91v.06A10,10,0,0,1,44,12.74L34.53,37.06,23.75,11.77A6.7,6.7,0,0,1,23,9.19V9.13H13v.18c2.64,1.43,2,3.73,1.78,5.33l-3.27,24c-.46,3.09-.81,5.9-3.21,8v.17h9.34v-.12c-2.69-1.2-2.29-3.73-1.84-7.22L19,14.82,29.9,40.67c1.37,3.22,2.18,4.77,5,6.94L47.78,14.76,51,42.39c0,2-.34,3.66-2.35,4.3v.17h7" transform="translate(-8.25 -8.22)"/><path class="cls-1" d="M55.6,46.87l4.45,0,6,0v-.18c-3-1-2.26-2.54-1-5.75L68,33H82.44l3.21,7.94c1.55,4,2.31,4.5-.69,5.75V47l16-.14-11-.17,1.43-1.83L92.86,43a39.26,39.26,0,0,1-2-4.5L78.94,9H70v.31c3,.86,1.62,3.27.82,5.33l-9.6,23.91c-.89,2.32-1.67,4.61-3.22,6.34M69.47,28.45,75.14,14l5.62,14.45Z" transform="translate(-8.25 -8.22)"/><path class="cls-1" d="M92.81,43l12.94-16.25-8.32-12c-1.49-2.18-3.09-4.47-5.5-5.57h6.65c1.78,0,2.3.46,2.87,1.38l8.32,12,5.67-7.68c1.44-2,3.39-5-.52-5.51V9.13h10.49l-13,17,9.17,13.65c1.83,2.75,3.61,5.9,6.88,7.11h-6.6a4.32,4.32,0,0,1-3.72-2L108.56,30.5l-8,10.55c-1.38,1.84-3.1,4.3.4,5.68v.17L85,47" transform="translate(-8.25 -8.22)"/><path class="cls-1" d="M129.13,9.31c2.92,1.1,2.52,5.27,2.52,7.91V38.84c0,2.58.34,6.82-2.52,7.85v.17H140v-.17c-2.86-1.09-2.52-5.27-2.52-7.85V17.21c0-2.57-.34-6.81,2.52-7.91V9.13H129.13Z" transform="translate(-8.25 -8.22)"/><path class="cls-1" d="M190.64,40.85l-3.79-28.16c0-1.32.4-3,1.78-3.38V9.13h-9.92v.06a10.09,10.09,0,0,1-.85,3.55l-9.52,24.32L157.56,11.77a6.71,6.71,0,0,1-.81-2.58V9.13h-10v.18c2.64,1.43,2,3.73,1.77,5.33l-3.26,24c-.46,3.09-.81,5.9-3.22,8v.17h9.34v-.12c-2.69-1.2-2.29-3.73-1.83-7.22l3.27-24.66,10.9,25.85c1.37,3.22,2.18,4.77,5,6.94l12.84-32.85,3.27,27.64c0,2-.34,3.66-2.34,4.3v.17h11.06v-.17C191.27,45.08,191,43.54,190.64,40.85Z" transform="translate(-8.25 -8.22)"/><path class="cls-1" d="M228.18,9.31l-.06-.17H217.23v.17c2.87,1.1,2.52,5.27,2.52,7.86V34.42c0,2.06.06,3.5-1.21,5.22a10.12,10.12,0,0,1-8.37,4c-5.9,0-9.11-3.56-9.11-11.19V17.16c0-2.58-.34-6.76,2.52-7.86V9.13H192.69v.18c2.93,1.1,2.52,5.27,2.52,7.86v15.3c0,4.13-.12,8,2.92,11.3,2.59,2.81,6.59,4,10.38,4,4,0,8.72-1.38,11.24-4.7v3.78h8.43v-.16c-2.93-1.09-2.59-5.27-2.59-7.85V17.21C225.6,14.58,225.26,10.4,228.18,9.31Z" transform="translate(-8.25 -8.22)"/><path class="cls-1" d="M237.71,17.56c0-4,4.13-5.22,7.4-5.22a13.13,13.13,0,0,1,9,3.62V9.48a28.79,28.79,0,0,0-8.55-1.26c-7,0-14.39,2.75-14.39,10,0,12.15,19.73,10.55,19.73,19.49,0,4-4.93,6-8.2,6A19.86,19.86,0,0,1,230.14,39l1.67,7.17a29.65,29.65,0,0,0,10.26,1.72c8.94,0,15.37-5.73,15.37-11.87C257.44,25.3,237.71,25.42,237.71,17.56Z" transform="translate(-8.25 -8.22)"/><path class="cls-1" d="M258.87,9a2.72,2.72,0,1,0,2.72,2.72A2.72,2.72,0,0,0,258.87,9Zm0,5a2.25,2.25,0,0,1-2.24-2.26v-.07a2.24,2.24,0,0,1,4.47-.3,1.5,1.5,0,0,1,0,.3,2.27,2.27,0,0,1-2.1,2.41h-.13Z" transform="translate(-8.25 -8.22)"/><path class="cls-1" d="M260.14,11.06a.89.89,0,0,0-.87-.92.65.65,0,0,0-.24,0h-1.2v3.18h.48V12h.52l.86,1.37h.52L259.3,12a.82.82,0,0,0,.84-.8Zm-1.33.51h-.5v-1H259c.33,0,.71,0,.71.49s-.42.52-.85.52Z" transform="translate(-8.25 -8.22)"/></svg>