<?xml version="1.0" encoding="UTF-8"?>
<svg width="512px" height="512px" viewBox="0 0 512 512" version="1.1" xmlns="http://www.w3.org/2000/svg" xmlns:xlink="http://www.w3.org/1999/xlink">
    <!-- Generator: Sketch 55.2 (78181) - https://sketchapp.com -->
    <title>OneLogin-CP-SquareIcon</title>
    <desc>Created with Sketch.</desc>
    <defs>
        <polygon id="path-1" points="0 0.048 229.8828 0.048 229.8828 300 0 300"></polygon>
        <polygon id="path-3" points="1.1484 0.048 473.6484 0.048 473.6484 300 1.1484 300"></polygon>
        <polygon id="path-5" points="1.1484 0.048 473.6484 0.048 473.6484 300 1.1484 300"></polygon>
    </defs>
    <g id="OneLogin-CP-SquareIcon" stroke="none" stroke-width="1" fill="none" fill-rule="evenodd">
        <g id="Group-35" transform="translate(1.000000, 105.000000)">
            <g id="Connection-Point-mark_SVG">
                <g id="Group-3">
                    <g id="Fill-1-Clipped">
                        <mask id="mask-2" fill="white">
                            <use xlink:href="#path-1"></use>
                        </mask>
                        <g id="path-1"></g>
                        <path d="M149.6484,270 C83.3748,270 29.6496,216.2748 29.6496,150 C29.6496,83.7264 83.3748,30 149.6484,30 C171.9432,30 192.8016,36.0996 210.6888,46.6908 C216.4392,38.28 222.8484,30.354 229.8828,23.0292 C206.7516,8.4444 179.364,0 150,0 C67.1568,0 0,67.1568 0,150 C0,232.842 67.1568,300 150,300 C159.8484,300 169.47,299.04 178.788,297.2292 L178.788,266.4192 C169.4568,268.746 159.7008,270 149.6484,270" id="Fill-1" fill="#6D6CA3" fill-rule="nonzero" mask="url(#mask-2)"></path>
                    </g>
                </g>
                <path d="M150,104.5452 C162.3216,104.5452 173.49,109.4556 181.6764,117.4164 C183.5688,106.8636 186.378,96.6324 189.9984,86.7924 C178.3464,79.338 164.508,75 149.6484,75 C108.228,75 74.6484,108.5796 74.6484,150 C74.6484,191.4216 108.228,225 149.6484,225 C159.984,225 169.83,222.9084 178.788,219.1284 L178.788,185.1744 C170.9484,191.5968 160.926,195.4548 150,195.4548 C124.8972,195.4548 104.5464,175.104 104.5464,150 C104.5464,124.896 124.8972,104.5452 150,104.5452" id="Fill-4" fill="#6D6CA3" fill-rule="nonzero"></path>
                <g id="Group-8" transform="translate(36.000000, 0.000000)">
                    <g id="Fill-5-Clipped">
                        <mask id="mask-4" fill="white">
                            <use xlink:href="#path-3"></use>
                        </mask>
                        <g id="path-3"></g>
                        <path d="M113.6484,232.5 C68.0868,232.5 31.1496,195.564 31.1496,150 C31.1496,104.4372 68.0868,67.5 113.6484,67.5 C129.462,67.5 144.2304,71.9556 156.7812,79.6704 C160.6584,70.3596 165.282,61.4364 170.5728,52.9752 C153.87,43.1544 134.4252,37.5 113.6484,37.5 C51.5172,37.5 1.1484,87.8676 1.1484,150 C1.1484,212.1324 51.5172,262.5 113.6484,262.5 C123.7296,262.5 133.4928,261.1536 142.788,258.6684 L142.788,227.1888 C133.7256,230.6124 123.9096,232.5 113.6484,232.5" id="Fill-5" fill="#6D6CA3" fill-rule="nonzero" mask="url(#mask-4)"></path>
                    </g>
                    <g id="Fill-7-Clipped">
                        <mask id="mask-6" fill="white">
                            <use xlink:href="#path-5"></use>
                        </mask>
                        <g id="path-3"></g>
                        <path d="M323.6484,0 C288.1728,0 255.5796,12.324 229.8984,32.9136 C237.0048,39.9708 243.4644,47.6772 249.1992,55.9236 C269.6616,39.708 295.5144,30 323.6484,30 C389.9244,30 443.6484,83.7264 443.6484,150 C443.6484,216.2748 389.9244,270 323.6484,270 C295.5144,270 269.6616,260.2908 249.1992,244.0764 C243.4644,252.324 237.0048,260.0304 229.8984,267.0876 C255.5796,287.676 288.1728,300 323.6484,300 C406.4928,300 473.6484,232.842 473.6484,150 C473.6484,67.1568 406.4928,0 323.6484,0" id="Fill-7" fill="#504E77" fill-rule="nonzero" mask="url(#mask-6)"></path>
                    </g>
                </g>
                <path d="M359.6484,37.5 C333.0444,37.5 308.6136,46.7556 289.3524,62.196 C294.822,70.8792 299.484,80.1168 303.2808,89.7888 C318.0312,75.9732 337.8456,67.5 359.6484,67.5 C405.2124,67.5 442.1484,104.4372 442.1484,150 C442.1484,195.564 405.2124,232.5 359.6484,232.5 C337.8456,232.5 318.0312,224.0268 303.2808,210.2112 C299.484,219.8844 294.822,229.122 289.3524,237.804 C308.6136,253.2432 333.0444,262.5 359.6484,262.5 C421.782,262.5 472.1484,212.1324 472.1484,150 C472.1484,87.8676 421.782,37.5 359.6484,37.5" id="Fill-9" fill="#504E77" fill-rule="nonzero"></path>
                <path d="M359.6484,225 C401.0712,225 434.6484,191.4216 434.6484,150 C434.6484,108.5796 401.0712,75 359.6484,75 C338.6724,75 319.716,83.622 306.1044,97.5036 C311.64,113.994 314.6484,131.6436 314.6484,150 C314.6484,125.1468 334.7976,105 359.6484,105 C384.5016,105 404.6484,125.1468 404.6484,150 C404.6484,174.852 384.5016,195 359.6484,195 C334.7976,195 314.6484,174.852 314.6484,150 C314.6484,168.3564 311.64,186.0048 306.1044,202.4952 C319.716,216.378 338.6724,225 359.6484,225" id="Fill-10" fill="#504E77" fill-rule="nonzero"></path>
                <path d="M226.1412,150.2748 L226.1556,150.2748 C226.1544,150.1836 226.1484,150.0912 226.1484,150 C226.1484,113.8764 242.1336,81.5052 267.39,59.5056 C266.2032,57.966 264.99,56.4468 263.7456,54.9552 C263.6256,54.8124 263.5032,54.672 263.3856,54.5292 C262.6692,53.6784 261.9444,52.8336 261.21,51.9972 C261.048,51.8148 260.8872,51.6336 260.7252,51.4512 C260.016,50.652 259.2984,49.8612 258.5724,49.0788 C258.402,48.8952 258.2328,48.7128 258.0612,48.5304 C257.3148,47.7336 256.56,46.944 255.798,46.164 C255.6528,46.0164 255.5088,45.8688 255.3648,45.7212 C254.5248,44.8692 253.6728,44.028 252.8124,43.1952 C252.7452,43.1304 252.6792,43.0644 252.6108,42.9984 C249.7272,40.224 246.732,37.5624 243.6324,35.0256 C243.63,35.022 243.6288,35.022 243.6276,35.022 C214.374,64.5396 196.2996,105.1572 196.2996,150 L196.1484,150 L196.1484,291.0636 C206.7264,287.58 216.7644,282.9204 226.1412,277.2732 L226.1412,150.2748" id="Fill-11" fill="#504E77" fill-rule="nonzero"></path>
                <path d="M263.6448,150.2748 L263.6556,150.2748 C263.6532,150.1836 263.6484,150.0912 263.6484,150 C263.6484,127.7844 272.4468,107.634 286.728,92.802 C286.6992,92.736 286.6728,92.6688 286.6452,92.6016 C285.6192,90.156 284.532,87.7428 283.3812,85.368 C283.3488,85.3008 283.314,85.2348 283.2828,85.17 C282.7488,84.0696 282.1992,82.9788 281.64,81.894 C281.5092,81.642 281.3748,81.3936 281.244,81.144 C280.7712,80.2428 280.2936,79.3476 279.8028,78.4584 C279.6372,78.1572 279.468,77.8584 279.2988,77.5572 C278.8284,76.716 278.3496,75.8796 277.8624,75.0468 C277.6848,74.7432 277.5048,74.4396 277.3248,74.1372 C276.8268,73.3008 276.3192,72.4692 275.8044,71.6424 C275.634,71.3676 275.4636,71.0928 275.292,70.8204 C274.7352,69.9396 274.17,69.0672 273.5964,68.1996 C273.4572,67.9908 273.3228,67.7808 273.1836,67.5732 C272.7372,66.9048 272.2776,66.2472 271.8204,65.5872 C248.4264,86.2032 233.6484,116.3676 233.6484,150 C233.6484,150.1152 233.6568,150.228 233.658,150.3432 L233.6484,150.3432 L233.6484,272.4396 C244.854,264.738 254.946,255.5328 263.6448,245.124 L263.6448,150.2748" id="Fill-12" fill="#504E77" fill-rule="nonzero"></path>
                <path d="M298.0404,144.5664 C298.0068,143.6496 297.972,142.734 297.9216,141.8208 C297.894,141.2976 297.8556,140.7768 297.8232,140.2548 C297.7692,139.422 297.7116,138.5904 297.6444,137.7624 C297.5988,137.2176 297.5496,136.674 297.4992,136.1304 C297.4248,135.3228 297.3444,134.5164 297.2568,133.7124 C297.198,133.17 297.1356,132.6288 297.0708,132.0876 C296.9736,131.2776 296.868,130.4688 296.7564,129.6624 C296.6856,129.1416 296.6148,128.6208 296.5392,128.1024 C296.4132,127.2528 296.2764,126.4068 296.1372,125.5632 C296.0592,125.0952 295.986,124.6272 295.9044,124.1604 C295.7304,123.1716 295.5432,122.1876 295.3488,121.2036 C295.2888,120.8904 295.2324,120.576 295.1688,120.2628 C294.9024,118.9536 294.6204,117.6492 294.3204,116.3532 C294.2844,116.2008 294.2448,116.0496 294.2088,115.8972 C293.9436,114.7656 293.6652,113.6388 293.3736,112.5156 C293.274,112.1316 293.166,111.75 293.0628,111.3672 C292.824,110.4792 292.5816,109.5924 292.3272,108.7116 C292.2,108.2712 292.0668,107.8332 291.9348,107.3928 C291.6888,106.5696 291.438,105.7464 291.1776,104.9292 C291.0348,104.4804 290.8884,104.034 290.742,103.5876 C290.4732,102.7728 290.1984,101.9604 289.9176,101.1516 C289.8552,100.974 289.7916,100.794 289.7292,100.6164 C278.1696,113.8104 271.1484,131.0808 271.1484,150 C271.1484,150.15 271.1592,150.2976 271.1604,150.4488 L271.1508,150.4488 L271.1508,235.368 C288.1584,211.2228 298.1484,181.782 298.1484,150 C298.1484,148.6284 298.128,147.2628 298.0908,145.8996 C298.0788,145.4544 298.056,145.0116 298.0404,144.5664" id="Fill-13" fill="#504E77" fill-rule="nonzero"></path>
            </g>
        </g>
    </g>
</svg>