<?xml version="1.0" encoding="UTF-8"?>
<svg width="264px" height="100px" viewBox="0 0 264 100" version="1.1" xmlns="http://www.w3.org/2000/svg" xmlns:xlink="http://www.w3.org/1999/xlink">
    <!-- Generator: Sketch 55.2 (78181) - https://sketchapp.com -->
    <title>OneLogin-CP-Production</title>
    <desc>Created with Sketch.</desc>
    <defs>
        <polygon id="path-1" points="0 0.0108235294 51.8363176 0.0108235294 51.8363176 67.6470588 0 67.6470588"></polygon>
        <polygon id="path-3" points="0.258952941 0.0108235294 106.803071 0.0108235294 106.803071 67.6470588 0.258952941 67.6470588"></polygon>
        <polygon id="path-5" points="0.258952941 0.0108235294 106.803071 0.0108235294 106.803071 67.6470588 0.258952941 67.6470588"></polygon>
    </defs>
    <g id="OneLogin-CP-Production" stroke="none" stroke-width="1" fill="none" fill-rule="evenodd">
        <g id="Group-35">
            <rect id="Rectangle-Copy-15" x="0" y="0" width="264" height="100"></rect>
            <g id="Group" transform="translate(1.000000, 72.000000)" fill-rule="nonzero">
                <path d="M18.8109571,6.60518609 C16.9440061,4.63080982 15.221182,4.09234356 13.4619243,4.09234356 C8.22085276,4.09234356 4.73877096,8.11315951 4.73877096,13.1744744 C4.73877096,18.5953027 8.22085276,22.6161186 13.4619243,22.6161186 C15.508364,22.6161186 17.4827403,21.6825092 19.1699346,19.5286442 L22.9033006,22.1850777 C20.6058446,25.3443476 17.1596605,26.7084622 13.4260266,26.7084622 C5.60004908,26.7084622 0,21.3955951 0,13.4619243 C0,5.31313497 5.60004908,0 13.4260266,0 C16.8724785,0 19.8160941,1.11283027 22.3289366,4.02054806 L18.8109571,6.60518609" id="Fill-15" fill="#353736"></path>
                <path d="M33.2557832,22.6161186 C36.4150532,22.6161186 38.3173661,20.1389059 38.3173661,17.4468425 C38.3173661,14.7542434 36.4150532,12.2772986 33.2557832,12.2772986 C30.0967812,12.2772986 28.1942004,14.7542434 28.1942004,17.4468425 C28.1942004,20.1389059 30.0967812,22.6161186 33.2557832,22.6161186 Z M33.2557832,8.40007362 C38.4609571,8.40007362 42.625364,12.0257464 42.625364,17.4468425 C42.625364,22.8674029 38.4609571,26.4930757 33.2557832,26.4930757 C28.0506094,26.4930757 23.8862025,22.8674029 23.8862025,17.4468425 C23.8862025,12.0257464 28.0506094,8.40007362 33.2557832,8.40007362 L33.2557832,8.40007362 Z" id="Fill-17" fill="#353736"></path>
                <path d="M45.3525215,8.83084663 L49.444865,8.83084663 L49.444865,11.5952413 L49.5166605,11.5952413 C50.306411,9.87188139 51.9220777,8.40007362 54.7938978,8.40007362 C59.4247076,8.40007362 61.0760041,11.6667689 61.0760041,15.1850164 L61.0760041,26.0623027 L56.768274,26.0623027 L56.768274,17.3388814 C56.768274,15.4363006 56.624683,12.2772986 53.6090041,12.2772986 C50.7730818,12.2772986 49.6602515,14.3593681 49.6602515,16.6568241 L49.6602515,26.0623027 L45.3525215,26.0623027 L45.3525215,8.83084663" id="Fill-18" fill="#353736"></path>
                <path d="M64.7370389,8.83084663 L68.8296503,8.83084663 L68.8296503,11.5952413 L68.9011779,11.5952413 C69.6911963,9.87188139 71.3065951,8.40007362 74.1784151,8.40007362 C78.8092249,8.40007362 80.4605215,11.6667689 80.4605215,15.1850164 L80.4605215,26.0623027 L76.1527914,26.0623027 L76.1527914,17.3388814 C76.1527914,15.4363006 76.0092004,12.2772986 72.9937894,12.2772986 C70.1578671,12.2772986 69.0450368,14.3593681 69.0450368,16.6568241 L69.0450368,26.0623027 L64.7370389,26.0623027 L64.7370389,8.83084663" id="Fill-19" fill="#353736"></path>
                <path d="M96.2549959,15.7234826 C96.2190982,13.2106401 94.5678016,11.6311391 91.8754703,11.6311391 C89.3267301,11.6311391 87.747229,13.2465378 87.4241493,15.7234826 L96.2549959,15.7234826 Z M87.4241493,18.9545481 C87.7110634,21.5030204 89.6498098,23.0468916 92.0549591,23.0468916 C94.2088241,23.0468916 95.6088364,22.0417546 96.6857689,20.7132699 L99.7732434,23.0468916 C97.7629693,25.5238364 95.2139611,26.4930757 92.4857321,26.4930757 C87.2805583,26.4930757 83.1161513,22.8674029 83.1161513,17.4468425 C83.1161513,12.0257464 87.2805583,8.40007362 92.4857321,8.40007362 C97.2962986,8.40007362 100.562994,11.7747301 100.562994,17.7696544 L100.562994,18.9545481 L87.4241493,18.9545481 L87.4241493,18.9545481 Z" id="Fill-20" fill="#353736"></path>
                <path d="M115.424127,14.0001227 C114.41899,12.9593558 113.305892,12.2772986 112.157164,12.2772986 C108.998162,12.2772986 107.095849,14.7542434 107.095849,17.4468425 C107.095849,20.1389059 108.998162,22.6161186 112.157164,22.6161186 C113.485648,22.6161186 114.706172,22.0417546 115.495922,21.0004519 L118.367742,24.0879264 C116.608753,25.8469162 113.665137,26.4930757 112.157164,26.4930757 C106.952258,26.4930757 102.787851,22.8674029 102.787851,17.4468425 C102.787851,12.0257464 106.952258,8.40007362 112.157164,8.40007362 C114.347194,8.40007362 116.752344,9.18982413 118.403908,11.0206094 L115.424127,14.0001227" id="Fill-21" fill="#353736"></path>
                <path d="M119.695423,12.4924172 L119.695423,8.83084663 L123.249301,8.83084663 L123.249301,3.8413272 L127.557299,3.8413272 L127.557299,8.83084663 L132.295802,8.83084663 L132.295802,12.4924172 L127.557299,12.4924172 L127.557299,20.0312127 C127.557299,21.7545726 128.059867,22.8312372 129.962448,22.8312372 C130.716569,22.8312372 131.757335,22.6876462 132.295802,22.292771 L132.295802,25.9187117 C131.398358,26.3494847 129.890652,26.4930757 128.885515,26.4930757 C124.326501,26.4930757 123.249301,24.4469039 123.249301,20.3901902 L123.249301,12.4924172 L119.695423,12.4924172" id="Fill-22" fill="#353736"></path>
                <path d="M135.131456,26.0620348 L139.439186,26.0620348 L139.439186,8.83084663 L135.131456,8.83084663 L135.131456,26.0620348 Z M137.249155,0.394875256 C138.828924,0.394875256 140.049448,1.50770552 140.049448,2.97951329 C140.049448,4.45132106 138.828924,5.56415133 137.249155,5.56415133 C135.669922,5.56415133 134.521194,4.34362781 134.521194,2.97951329 C134.521194,1.61539877 135.669922,0.394875256 137.249155,0.394875256 L137.249155,0.394875256 Z" id="Fill-23" fill="#353736"></path>
                <path d="M151.464665,22.6161186 C154.623935,22.6161186 156.526247,20.1389059 156.526247,17.4468425 C156.526247,14.7542434 154.623935,12.2772986 151.464665,12.2772986 C148.305663,12.2772986 146.403082,14.7542434 146.403082,17.4468425 C146.403082,20.1389059 148.305663,22.6161186 151.464665,22.6161186 Z M151.464665,8.40007362 C156.669838,8.40007362 160.834245,12.0257464 160.834245,17.4468425 C160.834245,22.8674029 156.669838,26.4930757 151.464665,26.4930757 C146.259491,26.4930757 142.095084,22.8674029 142.095084,17.4468425 C142.095084,12.0257464 146.259491,8.40007362 151.464665,8.40007362 L151.464665,8.40007362 Z" id="Fill-24" fill="#353736"></path>
                <path d="M163.561671,8.83084663 L167.654014,8.83084663 L167.654014,11.5952413 L167.72581,11.5952413 C168.51556,9.87188139 170.130959,8.40007362 173.002779,8.40007362 C177.633589,8.40007362 179.284885,11.6667689 179.284885,15.1850164 L179.284885,26.0623027 L174.977155,26.0623027 L174.977155,17.3388814 C174.977155,15.4363006 174.833564,12.2772986 171.818153,12.2772986 C168.982231,12.2772986 167.869401,14.3593681 167.869401,16.6568241 L167.869401,26.0623027 L163.561671,26.0623027 L163.561671,8.83084663" id="Fill-25" fill="#353736"></path>
                <path d="M190.814761,11.6667689 C193.399667,11.6667689 196.738157,11.5231779 196.738157,8.07699387 C196.738157,4.95388957 193.758644,4.52311656 191.317329,4.52311656 L188.0868,4.52311656 L188.0868,11.6667689 L190.814761,11.6667689 Z M183.563415,0.646159509 L192.107348,0.646159509 C197.025339,0.646159509 201.476661,2.36925153 201.476661,8.00519836 C201.476661,14.3952658 196.70226,15.5439939 191.317329,15.5439939 L188.0868,15.5439939 L188.0868,26.0623027 L183.563415,26.0623027 L183.563415,0.646159509 L183.563415,0.646159509 Z" id="Fill-26" fill="#504E77"></path>
                <path d="M211.204683,22.6161186 C214.362613,22.6161186 216.267337,20.1389059 216.267337,17.4468425 C216.267337,14.7542434 214.362613,12.2772986 211.204683,12.2772986 C208.045681,12.2772986 206.142832,14.7542434 206.142832,17.4468425 C206.142832,20.1389059 208.045681,22.6161186 211.204683,22.6161186 Z M211.204683,8.40007362 C216.409321,8.40007362 220.575067,12.0257464 220.575067,17.4468425 C220.575067,22.8674029 216.409321,26.4930757 211.204683,26.4930757 C205.999241,26.4930757 201.835102,22.8674029 201.835102,17.4468425 C201.835102,12.0257464 205.999241,8.40007362 211.204683,8.40007362 L211.204683,8.40007362 Z" id="Fill-27" fill="#504E77"></path>
                <path d="M223.302225,26.0620348 L227.609955,26.0620348 L227.609955,8.83084663 L223.302225,8.83084663 L223.302225,26.0620348 Z M225.418585,0.394875256 C226.999157,0.394875256 228.220753,1.50770552 228.220753,2.97951329 C228.220753,4.45132106 226.999157,5.56415133 225.418585,5.56415133 C223.840691,5.56415133 222.691427,4.34362781 222.691427,2.97951329 C222.691427,1.61539877 223.840691,0.394875256 225.418585,0.394875256 L225.418585,0.394875256 Z" id="Fill-28" fill="#504E77"></path>
                <path d="M231.644434,8.83084663 L235.73517,8.83084663 L235.73517,11.5952413 L235.807501,11.5952413 C236.597787,9.87188139 238.213186,8.40007362 241.085006,8.40007362 C245.716888,8.40007362 247.367112,11.6667689 247.367112,15.1850164 L247.367112,26.0623027 L243.059382,26.0623027 L243.059382,17.3388814 C243.059382,15.4363006 242.91472,12.2772986 239.900916,12.2772986 C237.063922,12.2772986 235.952164,14.3593681 235.952164,16.6568241 L235.952164,26.0623027 L231.644434,26.0623027 L231.644434,8.83084663" id="Fill-29" fill="#504E77"></path>
                <path d="M249.226294,12.4924172 L249.226294,8.83084663 L252.781243,8.83084663 L252.781243,3.8413272 L257.088973,3.8413272 L257.088973,8.83084663 L261.825333,8.83084663 L261.825333,12.4924172 L257.088973,12.4924172 L257.088973,20.0312127 C257.088973,21.7545726 257.589935,22.8312372 259.49198,22.8312372 C260.24744,22.8312372 261.286867,22.6876462 261.825333,22.292771 L261.825333,25.9187117 C260.92789,26.3494847 259.422327,26.4930757 258.415047,26.4930757 C253.858176,26.4930757 252.781243,24.4469039 252.781243,20.3901902 L252.781243,12.4924172 L249.226294,12.4924172" id="Fill-30" fill="#504E77"></path>
            </g>
            <g id="Connection-Point-mark_SVG" transform="translate(75.000000, 1.000000)">
                <g id="Group-3">
                    <g id="Fill-1-Clipped">
                        <mask id="mask-2" fill="white">
                            <use xlink:href="#path-1"></use>
                        </mask>
                        <g id="path-1"></g>
                        <path d="M33.7442471,60.8823529 C18.8002,60.8823529 6.68569412,48.7678471 6.68569412,33.8235294 C6.68569412,18.8794824 18.8002,6.76470588 33.7442471,6.76470588 C38.7715059,6.76470588 43.4748706,8.14010588 47.5082588,10.5283176 C48.8049176,8.63176471 50.2501294,6.84452941 51.8363176,5.19285882 C46.6204588,1.90412941 40.4448235,0 33.8235294,0 C15.1432,0 0,15.1432 0,33.8235294 C0,52.5035882 15.1432,67.6470588 33.8235294,67.6470588 C36.0442471,67.6470588 38.2138235,67.4305882 40.3149412,67.0222706 L40.3149412,60.0749176 C38.2108471,60.5995882 36.0109647,60.8823529 33.7442471,60.8823529" id="Fill-1" fill="#6D6CA3" fill-rule="nonzero" mask="url(#mask-2)"></path>
                    </g>
                </g>
                <path d="M33.8235294,23.5739176 C36.6019294,23.5739176 39.1202941,24.6811647 40.9662471,26.4762471 C41.3929647,24.0966941 42.0264118,21.7896588 42.8427765,19.5708353 C40.2153647,17.8899412 37.0949412,16.9117647 33.7442471,16.9117647 C24.4043529,16.9117647 16.8324824,24.4836353 16.8324824,33.8235294 C16.8324824,43.1636941 24.4043529,50.7352941 33.7442471,50.7352941 C36.0748235,50.7352941 38.295,50.2636588 40.3149412,49.4113059 L40.3149412,41.7550118 C38.5471882,43.2032 36.2872353,44.0731412 33.8235294,44.0731412 C28.1630941,44.0731412 23.5741882,39.4842353 23.5741882,33.8235294 C23.5741882,28.1628235 28.1630941,23.5739176 33.8235294,23.5739176" id="Fill-4" fill="#6D6CA3" fill-rule="nonzero"></path>
                <g id="Group-8" transform="translate(8.117647, 0.000000)">
                    <g id="Fill-5-Clipped">
                        <mask id="mask-4" fill="white">
                            <use xlink:href="#path-3"></use>
                        </mask>
                        <g id="path-3"></g>
                        <path d="M25.6266,52.4264706 C15.3529059,52.4264706 7.02392941,44.0977647 7.02392941,33.8235294 C7.02392941,23.5495647 15.3529059,15.2205882 25.6266,15.2205882 C29.1924118,15.2205882 32.5225412,16.2252824 35.3526235,17.9648941 C36.2268941,15.8654 37.2694706,13.8533059 38.4624941,11.9453882 C34.6961765,9.73089412 30.3115647,8.45588235 25.6266,8.45588235 C11.6166235,8.45588235 0.258952941,19.8132824 0.258952941,33.8235294 C0.258952941,47.8337765 11.6166235,59.1911765 25.6266,59.1911765 C27.8998118,59.1911765 30.1013176,58.8875765 32.1972941,58.3271882 L32.1972941,51.2288471 C30.1538118,52.0008353 27.9404,52.4264706 25.6266,52.4264706" id="Fill-5" fill="#6D6CA3" fill-rule="nonzero" mask="url(#mask-4)"></path>
                    </g>
                    <g id="Fill-7-Clipped">
                        <mask id="mask-6" fill="white">
                            <use xlink:href="#path-5"></use>
                        </mask>
                        <g id="path-3"></g>
                        <path d="M72.9795412,0 C64.9801412,0 57.6306941,2.77894118 51.8398353,7.42169412 C53.4422588,9.01302353 54.8988353,10.7507412 56.1919765,12.6102235 C60.8060471,8.95376471 66.6356,6.76470588 72.9795412,6.76470588 C87.9241294,6.76470588 100.038365,18.8794824 100.038365,33.8235294 C100.038365,48.7678471 87.9241294,60.8823529 72.9795412,60.8823529 C66.6356,60.8823529 60.8060471,58.6930235 56.1919765,55.0368353 C54.8988353,56.8965882 53.4422588,58.6343059 51.8398353,60.2256353 C57.6306941,64.8681176 64.9801412,67.6470588 72.9795412,67.6470588 C91.6601412,67.6470588 106.803071,52.5035882 106.803071,33.8235294 C106.803071,15.1432 91.6601412,0 72.9795412,0" id="Fill-7" fill="#504E77" fill-rule="nonzero" mask="url(#mask-6)"></path>
                    </g>
                </g>
                <path d="M81.0971882,8.45588235 C75.0982471,8.45588235 69.5893412,10.5429294 65.2461294,14.0245882 C66.4794706,15.9825647 67.5307059,18.0655529 68.3868471,20.2464941 C71.7129176,17.1312118 76.1808706,15.2205882 81.0971882,15.2205882 C91.3714235,15.2205882 99.7001294,23.5495647 99.7001294,33.8235294 C99.7001294,44.0977647 91.3714235,52.4264706 81.0971882,52.4264706 C76.1808706,52.4264706 71.7129176,50.5158471 68.3868471,47.4005647 C67.5307059,49.5817765 66.4794706,51.6647647 65.2461294,53.6224706 C69.5893412,57.1038588 75.0982471,59.1911765 81.0971882,59.1911765 C95.1077059,59.1911765 106.464835,47.8337765 106.464835,33.8235294 C106.464835,19.8132824 95.1077059,8.45588235 81.0971882,8.45588235" id="Fill-9" fill="#504E77" fill-rule="nonzero"></path>
                <path d="M81.0971882,50.7352941 C90.4376235,50.7352941 98.0089529,43.1636941 98.0089529,33.8235294 C98.0089529,24.4836353 90.4376235,16.9117647 81.0971882,16.9117647 C76.3673059,16.9117647 72.0928235,18.8559412 69.0235412,21.9861059 C70.2717647,25.7045294 70.9501294,29.6843412 70.9501294,33.8235294 C70.9501294,28.2193765 75.4935765,23.6764706 81.0971882,23.6764706 C86.7013412,23.6764706 91.2442471,28.2193765 91.2442471,33.8235294 C91.2442471,39.4274118 86.7013412,43.9705882 81.0971882,43.9705882 C75.4935765,43.9705882 70.9501294,39.4274118 70.9501294,33.8235294 C70.9501294,37.9627176 70.2717647,41.9422588 69.0235412,45.6606824 C72.0928235,48.7911176 76.3673059,50.7352941 81.0971882,50.7352941" id="Fill-10" fill="#504E77" fill-rule="nonzero"></path>
                <path d="M50.9926235,33.8854941 L50.9958706,33.8854941 C50.9956,33.8649294 50.9942471,33.8440941 50.9942471,33.8235294 C50.9942471,25.6780118 54.5987529,18.3786235 60.2938235,13.4179294 C60.0262118,13.0707647 59.7526471,12.7282 59.4720471,12.3918588 C59.4449882,12.3596588 59.4173882,12.328 59.3908706,12.2958 C59.2293294,12.1039529 59.0658941,11.9134588 58.9002941,11.7248588 C58.8637647,11.6837294 58.8275059,11.6428706 58.7909765,11.6017412 C58.6310588,11.4215294 58.4692471,11.2432118 58.3055412,11.0667882 C58.2671176,11.0253882 58.2289647,10.9842588 58.1902706,10.9431294 C58.0219647,10.7634588 57.8517647,10.5854118 57.6799412,10.4095294 C57.6472,10.3762471 57.6147294,10.3429647 57.5822588,10.3096824 C57.3928471,10.1175647 57.2007294,9.92788235 57.0067176,9.74009412 C56.9915647,9.72548235 56.9766824,9.7106 56.9612588,9.69571765 C56.3110353,9.07011765 55.6356471,8.46995294 54.9367176,7.89792941 C54.9361765,7.89711765 54.9359059,7.89711765 54.9356353,7.89711765 C48.3392353,14.5530471 44.2636353,23.7119176 44.2636353,33.8235294 L44.2295412,33.8235294 L44.2295412,65.6319882 C46.6147765,64.8464706 48.8782471,63.7957765 50.9926235,62.5223882 L50.9926235,33.8854941" id="Fill-11" fill="#504E77" fill-rule="nonzero"></path>
                <path d="M59.4493176,33.8854941 L59.4517529,33.8854941 C59.4512118,33.8649294 59.4501294,33.8440941 59.4501294,33.8235294 C59.4501294,28.8141294 61.4340824,24.2704118 64.6543529,20.9259412 C64.6478588,20.9110588 64.6419059,20.8959059 64.6356824,20.8807529 C64.4043294,20.3292941 64.1591765,19.7851412 63.8996824,19.2496471 C63.8923765,19.2344941 63.8845294,19.2196118 63.8774941,19.205 C63.7570824,18.9568706 63.6331529,18.7109059 63.5070588,18.4662941 C63.4775647,18.4094706 63.4472588,18.3534588 63.4177647,18.2971765 C63.3111529,18.0939647 63.2034588,17.8921059 63.0927882,17.6916 C63.0554471,17.6236824 63.0172941,17.5563059 62.9791412,17.4883882 C62.8730706,17.2987059 62.7651059,17.1101059 62.6552471,16.9223176 C62.6152,16.8538588 62.5746118,16.7854 62.5340235,16.7172118 C62.4217294,16.5286118 62.3072706,16.3410941 62.1911882,16.1546588 C62.1527647,16.0926941 62.1143412,16.0307294 62.0756471,15.9693059 C61.9500941,15.7706941 61.8226471,15.5739765 61.6933059,15.3783412 C61.6619176,15.3312588 61.6316118,15.2839059 61.6002235,15.2370941 C61.4995647,15.0863765 61.3959294,14.9380941 61.2928353,14.7892706 C56.0177176,19.4379765 52.6854235,26.2397529 52.6854235,33.8235294 C52.6854235,33.8495059 52.6873176,33.8749412 52.6875882,33.9009176 L52.6854235,33.9009176 L52.6854235,61.4324588 C55.2121765,59.6958235 57.4878235,57.6201412 59.4493176,55.2730588 L59.4493176,33.8854941" id="Fill-12" fill="#504E77" fill-rule="nonzero"></path>
                <path d="M67.2051882,32.5983059 C67.1976118,32.3915765 67.1897647,32.1851176 67.1784,31.9792 C67.1721765,31.8612235 67.1635176,31.7437882 67.1562118,31.6260824 C67.1440353,31.4382941 67.1310471,31.2507765 67.1158941,31.0640706 C67.1056118,30.9412235 67.0945176,30.8186471 67.0831529,30.6960706 C67.0663765,30.5139647 67.0482471,30.3321294 67.0284941,30.1508353 C67.0152353,30.0285294 67.0011647,29.9064941 66.9865529,29.7844588 C66.9646353,29.6018118 66.9408235,29.4194353 66.9156588,29.2376 C66.8996941,29.1201647 66.8837294,29.0027294 66.8666824,28.8858353 C66.8382706,28.6942588 66.8074235,28.5034941 66.7760353,28.3132706 C66.7584471,28.2077412 66.7419412,28.1022118 66.7235412,27.9969529 C66.6843059,27.7739882 66.6420941,27.5521059 66.5982588,27.3302235 C66.5847294,27.2596 66.5720118,27.1887059 66.5576706,27.1180824 C66.4976,26.8228706 66.4340118,26.5287412 66.3663647,26.2365059 C66.3582471,26.2021412 66.3493176,26.1680471 66.3412,26.1336824 C66.2814,25.8785176 66.2186235,25.6244353 66.1528706,25.3711647 C66.1304118,25.2845765 66.1060588,25.1985294 66.0827882,25.1122118 C66.0289412,24.9119765 65.9742824,24.7120118 65.9169176,24.5134 C65.8882353,24.4140941 65.8582,24.3153294 65.8284353,24.2160235 C65.7729647,24.0304 65.7164118,23.8447765 65.6576941,23.6605059 C65.6254941,23.5593059 65.5924824,23.4586471 65.5594706,23.3579882 C65.4988588,23.1742588 65.4368941,22.9910706 65.3735765,22.8086941 C65.3595059,22.7686471 65.3451647,22.7280588 65.3310941,22.6880118 C62.7245176,25.6631294 61.1413059,29.5574353 61.1413059,33.8235294 C61.1413059,33.8573529 61.1437412,33.8906353 61.1440118,33.9247294 L61.1418471,33.9247294 L61.1418471,53.0731765 C64.9768941,47.6286706 67.2295412,40.9900588 67.2295412,33.8235294 C67.2295412,33.5142471 67.2249412,33.2063176 67.2165529,32.8989294 C67.2138471,32.7985412 67.2087059,32.6986941 67.2051882,32.5983059" id="Fill-13" fill="#504E77" fill-rule="nonzero"></path>
            </g>
        </g>
    </g>
</svg>