<?xml version="1.0" encoding="UTF-8"?>
<svg width="18px" height="24px" viewBox="0 0 18 24" version="1.1" xmlns="http://www.w3.org/2000/svg" xmlns:xlink="http://www.w3.org/1999/xlink">
    <!-- Generator: Sketch 63.1 (92452) - https://sketch.com -->
    <title>Group 3</title>
    <desc>Created with Sketch.</desc>
    <g id="Page-1" stroke="none" stroke-width="1" fill="none" fill-rule="evenodd">
        <g id="Community-Outreach---Site-Contact-Info" transform="translate(-178.000000, -354.000000)" fill="#5D5D5D">
            <g id="User-Card-2" transform="translate(90.000000, 164.500000)">
                <g id="User-Card" transform="translate(0.000000, 130.000000)">
                    <g id="Group-3" transform="translate(87.969328, 60.030763)">
                        <path d="M7.23298217,10.1216465 C7.16276741,8.78824768 6.24861211,7.8897714 4.78160077,8.05337861 C3.56886231,8.18835456 0.729595478,9.27906931 1.21360015,13.1626955 C1.54694984,15.83631 2.27227515,19.367499 2.66220567,20.5863728 C3.01396118,21.6852679 3.6949762,23.1086506 4.64526143,22.9382265 C6.2090737,22.6580491 7.48861844,20.7063514 5.77006101,17.7225649 C3.90562049,14.4858688 7.47021263,14.5990305 7.23298217,10.1216465" id="Fill-182"></path>
                        <path d="M6.47629881,5.10163182 C5.92889635,5.0430059 5.41217024,5.65925974 5.32286797,6.47865919 C5.2335657,7.29737695 5.60440871,8.00906833 6.15249287,8.06701255 C6.69989534,8.12563847 7.21662145,7.50938463 7.30592372,6.68998518 C7.39522599,5.87126742 7.02370128,5.15957604 6.47629881,5.10163182" id="Fill-183"></path>
                        <path d="M4.08422503,7.90204194 C4.46597519,7.91226739 4.77478381,7.45075871 4.77478381,6.87063481 C4.77478381,6.2905109 4.46597519,5.81127811 4.08490673,5.80105266 C3.70383826,5.79014551 3.39502965,6.25233588 3.39434795,6.83245979 C3.39434795,7.4125837 3.70315656,7.89113479 4.08422503,7.90204194" id="Fill-184"></path>
                        <path d="M2.76855036,8.5080738 C3.07531389,8.50602523 3.31049925,8.10450587 3.29345684,7.60959405 C3.27709611,7.11536393 3.01464288,6.71588965 2.70787936,6.71724957 C2.40179753,6.71861644 2.16661216,7.1208175 2.18297288,7.61504762 C2.2000153,8.10995944 2.46178684,8.50943372 2.76855036,8.5080738" id="Fill-185"></path>
                        <path d="M1.7432785,9.44403992 C2.05004202,9.43654125 2.27636533,9.02956831 2.24977916,8.53533819 C2.22251129,8.04178977 1.95187769,7.64708737 1.64579587,7.65458603 C1.33903234,7.66276639 1.11270903,8.06905764 1.13929521,8.56328776 C1.16656307,9.05751788 1.43719667,9.45153858 1.7432785,9.44403992" id="Fill-186"></path>
                        <path d="M1.45969266,9.93281647 C1.42969801,9.52379843 1.19996621,9.20135589 0.945693338,9.21226303 C0.692102159,9.22248849 0.510089135,9.56333684 0.54008379,9.97235488 C0.570078446,10.3813729 0.79981024,10.7044972 1.05340142,10.69359 C1.3076743,10.6826829 1.48900562,10.3425162 1.45969266,9.93281647" id="Fill-187"></path>
                        <path d="M13.2200938,3.12616385 C11.7530824,2.96255664 10.8389271,3.86103291 10.7687124,5.19374999 C10.5314819,9.67181574 14.0960741,9.55865408 12.2316335,12.7953501 C10.5130761,15.7791366 11.7926209,17.7308343 13.3564331,18.0110117 C14.3067183,18.1814359 14.9877334,16.7580531 15.3394889,15.659158 C15.7294194,14.4402843 16.4547447,10.9090953 16.7880944,8.23548075 C17.2720991,4.35185455 14.4328322,3.2611398 13.2200938,3.12616385" id="Fill-194"></path>
                        <path d="M11.8492017,3.13979778 C12.3972858,3.08185356 12.7688106,2.37016219 12.6788266,1.55144443 C12.5895243,0.732044973 12.0727982,0.115791139 11.5253957,0.174417057 C10.9779933,0.232361278 10.6064686,0.944052652 10.6957708,1.76277041 C10.7850731,2.58216987 11.3017992,3.1984237 11.8492017,3.13979778" id="Fill-195"></path>
                        <path d="M13.9174695,2.97482718 C14.298538,2.96392003 14.6073466,2.48536893 14.6073466,1.90524502 C14.6073466,1.32512112 14.2978563,0.862930743 13.9167878,0.87383789 C13.5357194,0.884063341 13.2269107,1.36329613 13.2269107,1.94342004 C13.2269107,2.52354395 13.5364011,2.98505263 13.9174695,2.97482718" id="Fill-196"></path>
                        <path d="M16.2584161,4.51682515 C16.5651796,4.52432382 16.8351315,4.13030311 16.8623993,3.63607299 C16.8889855,3.14184287 16.6626622,2.73555163 16.3558987,2.72737127 C16.0498169,2.7198726 15.7791833,3.114575 15.7525971,3.60812343 C15.7253292,4.10235355 15.9516525,4.50932649 16.2584161,4.51682515" id="Fill-198"></path>
                        <path d="M15.2331442,3.58085904 C15.5399077,3.58221895 15.8016793,3.18274468 15.8187217,2.68783286 C15.8350824,2.19360274 15.599897,1.79140167 15.2938152,1.7900348 C14.9870517,1.78867489 14.7252801,2.18814916 14.7082377,2.68237928 C14.691877,3.1772911 14.9263807,3.57881047 15.2331442,3.58085904" id="Fill-197"></path>
                        <path d="M17.0560012,4.28504827 C16.8017283,4.27414112 16.5719965,4.59658367 16.5420019,5.0056017 C16.5126889,5.41530143 16.6940203,5.75546809 16.9482931,5.76637524 C17.2018843,5.77728239 17.4322978,5.45415814 17.4616108,5.04514011 C17.4916054,4.63612208 17.3095924,4.29527372 17.0560012,4.28504827" id="Fill-199"></path>
                    </g>
                </g>
            </g>
        </g>
    </g>
</svg>