<?xml version="1.0" encoding="UTF-8"?>
<svg width="22px" height="20px" viewBox="0 0 22 20" version="1.1" xmlns="http://www.w3.org/2000/svg" xmlns:xlink="http://www.w3.org/1999/xlink">
    <!-- Generator: Sketch 63.1 (92452) - https://sketch.com -->
    <title>Group 74</title>
    <desc>Created with Sketch.</desc>
    <g id="Page-1" stroke="none" stroke-width="1" fill="none" fill-rule="evenodd">
        <g id="Community-Outreach---Site-Contact-Info" transform="translate(-466.000000, -358.000000)">
            <g id="User-Card-2" transform="translate(90.000000, 164.500000)">
                <g id="User-Card" transform="translate(226.000000, 130.000000)">
                    <g id="Group-74" transform="translate(150.145906, 63.030763)">
                        <path d="M19.4210488,18.328777 C19.3419849,19.1248739 18.6227829,19.7762068 17.8227679,19.7762068 L3.68865513,19.7762068 C2.88864006,19.7762068 2.15390521,19.1265531 2.05594989,18.3326253 L0.0788617417,2.31049378 C-0.019093576,1.51649596 0.555274426,0.866842304 1.3552895,0.866842304 L19.6997317,0.866842304 C20.4996768,0.866842304 21.0896477,1.51824517 21.0105837,2.31434203 L19.4210488,18.328777" id="Fill-39" fill="#5D5D5D"></path>
                        <path d="M18.684005,17.7117985 C18.6122877,18.4426151 17.9526286,19.0406323 17.2183136,19.0406323 L4.32585448,19.0406323 C3.59146947,19.0406323 2.91774678,18.4441544 2.82874738,17.7152269 L1.02175164,2.91648736 C0.93275224,2.18748989 1.4607314,1.59108194 2.19511641,1.59108194 L18.9321118,1.59108194 C19.6664968,1.59108194 20.2086096,2.18902919 20.1368923,2.91991579 L18.684005,17.7117985" id="Fill-42" fill="#5D5D5D"></path>
                        <path d="M13.4790792,4.65204568 C13.4790792,5.54008061 12.7547696,6.25991226 11.8611373,6.25991226 L9.02323177,6.25991226 C8.12966937,6.25991226 7.40521982,5.54008061 7.40521982,4.65204568 C7.40521982,3.76408073 8.12966937,3.04424908 9.02323177,3.04424908 L11.8611373,3.04424908 C12.7547696,3.04424908 13.4790792,3.76408073 13.4790792,4.65204568" id="Fill-43" fill="#FFFFFE"></path>
                        <path d="M10.4183497,5.08885643 C10.3789002,5.08885643 10.3469579,5.05849028 10.3469579,5.02098739 L10.3469579,3.10337211 C10.3469579,3.06586922 10.3789002,3.0354331 10.4183497,3.0354331 C10.4578728,3.0354331 10.4898151,3.06586922 10.4898151,3.10337211 L10.4898151,5.02098739 C10.4898151,5.05849028 10.4578728,5.08885643 10.4183497,5.08885643" id="Fill-44" fill="#565A57"></path>
                        <path d="M8.02653641,4.87391448 L8.01786037,4.87279499 L7.33371244,4.69171759 C7.31559071,4.68688979 7.30474565,4.66827828 7.30957345,4.65015655 C7.31433128,4.63196484 7.33294279,4.62125973 7.35106453,4.62601756 L8.03521245,4.80709496 C8.05333419,4.81192276 8.06410927,4.8304643 8.05935144,4.84858603 C8.05529329,4.86383907 8.04157955,4.87391448 8.02653641,4.87391448" id="Fill-45" fill="#000105"></path>
                        <path d="M8.64498431,4.11525054 C8.63434916,4.11525054 8.62385394,4.11028281 8.61727694,4.10090709 L7.99882905,3.22777536 C7.987984,3.21252232 7.99162234,3.19132199 8.00687538,3.18047694 C8.02219839,3.16949195 8.04332875,3.17327023 8.05424377,3.18859324 L8.67269167,4.06172496 C8.68346675,4.076978 8.67989838,4.09817833 8.66457537,4.10902338 C8.65862808,4.11329144 8.65177121,4.11525054 8.64498431,4.11525054" id="Fill-46" fill="#000105"></path>
                        <path d="M9.73788578,3.8645549 C9.72046373,3.8645549 9.70570046,3.85126096 9.70409119,3.83355904 L9.62138892,2.89507713 C9.61970968,2.87646561 9.6334934,2.85995315 9.65224484,2.85827391 C9.67064645,2.85596497 9.68736882,2.87051833 9.68897809,2.88912984 L9.77175033,3.82761175 C9.77342956,3.84629323 9.75957588,3.8628057 9.74089441,3.86441496 L9.73788578,3.8645549" id="Fill-47" fill="#000105"></path>
                        <path d="M8.19404,4.18130041 L8.18452434,4.17836175 L7.62268063,3.79479672 C7.61491417,3.78954911 7.61295507,3.77891396 7.61820267,3.77121747 C7.62345028,3.76338105 7.63408543,3.76142194 7.64178192,3.76673952 L8.20362563,4.15030455 C8.21139209,4.15562213 8.21335119,4.16618731 8.20803362,4.1738838 L8.19404,4.18130041" id="Fill-48" fill="#000105"></path>
                        <path d="M8.09790386,4.35384171 L8.09153676,4.35258228 L7.46014477,4.09705884 C7.45139876,4.09356044 7.44720067,4.08362497 7.45069908,4.07494893 C7.45426745,4.06620292 7.46406298,4.06221474 7.47280899,4.0655732 L8.10427095,4.32109665 C8.11294699,4.32466502 8.11714508,4.33453052 8.11364667,4.34320656 C8.11091792,4.34985353 8.10455082,4.35384171 8.09790386,4.35384171" id="Fill-49" fill="#000105"></path>
                        <path d="M8.02653641,4.59453192 L8.02121884,4.5936923 L7.37366422,4.38154907 C7.36477827,4.37868038 7.35988051,4.36909475 7.36281916,4.36013884 C7.36568786,4.35125289 7.37513355,4.34628516 7.38429937,4.34936375 L8.03178402,4.56143702 C8.04066996,4.56437567 8.04556773,4.5739613 8.04262907,4.58284725 C8.04032012,4.58998399 8.03367315,4.59453192 8.02653641,4.59453192" id="Fill-50" fill="#000105"></path>
                        <path d="M8.33572537,3.9895179 L8.32495029,3.98573962 L7.79872033,3.55508606 C7.79151362,3.54913877 7.79046409,3.53843366 7.79634141,3.53115698 C7.80235867,3.52395026 7.81299382,3.52290074 7.8202705,3.52877806 L8.34643049,3.95943162 C8.35370717,3.96537891 8.35475669,3.97608402 8.34887937,3.9833607 L8.33572537,3.9895179" id="Fill-51" fill="#000105"></path>
                        <path d="M9.18723696,3.55893431 C9.17975037,3.55893431 9.1728935,3.5538966 9.17086442,3.54634005 L8.9834899,2.8526065 C8.98111098,2.84358062 8.98642856,2.83420489 8.99545444,2.83175601 C9.00476019,2.82965697 9.01385604,2.83469467 9.01630493,2.84372055 L9.20360949,3.53752407 C9.20605837,3.54654996 9.20067083,3.55585571 9.19171491,3.55830459 L9.18723696,3.55893431" id="Fill-52" fill="#000105"></path>
                        <path d="M8.93402246,3.62722316 C8.92751543,3.62722316 8.92128827,3.62344488 8.91848955,3.61707778 L8.62938142,2.9582583 C8.62567311,2.94965223 8.62952136,2.93964679 8.63812743,2.93586852 C8.64666354,2.93209024 8.65673894,2.93600845 8.66051722,2.94454456 L8.94955538,3.60343401 C8.95333365,3.61204008 8.94941544,3.62204552 8.94087933,3.6258238 L8.93402246,3.62722316" id="Fill-53" fill="#000105"></path>
                        <path d="M8.68479614,3.74581906 L8.67003288,3.73728295 L8.32096211,3.13009992 C8.31627425,3.12198362 8.31907297,3.11162835 8.32725924,3.10694048 C8.33537553,3.10218265 8.34573081,3.10505135 8.35041867,3.11316764 L8.69948944,3.72035068 C8.7041773,3.72846697 8.70137858,3.73882225 8.69326228,3.74351011 L8.68479614,3.74581906" id="Fill-54" fill="#000105"></path>
                        <path d="M9.42266224,3.55893431 C9.41339024,3.55893431 9.40528698,3.55270715 9.40396241,3.54424101 L9.29885376,2.85043749 C9.29745128,2.84113173 9.30469746,2.83259563 9.31506029,2.8313362 C9.32511145,2.83000681 9.33492886,2.83651384 9.33633135,2.84588956 L9.44136208,3.53962312 C9.44276456,3.54892887 9.43559629,3.55746498 9.42523347,3.5587244 L9.42266224,3.55893431" id="Fill-55" fill="#000105"></path>
                        <path d="M10.0217543,3.54578031 C10.0033257,3.54578031 9.98804003,3.53871353 9.98718289,3.52961768 L9.94104003,3.04382927 C9.94018289,3.03445355 9.95504003,3.02647719 9.97404003,3.02605738 C9.99718289,3.02472798 10.0094686,3.03291425 10.0103257,3.04222001 L10.0563257,3.52800841 C10.0571829,3.53738414 10.0424686,3.5453605 10.0233257,3.54578031 L10.0217543,3.54578031" id="Fill-56" fill="#000105"></path>
                        <path d="M10.2428171,3.53563493 C10.2243885,3.53563493 10.2091028,3.52849819 10.2082457,3.51940234 L10.1622457,3.0336839 C10.1612457,3.02430818 10.1761028,3.01633181 10.1952457,3.01591201 C10.2176742,3.0154922 10.2305314,3.02276888 10.2313885,3.03207463 L10.2773885,3.51786304 C10.2783885,3.52723876 10.2635314,3.53514516 10.2443885,3.53556497 L10.2428171,3.53563493" id="Fill-57" fill="#000105"></path>
                        <path d="M12.8315946,4.85635249 C12.8165514,4.85635249 12.8027677,4.84634705 12.7987796,4.83109401 C12.7938818,4.81297228 12.8047968,4.79436077 12.8229185,4.78960294 L13.5070665,4.60852554 C13.5249083,4.60369774 13.5437297,4.61447282 13.5485575,4.63266452 C13.5533853,4.65078626 13.5425403,4.6693278 13.5244186,4.6741556 L12.8402706,4.855233 L12.8315946,4.85635249" id="Fill-58" fill="#000105"></path>
                        <path d="M12.2131467,4.09775852 C12.2062898,4.09775852 12.1994329,4.09572945 12.1934857,4.09146139 C12.1782326,4.08068631 12.1745943,4.05941601 12.1853694,4.04416297 L12.8038872,3.17103125 C12.8146623,3.15563827 12.8359326,3.1520699 12.8511856,3.16291495 C12.8665087,3.17376 12.870077,3.19496033 12.859232,3.21028334 L12.2407841,4.08341506 C12.2342071,4.09279079 12.2237119,4.09775852 12.2131467,4.09775852" id="Fill-59" fill="#000105"></path>
                        <path d="M11.1202452,3.84713284 L11.1172366,3.84699291 C11.0984851,3.84531367 11.0847014,3.82887117 11.0863807,3.8101897 L11.169013,2.87163782 C11.1706922,2.85295634 11.1869248,2.83875282 11.2058162,2.84078189 C11.2244977,2.84246113 11.2383513,2.85890363 11.2366721,2.8775851 L11.1539698,3.81613698 C11.1524305,3.83376894 11.1376673,3.84713284 11.1202452,3.84713284" id="Fill-60" fill="#000105"></path>
                        <path d="M12.6638811,4.16387836 L12.6498875,4.15646174 C12.6445699,4.14869529 12.646599,4.13813011 12.6542955,4.1328825 L13.2163491,3.7492475 C13.2241155,3.74392992 13.2346107,3.745959 13.2398584,3.75365548 C13.2452459,3.76142194 13.2431469,3.77198712 13.2354504,3.77723473 L12.6734667,4.16086973 L12.6638811,4.16387836" id="Fill-61" fill="#000105"></path>
                        <path d="M12.7602271,4.33634969 C12.7535102,4.33634969 12.7471431,4.33229154 12.7444843,4.32571454 C12.7409859,4.3170385 12.745184,4.30710303 12.75386,4.30360463 L13.385252,4.04801121 C13.3937881,4.04458278 13.4037936,4.0487109 13.407292,4.05745691 C13.4108604,4.06613295 13.4065923,4.07599845 13.3979163,4.07956682 L12.7665942,4.33509026 L12.7602271,4.33634969" id="Fill-62" fill="#000105"></path>
                        <path d="M12.8315946,4.5770399 C12.8243879,4.5770399 12.8177409,4.57249197 12.815432,4.56535523 C12.8124933,4.55646928 12.8173211,4.54681369 12.826277,4.54394499 L13.4738316,4.33187173 C13.4823677,4.3288631 13.4923032,4.3336909 13.4952419,4.34264682 C13.4981805,4.35160273 13.4933527,4.36118836 13.4843968,4.36405705 L12.8368422,4.57620028 L12.8315946,4.5770399" id="Fill-63" fill="#000105"></path>
                        <path d="M12.5224056,3.97202587 L12.5092516,3.96586868 C12.5033043,3.958592 12.5043539,3.94788689 12.5116305,3.9419396 L13.0378605,3.51128604 C13.0451372,3.50547869 13.0559123,3.50652821 13.0617196,3.51373492 C13.0676669,3.52101161 13.0666174,3.53171672 13.0592707,3.53759404 L12.5331107,3.9682476 L12.5224056,3.97202587" id="Fill-64" fill="#000105"></path>
                        <path d="M11.670894,3.54144229 L11.6664161,3.54088254 C11.6573902,3.53843366 11.6520027,3.52905793 11.6544515,3.52003205 L11.8417561,2.82622853 C11.844135,2.81720265 11.8531609,2.81174514 11.8626066,2.81426399 C11.8716325,2.81671287 11.87702,2.82608859 11.8745711,2.83511448 L11.6872666,3.52884803 C11.6852375,3.53647455 11.6783806,3.54144229 11.670894,3.54144229" id="Fill-65" fill="#000105"></path>
                        <path d="M11.9240386,3.6098011 L11.9171817,3.60833177 C11.9086456,3.60462347 11.9046574,3.59454806 11.9084357,3.58594199 L12.1975438,2.92705254 C12.2013221,2.91844647 12.2111876,2.91459822 12.2199336,2.9183765 C12.2284697,2.92215477 12.2324579,2.93216021 12.2286796,2.94076628 L11.9395715,3.59965573 C11.9367728,3.60602283 11.9305456,3.6098011 11.9240386,3.6098011" id="Fill-66" fill="#000105"></path>
                        <path d="M12.1731949,3.72832704 L12.1647288,3.72601809 C12.1566125,3.72133023 12.1538138,3.71097495 12.1585016,3.70285866 L12.5077123,3.09567562 C12.5124002,3.08755932 12.5226855,3.08469063 12.5308718,3.08944846 C12.5389881,3.09413632 12.5417868,3.1044916 12.5370989,3.1126079 L12.1878882,3.71979093 L12.1731949,3.72832704" id="Fill-67" fill="#000105"></path>
                        <path d="M11.44988,3.54144229 L11.4473119,3.54130235 C11.4370393,3.54004292 11.4297239,3.53150682 11.4312026,3.52220106 L11.5362634,2.82839754 C11.537742,2.81909179 11.5463025,2.81244482 11.5575868,2.81384418 C11.5678594,2.81510361 11.575097,2.82363971 11.5736961,2.83294547 L11.4685575,3.52674899 C11.4673124,3.53528509 11.4592188,3.54144229 11.44988,3.54144229" id="Fill-68" fill="#000105"></path>
                        <path d="M10.9090923,3.52828829 L10.9075209,3.52821832 C10.8883781,3.52779851 10.8735209,3.51989212 10.8745209,3.51051639 L10.9206638,3.02479795 C10.9216638,3.0154922 10.9362352,3.00744587 10.9569495,3.00863533 C10.9760923,3.00905513 10.9908066,3.0170315 10.9899495,3.02633725 L10.9436638,3.51205569 C10.9428066,3.52115154 10.9275209,3.52828829 10.9090923,3.52828829" id="Fill-69" fill="#000105"></path>
                        <path d="M10.6882394,3.51814291 L10.6865251,3.51807295 C10.6675251,3.51765314 10.652668,3.50974674 10.653668,3.50037102 L10.6995251,3.01458261 C10.7003823,3.00527686 10.715668,2.99688069 10.735668,2.99841999 C10.7548108,2.99883979 10.769668,3.00681616 10.768668,3.01619188 L10.7228108,3.50191032 C10.7219537,3.51100617 10.706668,3.51814291 10.6882394,3.51814291" id="Fill-70" fill="#000105"></path>
                        <path d="M11.7493283,6.25074644 L9.08039569,6.25074644 C8.20593458,6.25074644 7.49680805,5.5462378 7.49680805,4.67709426 C7.49680805,3.80795072 8.20593458,3.10337211 9.08039569,3.10337211 L11.7493283,3.10337211 C12.6237894,3.10337211 13.3328459,3.80795072 13.3328459,4.67709426 C13.3328459,5.5462378 12.6237894,6.25074644 11.7493283,6.25074644 Z M11.9467782,2.75108281 L8.88294576,2.75108281 C7.87890375,2.75108281 7.065035,3.61483881 7.065035,4.68038276 C7.065035,5.74592671 7.87890375,6.60961274 8.88294576,6.60961274 L11.9467782,6.60961274 C12.9507502,6.60961274 13.764689,5.74592671 13.764689,4.68038276 C13.764689,3.61483881 12.9507502,2.75108281 11.9467782,2.75108281 L11.9467782,2.75108281 Z" id="Fill-71" fill="#FFFFFF"></path>
                        <path d="M8.87524927,2.81580329 C8.87524927,2.81580329 8.82990995,2.82035121 8.74482876,2.82895729 C8.70179839,2.83098636 8.65086162,2.84302087 8.59131878,2.85568509 C8.5314261,2.86562056 8.46467655,2.88829022 8.38988067,2.91151962 C8.24273779,2.96406566 8.06872716,3.04501873 7.89793507,3.1783779 C7.72763275,3.31103738 7.5622282,3.4944937 7.43152782,3.72286953 C7.30208687,3.95145526 7.21000887,4.22733941 7.18964816,4.52624307 C7.18873857,4.56367599 7.18782899,4.60131882 7.1869194,4.63917156 L7.1853801,4.69605561 L7.18915838,4.75140036 C7.19188714,4.79149208 7.19468586,4.83179369 7.19748458,4.87237518 C7.20133283,4.91197712 7.209729,4.94759087 7.21546638,4.98565351 C7.22491207,5.06030945 7.24912103,5.13678457 7.26703286,5.2138894 C7.27689836,5.25237185 7.29278111,5.28924503 7.30537537,5.3272377 C7.3184594,5.36509043 7.33126356,5.403293 7.3498051,5.4392566 C7.36673738,5.47591987 7.38373962,5.51265312 7.40081183,5.54959627 C7.42124251,5.58472024 7.44181313,5.61998416 7.46245372,5.65538801 C7.48162497,5.69163148 7.50618377,5.72458644 7.53032276,5.75796122 C7.55537133,5.79056635 7.57594195,5.82687978 7.60469883,5.85682612 C7.70804169,5.98654695 7.83566348,6.09716649 7.97308079,6.19309274 C8.25309307,6.3823564 8.58768044,6.47912226 8.93500201,6.46848711 C9.6635097,6.47359478 10.3920174,6.47870245 11.0749759,6.48346028 C11.245698,6.48520949 11.4136214,6.48443984 11.5779764,6.48905773 C11.660049,6.49080693 11.7413519,6.49255614 11.8216753,6.49423537 L11.8767401,6.49549479 L11.9364229,6.49360566 C11.9760249,6.49227626 12.0154169,6.49101684 12.054529,6.48975741 C12.1956547,6.47163568 12.3405586,6.44749669 12.471119,6.39425098 C12.6043382,6.34856182 12.7227242,6.27929341 12.8336237,6.20932533 C13.0490554,6.05889395 13.2153695,5.87669706 13.334805,5.69652924 C13.4560597,5.5166413 13.5259578,5.33710319 13.5698978,5.18688172 C13.5806029,5.14895902 13.5906084,5.11313536 13.6000541,5.07941074 C13.606841,5.04491648 13.6131381,5.01273116 13.6190154,4.98264488 C13.6248228,4.95248864 13.6302103,4.92457137 13.635178,4.89903302 C13.6392362,4.87328477 13.6402857,4.84956559 13.6426646,4.82850519 C13.6507109,4.74377384 13.654979,4.69857446 13.654979,4.69857446 L13.6682729,4.69857446 C13.6682729,4.69857446 13.6661039,4.74426362 13.6621857,4.82976462 C13.6607863,4.85110488 13.6609263,4.8751739 13.6579876,4.901272 C13.6542793,4.92737009 13.6502212,4.95577714 13.6458132,4.98649313 C13.6413352,5.01720911 13.6363675,5.05023405 13.6311898,5.08549796 C13.6228636,5.12013217 13.6139777,5.15686541 13.604602,5.19576767 C13.5654198,5.35018723 13.5008393,5.53616239 13.3829431,5.72591584 C13.2672858,5.91580922 13.1021612,6.11192976 12.8793828,6.2734161 C12.6554849,6.43189381 12.3741432,6.55132933 12.0597766,6.58820251 C11.9037478,6.60023702 11.7417717,6.59841785 11.5779764,6.59841785 C11.4136214,6.59855778 11.245698,6.59876769 11.0749759,6.59897759 C10.3920174,6.59974724 9.6635097,6.60058686 8.93500201,6.60142647 C8.56857916,6.61073223 8.19956748,6.50158202 7.90283284,6.29559598 C7.75596983,6.19148347 7.62058159,6.07148821 7.51136141,5.93218175 C7.48113519,5.89971656 7.45923518,5.86102421 7.43285722,5.8259702 C7.40738883,5.79014654 7.38171055,5.75467272 7.3614198,5.71598037 C7.33986963,5.67805767 7.31831946,5.64034487 7.29690923,5.60277201 C7.27906737,5.56331001 7.26122551,5.52405792 7.24352358,5.48501572 C7.22428236,5.44646331 7.21091845,5.40588182 7.19734465,5.36551024 C7.18426061,5.32506868 7.16795805,5.28567665 7.15774271,5.24481529 C7.13885133,5.16267276 7.11485227,5.08248934 7.10659604,4.99971709 C7.07811903,4.83634162 7.08175737,4.67464538 7.09113309,4.51742709 C7.11988998,4.20376017 7.22323284,3.9171709 7.36372875,3.6821481 C7.5045745,3.44635566 7.68383273,3.26240957 7.86470023,3.13247883 C8.04591757,3.00156855 8.22734481,2.92523337 8.37938546,2.8771653 C8.45656025,2.8561049 8.52512898,2.83574419 8.5873306,2.82888732 C8.64883255,2.81888188 8.70102874,2.80929625 8.74377924,2.80936622 C8.82907033,2.80488826 8.87454959,2.80250935 8.87454959,2.80250935 L8.87524927,2.81580329" id="Fill-72" fill="#FFFFFF"></path>
                    </g>
                </g>
            </g>
        </g>
    </g>
</svg>